{
.appVersion = "1057";
classes = (
{
code = "";
name = _kern105;
}
);
copyright = "Copyright (c) 2016, Ek Type. All rights reserved.";
customParameters = (
{
name = glyphOrder;
value = (
.notdef,
NULL,
CR,
space,
exclam,
quotedbl,
numbersign,
dollar,
percent,
ampersand,
quotesingle,
parenleft,
parenright,
asterisk,
plus,
comma,
hyphen,
period,
slash,
zero,
one,
two,
three,
four,
five,
six,
seven,
eight,
nine,
colon,
semicolon,
less,
equal,
greater,
question,
at,
A,
B,
C,
D,
E,
F,
G,
H,
I,
J,
K,
L,
M,
N,
O,
P,
Q,
R,
S,
T,
U,
V,
W,
X,
Y,
Z,
bracketleft,
backslash,
bracketright,
asciicircum,
underscore,
grave,
a,
b,
c,
d,
e,
f,
g,
h,
i,
j,
k,
l,
m,
n,
o,
p,
q,
r,
s,
t,
u,
v,
w,
x,
y,
z,
braceleft,
bar,
braceright,
asciitilde,
uni00A0,
exclamdown,
cent,
sterling,
currency,
yen,
brokenbar,
section,
dieresis,
copyright,
ordfeminine,
guillemotleft,
logicalnot,
uni00AD,
registered,
macron,
degree,
plusminus,
twosuperior,
threesuperior,
acute,
mu,
paragraph,
periodcentered,
cedilla,
onesuperior,
ordmasculine,
guillemotright,
onequarter,
onehalf,
threequarters,
questiondown,
Agrave,
Aacute,
Acircumflex,
Atilde,
Adieresis,
Aring,
AE,
Ccedilla,
Egrave,
Eacute,
Ecircumflex,
Edieresis,
Igrave,
Iacute,
Icircumflex,
Idieresis,
Eth,
Ntilde,
Ograve,
Oacute,
Ocircumflex,
Otilde,
Odieresis,
multiply,
Oslash,
Ugrave,
Uacute,
Ucircumflex,
Udieresis,
Yacute,
Thorn,
germandbls,
agrave,
aacute,
acircumflex,
atilde,
adieresis,
aring,
ae,
ccedilla,
egrave,
eacute,
ecircumflex,
edieresis,
igrave,
iacute,
icircumflex,
idieresis,
eth,
ntilde,
ograve,
oacute,
ocircumflex,
otilde,
odieresis,
divide,
oslash,
ugrave,
uacute,
ucircumflex,
udieresis,
yacute,
thorn,
ydieresis,
Amacron,
amacron,
Abreve,
abreve,
Aogonek,
aogonek,
Cacute,
cacute,
Ccircumflex,
ccircumflex,
Cdotaccent,
cdotaccent,
Ccaron,
ccaron,
Dcaron,
dcaron,
Dcroat,
dcroat,
Emacron,
emacron,
Ebreve,
ebreve,
Edotaccent,
edotaccent,
Eogonek,
eogonek,
Ecaron,
ecaron,
Gcircumflex,
gcircumflex,
Gbreve,
gbreve,
Gdotaccent,
gdotaccent,

glyphs = (
{
glyphname = exclam;
lastChange = "2017-09-02 22:18:06 +0000";
layers = (
{
layerId = "95F0E3FF-6822-4CFD-805E-5B95C02D9EC6";
paths = (
{
closed = 1;
nodes = (
"237 580 CURVE",
"237 632 OFFCURVE",
"205 657 OFFCURVE",
"151 657 CURVE SMOOTH",
"118 657 OFFCURVE",
"82 648 OFFCURVE",
"55 633 CURVE",
"55 532 OFFCURVE",
"64 322 OFFCURVE",
"76 260 CURVE SMOOTH",
"83 226 OFFCURVE",
"111 216 OFFCURVE",
"149 216 CURVE SMOOTH",
"167 216 OFFCURVE",
"201 222 OFFCURVE",
"212 231 CURVE",
"231 329 OFFCURVE",
"237 519 OFFCURVE"
);
},
{
closed = 1;
nodes = (
"53 76 CURVE",
"53 22 OFFCURVE",
"90 -18 OFFCURVE",
"149 -18 CURVE SMOOTH",
"208 -18 OFFCURVE",
"245 22 OFFCURVE",
"245 76 CURVE SMOOTH",
"245 130 OFFCURVE",
"208 170 OFFCURVE",
"149 170 CURVE SMOOTH",
"90 170 OFFCURVE",
"53 130 OFFCURVE"
);
}
);
width = 298;
}
);
unicode = 0021;
},
{
glyphname = quotedbl;
lastChange = "2017-09-02 22:18:06 +0000";
layers = (
{
layerId = "95F0E3FF-6822-4CFD-805E-5B95C02D9EC6";
paths = (
{
closed = 1;
nodes = (
"158 404 CURVE",
"169 457 OFFCURVE",
"181 564 OFFCURVE",
"181 601 CURVE SMOOTH",
"181 646 OFFCURVE",
"152 661 OFFCURVE",
"105 661 CURVE SMOOTH",
"72 661 OFFCURVE",
"44 652 OFFCURVE",
"25 637 CURVE",
"38 438 LINE SMOOTH",
"40 405 OFFCURVE",
"67 394 OFFCURVE",
"100 394 CURVE SMOOTH",
"123 394 OFFCURVE",
"144 396 OFFCURVE"
);
},
{
closed = 1;
nodes = (
"359 404 CURVE",
"370 457 OFFCURVE",
"382 564 OFFCURVE",
"382 601 CURVE SMOOTH",
"382 646 OFFCURVE",
"353 661 OFFCURVE",
"306 661 CURVE SMOOTH",
"273 661 OFFCURVE",
"245 652 OFFCURVE",
"226 637 CURVE",
"239 438 LINE SMOOTH",
"241 405 OFFCURVE",
"268 394 OFFCURVE",
"301 394 CURVE SMOOTH",
"324 394 OFFCURVE",
"345 396 OFFCURVE"
);
}
);
width = 410;
}
);
leftKerningGroup = quotesingle;
rightKerningGroup = quotesingle;
unicode = 0022;
},
{
glyphname = numbersign;
lastChange = "2017-09-02 22:18:06 +0000";
layers = (
{
layerId = "95F0E3FF-6822-4CFD-805E-5B95C02D9EC6";
paths = (
{
closed = 1;
nodes = (
"512 129 LINE",
"601 129 LINE SMOOTH",
"632 129 OFFCURVE",
"657 148 OFFCURVE",
"657 194 CURVE SMOOTH",
"657 218 OFFCURVE",
"648 243 OFFCURVE",
"639 256 CURVE",
"541 256 LINE",
"563 357 LINE",
"628 357 LINE SMOOTH",
"659 357 OFFCURVE",
"684 376 OFFCURVE",
"684 422 CURVE SMOOTH",
"684 446 OFFCURVE",
"675 471 OFFCURVE",
"666 484 CURVE",
"591 484 LINE",
"594 495 LINE SMOOTH",
"598 514 OFFCURVE",
"601 534 OFFCURVE",
"601 548 CURVE SMOOTH",
"601 596 OFFCURVE",
"574 615 OFFCURVE",
"518 615 CURVE SMOOTH",
"503 615 OFFCURVE",
"488 615 OFFCURVE",
"469 613 CURVE",
"440 484 LINE",
"351 484 LINE",
"354 495 LINE SMOOTH",
"358 514 OFFCURVE",
"361 534 OFFCURVE",
"361 548 CURVE SMOOTH",
"361 596 OFFCURVE",
"334 615 OFFCURVE",
"278 615 CURVE SMOOTH",
"263 615 OFFCURVE",
"248 615 OFFCURVE",
"229 613 CURVE",
"200 484 LINE",
"114 484 LINE SMOOTH",
"82 484 OFFCURVE",
"57 465 OFFCURVE",
"57 418 CURVE SMOOTH",
"57 395 OFFCURVE",
"67 371 OFFCURVE",
"74 357 CURVE",
"172 357 LINE",
"150 256 LINE",
"87 256 LINE SMOOTH",
"55 256 OFFCURVE",
"30 237 OFFCURVE",
"30 190 CURVE SMOOTH",
"30 167 OFFCURVE",
"40 143 OFFCURVE",
"47 129 CURVE",
"122 129 LINE",
"120 118 LINE SMOOTH",
"116 99 OFFCURVE",
"114 80 OFFCURVE",
"114 66 CURVE SMOOTH",
"114 18 OFFCURVE",
"141 -2 OFFCURVE",
"196 -2 CURVE SMOOTH",
"211 -2 OFFCURVE",
"226 -2 OFFCURVE",
"244 1 CURVE",
"272 129 LINE",
"362 129 LINE",
"360 118 LINE SMOOTH",
"356 99 OFFCURVE",
"354 80 OFFCURVE",
"354 66 CURVE SMOOTH",
"354 18 OFFCURVE",
"381 -2 OFFCURVE",
"436 -2 CURVE SMOOTH",
"451 -2 OFFCURVE",
"466 -2 OFFCURVE",
"484 1 CURVE"
);
},
{
closed = 1;
nodes = (
"323 357 LINE",
"412 357 LINE",
"390 256 LINE",
"301 256 LINE"
);
}
);
width = 714;
}
);
unicode = 0023;
},
{
glyphname = dollar;
lastChange = "2017-09-02 22:18:06 +0000";
layers = (
{
layerId = "95F0E3FF-6822-4CFD-805E-5B95C02D9EC6";
paths = (
{
closed = 1;
nodes = (
"283 227 LINE SMOOTH",
"322 214 OFFCURVE",
"344 203 OFFCURVE",
"344 176 CURVE SMOOTH",
"344 149 OFFCURVE",
"320 126 OFFCURVE",
"255 126 CURVE SMOOTH",
"191 126 OFFCURVE",
"135 151 OFFCURVE",
"98 180 CURVE",
"71 165 OFFCURVE",
"44 138 OFFCURVE",
"44 99 CURVE SMOOTH",
"44 35 OFFCURVE",
"111 -3 OFFCURVE",
"206 -13 CURVE",
"206 -23 LINE SMOOTH",
"206 -82 OFFCURVE",
"237 -94 OFFCURVE",
"289 -94 CURVE SMOOTH",
"315 -94 OFFCURVE",
"344 -89 OFFCURVE",
"356 -86 CURVE",
"356 -6 LINE",
"466 17 OFFCURVE",
"525 84 OFFCURVE",
"525 174 CURVE SMOOTH",
"525 281 OFFCURVE",
"456 337 OFFCURVE",
"330 377 CURVE SMOOTH",
"277 394 LINE SMOOTH",
"243 405 OFFCURVE",
"225 416 OFFCURVE",
"225 436 CURVE SMOOTH",
"225 461 OFFCURVE",
"252 480 OFFCURVE",
"312 480 CURVE SMOOTH",
"370 480 OFFCURVE",
"423 464 OFFCURVE",
"452 445 CURVE",
"474 462 OFFCURVE",
"493 487 OFFCURVE",
"493 521 CURVE SMOOTH",
"493 577 OFFCURVE",
"438 609 OFFCURVE",
"356 619 CURVE",
"356 632 LINE SMOOTH",
"356 691 OFFCURVE",
"325 703 OFFCURVE",
"273 703 CURVE SMOOTH",
"247 703 OFFCURVE",
"218 698 OFFCURVE",
"206 695 CURVE",
"206 614 LINE",
"102 591 OFFCURVE",
"44 526 OFFCURVE",
"44 436 CURVE SMOOTH",
"44 319 OFFCURVE",
"124 280 OFFCURVE",
"241 241 CURVE SMOOTH"
);
}
);
width = 519;
}
);
unicode = 0024;
},
{
glyphname = percent;
lastChange = "2017-09-02 22:18:06 +0000";
layers = (
{
layerId = "95F0E3FF-6822-4CFD-805E-5B95C02D9EC6";
paths = (
{
closed = 1;
nodes = (
"193 115 LINE",
"176 89 OFFCURVE",
"175 69 OFFCURVE",
"175 48 CURVE",
"177 18 OFFCURVE",
"209 0 OFFCURVE",
"252 -7 CURVE",
"598 494 LINE",
"615 518 OFFCURVE",
"627 541 OFFCURVE",
"627 562 CURVE",
"625 593 OFFCURVE",
"583 610 OFFCURVE",
"538 617 CURVE"
);
},
{
closed = 1;
nodes = (
"351 458 CURVE",
"351 556 OFFCURVE",
"284 616 OFFCURVE",
"190 616 CURVE SMOOTH",
"95 616 OFFCURVE",
"29 556 OFFCURVE",
"29 458 CURVE SMOOTH",
"29 359 OFFCURVE",
"95 299 OFFCURVE",
"190 299 CURVE SMOOTH",
"284 299 OFFCURVE",
"351 359 OFFCURVE"
);
},
{
closed = 1;
nodes = (
"150 458 CURVE",
"150 497 OFFCURVE",
"167 515 OFFCURVE",
"190 515 CURVE SMOOTH",
"213 515 OFFCURVE",
"230 497 OFFCURVE",
"230 458 CURVE SMOOTH",
"230 418 OFFCURVE",
"213 399 OFFCURVE",
"190 399 CURVE SMOOTH",
"167 399 OFFCURVE",
"150 418 OFFCURVE"
);
},
{
closed = 1;
nodes = (
"770 151 CURVE",
"770 249 OFFCURVE",
"703 309 OFFCURVE",
"609 309 CURVE SMOOTH",
"514 309 OFFCURVE",
"448 249 OFFCURVE",
"448 151 CURVE SMOOTH",
"448 52 OFFCURVE",
"514 -8 OFFCURVE",
"609 -8 CURVE SMOOTH",
"703 -8 OFFCURVE",
"770 52 OFFCURVE"
);
},
{
closed = 1;
nodes = (
"569 151 CURVE",
"569 190 OFFCURVE",
"586 208 OFFCURVE",
"609 208 CURVE SMOOTH",
"632 208 OFFCURVE",
"649 190 OFFCURVE",
"649 151 CURVE SMOOTH",
"649 111 OFFCURVE",
"632 92 OFFCURVE",
"609 92 CURVE SMOOTH",
"586 92 OFFCURVE",
"569 111 OFFCURVE"
);
}
);
width = 799;
}
);
leftKerningGroup = percent;
unicode = 0025;
},
{
glyphname = ampersand;
lastChange = "2017-09-02 22:18:06 +0000";
layers = (
{
layerId = "95F0E3FF-6822-4CFD-805E-5B95C02D9EC6";
paths = (
{
closed = 1;
nodes = (
"467 378 CURVE",
"467 326 OFFCURVE",
"463 286 OFFCURVE",
"457 257 CURVE",
"329 381 LINE SMOOTH",
"304 406 OFFCURVE",
"284 426 OFFCURVE",
"284 446 CURVE SMOOTH",
"284 474 OFFCURVE",
"309 483 OFFCURVE",
"344 483 CURVE SMOOTH",
"365 483 OFFCURVE",
"385 478 OFFCURVE",
"400 472 CURVE",
"417 489 OFFCURVE",
"426 512 OFFCURVE",
"426 534 CURVE SMOOTH",
"426 580 OFFCURVE",
"395 614 OFFCURVE",
"311 614 CURVE SMOOTH",
"195 614 OFFCURVE",
"124 551 OFFCURVE",
"124 467 CURVE SMOOTH",
"124 435 OFFCURVE",
"135 397 OFFCURVE",
"161 365 CURVE",
"101 338 OFFCURVE",
"36 284 OFFCURVE",
"36 185 CURVE SMOOTH",
"36 71 OFFCURVE",
"123 -16 OFFCURVE",
"279 -16 CURVE SMOOTH",
"356 -16 OFFCURVE",
"420 6 OFFCURVE",
"469 42 CURVE",
"488 24 LINE SMOOTH",
"514 -2 OFFCURVE",
"538 -14 OFFCURVE",
"566 -14 CURVE SMOOTH",
"610 -14 OFFCURVE",
"646 22 OFFCURVE",
"649 72 CURVE",
"572 146 LINE",
"599 194 OFFCURVE",
"613 247 OFFCURVE",
"613 300 CURVE SMOOTH",
"613 354 OFFCURVE",
"599 393 OFFCURVE",
"536 393 CURVE SMOOTH",
"514 393 OFFCURVE",
"492 389 OFFCURVE"
);
},
{
closed = 1;
nodes = (
"196 196 CURVE",
"196 225 OFFCURVE",
"213 253 OFFCURVE",
"245 267 CURVE",
"373 138 LINE",
"346 121 OFFCURVE",
"315 114 OFFCURVE",
"289 114 CURVE SMOOTH",
"228 114 OFFCURVE",
"196 150 OFFCURVE"
);
}
);
width = 673;
}
);
unicode = 0026;
},
{
glyphname = quotesingle;
lastChange = "2017-09-02 22:18:06 +0000";
layers = (
{
layerId = "95F0E3FF-6822-4CFD-805E-5B95C02D9EC6";
paths = (
{
closed = 1;
nodes = (
"168 408 CURVE",
"179 461 OFFCURVE",
"191 560 OFFCURVE",
"191 597 CURVE SMOOTH",
"191 642 OFFCURVE",
"160 661 OFFCURVE",
"110 661 CURVE SMOOTH",
"74 661 OFFCURVE",
"44 648 OFFCURVE",
"25 633 CURVE",
"38 442 LINE SMOOTH",
"40 409 OFFCURVE",
"69 394 OFFCURVE",
"105 394 CURVE SMOOTH",
"131 394 OFFCURVE",
"154 400 OFFCURVE"
);
}
);
width = 219;
}
);
leftKerningGroup = quotesingle;
rightKerningGroup = quotesingle;
unicode = 0027;
},
{
glyphname = parenleft;
lastChange = "2017-09-02 22:18:06 +0000";
layers = (
{
layerId = "95F0E3FF-6822-4CFD-805E-5B95C02D9EC6";
paths = (
{
closed = 1;
nodes = (
"42 266 CURVE",
"42 127 OFFCURVE",
"70 20 OFFCURVE",
"108 -51 CURVE SMOOTH",
"133 -98 OFFCURVE",
"169 -136 OFFCURVE",
"223 -136 CURVE SMOOTH",
"259 -136 OFFCURVE",
"288 -112 OFFCURVE",
"303 -89 CURVE",
"239 8 OFFCURVE",
"204 111 OFFCURVE",
"204 266 CURVE",
"204 421 OFFCURVE",
"239 524 OFFCURVE",
"303 621 CURVE",
"288 644 OFFCURVE",
"259 668 OFFCURVE",
"223 668 CURVE SMOOTH",
"169 668 OFFCURVE",
"133 630 OFFCURVE",
"108 583 CURVE SMOOTH",
"70 512 OFFCURVE",
"42 405 OFFCURVE"
);
}
);
width = 305;
}
);
rightKerningGroup = parenleft;
unicode = 0028;
},
{
glyphname = parenright;
lastChange = "2017-09-02 22:18:06 +0000";
layers = (
{
layerId = "95F0E3FF-6822-4CFD-805E-5B95C02D9EC6";
paths = (
{
closed = 1;
nodes = (
"263 266 CURVE",
"263 405 OFFCURVE",
"235 512 OFFCURVE",
"197 583 CURVE SMOOTH",
"172 630 OFFCURVE",
"136 668 OFFCURVE",
"82 668 CURVE SMOOTH",
"46 668 OFFCURVE",
"17 644 OFFCURVE",
"2 621 CURVE",
"66 524 OFFCURVE",
"101 421 OFFCURVE",
"101 266 CURVE SMOOTH",
"101 111 OFFCURVE",
"66 8 OFFCURVE",
"2 -89 CURVE",
"17 -112 OFFCURVE",
"46 -136 OFFCURVE",
"82 -136 CURVE SMOOTH",
"136 -136 OFFCURVE",
"172 -98 OFFCURVE",
"197 -51 CURVE SMOOTH",
"235 20 OFFCURVE",
"263 127 OFFCURVE"
);
}
);
width = 305;
}
);
leftKerningGroup = parenright;
unicode = 0029;
},
{
glyphname = asterisk;
lastChange = "2017-09-02 22:18:06 +0000";
layers = (
{
layerId = "95F0E3FF-6822-4CFD-805E-5B95C02D9EC6";
paths = (
{
closed = 1;
nodes = (
"261 463 LINE",
"279 471 LINE SMOOTH",
"308 483 OFFCURVE",
"326 490 OFFCURVE",
"326 522 CURVE SMOOTH",
"326 550 OFFCURVE",
"307 571 OFFCURVE",
"285 581 CURVE",
"226 556 LINE",
"227 573 OFFCURVE",
"228 591 OFFCURVE",
"228 601 CURVE SMOOTH",
"228 633 OFFCURVE",
"207 649 OFFCURVE",
"177 649 CURVE SMOOTH",
"153 649 OFFCURVE",
"134 637 OFFCURVE",
"123 630 CURVE",
"123 558 LINE",
"108 563 LINE SMOOTH",
"96 567 OFFCURVE",
"84 570 OFFCURVE",
"75 570 CURVE SMOOTH",
"40 570 OFFCURVE",
"20 550 OFFCURVE",
"20 517 CURVE SMOOTH",
"20 506 OFFCURVE",
"22 492 OFFCURVE",
"26 480 CURVE",
"87 463 LINE",
"72 444 LINE",
"58 426 OFFCURVE",
"50 412 OFFCURVE",
"50 396 CURVE SMOOTH",
"50 366 OFFCURVE",
"73 347 OFFCURVE",
"117 347 CURVE",
"124 347 OFFCURVE",
"132 348 OFFCURVE",
"140 350 CURVE",
"178 407 LINE",
"186 393 LINE",
"200 368 OFFCURVE",
"213 347 OFFCURVE",
"245 347 CURVE SMOOTH",
"276 347 OFFCURVE",
"298 368 OFFCURVE",
"307 397 CURVE"
);
}
);
width = 351;
}
);
unicode = 002A;
},
{
glyphname = plus;
lastChange = "2017-09-02 22:18:06 +0000";
layers = (
{
layerId = "95F0E3FF-6822-4CFD-805E-5B95C02D9EC6";
paths = (
{
closed = 1;
nodes = (
"351 222 LINE",
"457 222 LINE SMOOTH",
"492 222 OFFCURVE",
"515 243 OFFCURVE",
"515 290 CURVE SMOOTH",
"515 315 OFFCURVE",
"506 340 OFFCURVE",
"499 356 CURVE",
"351 356 LINE",
"351 461 LINE SMOOTH",
"351 521 OFFCURVE",
"321 534 OFFCURVE",
"268 534 CURVE SMOOTH",
"242 534 OFFCURVE",
"210 528 OFFCURVE",
"197 524 CURVE",
"197 356 LINE",
"89 356 LINE SMOOTH",
"53 356 OFFCURVE",
"30 335 OFFCURVE",
"30 287 CURVE SMOOTH",
"30 263 OFFCURVE",
"37 237 OFFCURVE",
"46 222 CURVE",
"197 222 LINE",
"197 112 LINE SMOOTH",
"197 53 OFFCURVE",
"225 41 OFFCURVE",
"280 41 CURVE SMOOTH",
"306 41 OFFCURVE",
"340 45 OFFCURVE",
"351 50 CURVE"
);
}
);
width = 545;
}
);
leftKerningGroup = hyphen;
rightKerningGroup = hyphen;
unicode = 002B;
},
{
glyphname = comma;
lastChange = "2017-09-02 22:18:06 +0000";
layers = (
{
layerId = "95F0E3FF-6822-4CFD-805E-5B95C02D9EC6";
paths = (
{
closed = 1;
nodes = (
"149 -73 CURVE SMOOTH",
"183 -29 OFFCURVE",
"219 59 OFFCURVE",
"219 114 CURVE SMOOTH",
"219 162 OFFCURVE",
"182 178 OFFCURVE",
"141 178 CURVE SMOOTH",
"109 178 OFFCURVE",
"75 168 OFFCURVE",
"52 156 CURVE",
"39 86 OFFCURVE",
"19 -8 OFFCURVE",
"-10 -90 CURVE",
"11 -107 OFFCURVE",
"36 -115 OFFCURVE",
"65 -115 CURVE SMOOTH",
"102 -115 OFFCURVE",
"127 -102 OFFCURVE"
);
}
);
width = 243;
}
);
leftKerningGroup = period;
rightKerningGroup = period;
unicode = 002C;
},
{
glyphname = hyphen;
lastChange = "2017-09-02 22:18:06 +0000";
layers = (
{
layerId = "95F0E3FF-6822-4CFD-805E-5B95C02D9EC6";
paths = (
{
closed = 1;
nodes = (
"263 186 LINE SMOOTH",
"299 186 OFFCURVE",
"324 207 OFFCURVE",
"324 256 CURVE SMOOTH",
"324 283 OFFCURVE",
"313 309 OFFCURVE",
"305 323 CURVE",
"91 323 LINE SMOOTH",
"55 323 OFFCURVE",
"30 302 OFFCURVE",
"30 253 CURVE SMOOTH",
"30 226 OFFCURVE",
"40 200 OFFCURVE",
"49 186 CURVE"
);
}
);
width = 354;
}
);
leftKerningGroup = hyphen;
rightKerningGroup = hyphen;
unicode = 002D;
},
{
glyphname = period;
lastChange = "2017-09-02 22:18:06 +0000";
layers = (
{
layerId = "95F0E3FF-6822-4CFD-805E-5B95C02D9EC6";
paths = (
{
closed = 1;
nodes = (
"22 81 CURVE SMOOTH",
"22 26 OFFCURVE",
"60 -17 OFFCURVE",
"119 -17 CURVE SMOOTH",
"178 -17 OFFCURVE",
"216 26 OFFCURVE",
"216 81 CURVE SMOOTH",
"216 136 OFFCURVE",
"178 179 OFFCURVE",
"119 179 CURVE SMOOTH",
"60 179 OFFCURVE",
"22 136 OFFCURVE"
);
}
);
width = 238;
}
);
leftKerningGroup = period;
rightKerningGroup = period;
unicode = 002E;
},
{
glyphname = slash;
lastChange = "2017-09-02 22:18:06 +0000";
layers = (
{
layerId = "95F0E3FF-6822-4CFD-805E-5B95C02D9EC6";
paths = (
{
closed = 1;
nodes = (
"317 529 LINE",
"326 563 OFFCURVE",
"340 598 OFFCURVE",
"340 636 CURVE",
"340 687 OFFCURVE",
"306 708 OFFCURVE",
"253 708 CURVE SMOOTH",
"239 708 OFFCURVE",
"221 708 OFFCURVE",
"201 705 CURVE",
"25 70 LINE SMOOTH",
"17 42 OFFCURVE",
"3 3 OFFCURVE",
"3 -33 CURVE SMOOTH",
"3 -86 OFFCURVE",
"35 -109 OFFCURVE",
"90 -109 CURVE SMOOTH",
"105 -109 OFFCURVE",
"122 -109 OFFCURVE",
"141 -106 CURVE"
);
}
);
width = 343;
}
);
unicode = 002F;
},
{
glyphname = zero;
lastChange = "2017-09-02 22:18:06 +0000";
layers = (
{
layerId = "95F0E3FF-6822-4CFD-805E-5B95C02D9EC6";
paths = (
{
closed = 1;
nodes = (
"400 304 CURVE",
"400 187 OFFCURVE",
"364 119 OFFCURVE",
"302 119 CURVE SMOOTH",
"240 119 OFFCURVE",
"206 187 OFFCURVE",
"206 304 CURVE SMOOTH",
"206 421 OFFCURVE",
"240 488 OFFCURVE",
"302 488 CURVE SMOOTH",
"364 488 OFFCURVE",
"400 421 OFFCURVE"
);
},
{
closed = 1;
nodes = (
"571 304 CURVE",
"571 510 OFFCURVE",
"459 623 OFFCURVE",
"303 623 CURVE SMOOTH",
"145 623 OFFCURVE",
"35 510 OFFCURVE",
"35 304 CURVE",
"35 98 OFFCURVE",
"145 -16 OFFCURVE",
"303 -16 CURVE SMOOTH",
"459 -16 OFFCURVE",
"571 98 OFFCURVE"
);
}
);
width = 606;
}
);
unicode = 0030;
},
{
glyphname = one;
lastChange = "2017-09-02 22:18:06 +0000";
layers = (
{
layerId = "95F0E3FF-6822-4CFD-805E-5B95C02D9EC6";
paths = (
{
closed = 1;
nodes = (
"155 72 LINE SMOOTH",
"155 5 OFFCURVE",
"190 -8 OFFCURVE",
"249 -8 CURVE SMOOTH",
"278 -8 OFFCURVE",
"311 -2 OFFCURVE",
"325 1 CURVE",
"325 522 LINE SMOOTH",
"325 579 OFFCURVE",
"289 615 OFFCURVE",
"232 615 CURVE SMOOTH",
"195 615 LINE",
"83 577 LINE SMOOTH",
"35 561 OFFCURVE",
"10 533 OFFCURVE",
"10 493 CURVE SMOOTH",
"10 450 OFFCURVE",
"35 428 OFFCURVE",
"55 415 CURVE",
"155 446 LINE"
);
}
);
width = 393;
}
);
unicode = 0031;
},
{
glyphname = two;
lastChange = "2017-09-02 22:18:06 +0000";
layers = (
{
layerId = "95F0E3FF-6822-4CFD-805E-5B95C02D9EC6";
paths = (
{
closed = 1;
nodes = (
"241 623 CURVE SMOOTH",
"131 623 OFFCURVE",
"60 589 OFFCURVE",
"60 520 CURVE SMOOTH",
"60 488 OFFCURVE",
"77 464 OFFCURVE",
"99 448 CURVE",
"127 467 OFFCURVE",
"170 487 OFFCURVE",
"223 487 CURVE SMOOTH",
"271 487 OFFCURVE",
"308 464 OFFCURVE",
"308 427 CURVE SMOOTH",
"308 397 OFFCURVE",
"287 366 OFFCURVE",
"218 307 CURVE SMOOTH",
"80 189 LINE SMOOTH",
"58 170 OFFCURVE",
"35 139 OFFCURVE",
"35 94 CURVE SMOOTH",
"35 52 OFFCURVE",
"53 20 OFFCURVE",
"82 0 CURVE",
"429 0 LINE SMOOTH",
"464 0 OFFCURVE",
"487 19 OFFCURVE",
"487 67 CURVE SMOOTH",
"487 93 OFFCURVE",
"478 118 OFFCURVE",
"470 132 CURVE",
"230 132 LINE",
"361 237 LINE SMOOTH",
"441 301 OFFCURVE",
"480 366 OFFCURVE",
"480 437 CURVE SMOOTH",
"480 542 OFFCURVE",
"392 623 OFFCURVE"
);
}
);
width = 522;
}
);
unicode = 0032;
},
{
glyphname = three;
lastChange = "2017-09-02 22:18:06 +0000";
layers = (
{
layerId = "95F0E3FF-6822-4CFD-805E-5B95C02D9EC6";
paths = (
{
closed = 1;
nodes = (
"233 623 CURVE",
"117 623 OFFCURVE",
"42 593 OFFCURVE",
"42 526 CURVE SMOOTH",
"42 494 OFFCURVE",
"59 471 OFFCURVE",
"81 455 CURVE",
"108 473 OFFCURVE",
"150 488 OFFCURVE",
"204 488 CURVE",
"265 488 OFFCURVE",
"296 464 OFFCURVE",
"296 430 CURVE SMOOTH",
"296 394 OFFCURVE",
"273 375 OFFCURVE",
"224 375 CURVE SMOOTH",
"130 375 LINE",
"120 361 OFFCURVE",
"113 339 OFFCURVE",
"113 308 CURVE SMOOTH",
"113 279 OFFCURVE",
"121 257 OFFCURVE",
"130 243 CURVE",
"224 243 LINE SMOOTH",
"288 243 OFFCURVE",
"311 222 OFFCURVE",
"311 184 CURVE SMOOTH",
"311 146 OFFCURVE",
"278 119 OFFCURVE",
"211 119 CURVE SMOOTH",
"139 119 OFFCURVE",
"96 146 OFFCURVE",
"70 164 CURVE",
"45 150 OFFCURVE",
"25 123 OFFCURVE",
"25 87 CURVE SMOOTH",
"25 27 OFFCURVE",
"97 -16 OFFCURVE",
"235 -16 CURVE SMOOTH",
"380 -16 OFFCURVE",
"483 54 OFFCURVE",
"483 168 CURVE SMOOTH",
"483 253 OFFCURVE",
"437 296 OFFCURVE",
"382 316 CURVE",
"429 338 OFFCURVE",
"468 384 OFFCURVE",
"468 448 CURVE SMOOTH",
"468 554 OFFCURVE",
"385 623 OFFCURVE"
);
}
);
width = 518;
}
);
unicode = 0033;
},
{
glyphname = four;
lastChange = "2017-09-02 22:18:06 +0000";
layers = (
{
layerId = "95F0E3FF-6822-4CFD-805E-5B95C02D9EC6";
paths = (
{
closed = 1;
nodes = (
"43 294 LINE",
"27 271 OFFCURVE",
"21 237 OFFCURVE",
"21 212 CURVE SMOOTH",
"21 167 OFFCURVE",
"46 135 OFFCURVE",
"77 119 CURVE",
"328 119 LINE",
"328 63 LINE SMOOTH",
"328 -1 OFFCURVE",
"361 -8 OFFCURVE",
"419 -8 CURVE SMOOTH",
"446 -8 OFFCURVE",
"480 -2 OFFCURVE",
"494 1 CURVE",
"494 119 LINE",
"541 119 LINE SMOOTH",
"576 119 OFFCURVE",
"601 139 OFFCURVE",
"601 189 CURVE SMOOTH",
"601 216 OFFCURVE",
"591 242 OFFCURVE",
"583 256 CURVE",
"494 256 LINE",
"494 522 LINE SMOOTH",
"494 595 OFFCURVE",
"435 615 OFFCURVE",
"374 615 CURVE SMOOTH",
"348 615 OFFCURVE",
"311 609 OFFCURVE",
"286 601 CURVE"
);
},
{
closed = 1;
nodes = (
"337 256 LINE",
"201 256 LINE",
"334 444 LINE",
"337 444 LINE"
);
}
);
width = 606;
}
);
unicode = 0034;
},
{
glyphname = five;
lastChange = "2017-09-02 22:18:06 +0000";
layers = (
{
layerId = "95F0E3FF-6822-4CFD-805E-5B95C02D9EC6";
paths = (
{
closed = 1;
nodes = (
"250 -16 CURVE",
"425 -16 OFFCURVE",
"497 82 OFFCURVE",
"497 192 CURVE SMOOTH",
"497 302 OFFCURVE",
"436 390 OFFCURVE",
"297 390 CURVE SMOOTH",
"257 390 OFFCURVE",
"234 384 OFFCURVE",
"209 377 CURVE",
"216 471 LINE",
"408 471 LINE SMOOTH",
"443 471 OFFCURVE",
"468 491 OFFCURVE",
"468 541 CURVE SMOOTH",
"468 568 OFFCURVE",
"458 594 OFFCURVE",
"450 608 CURVE",
"162 608 LINE SMOOTH",
"105 608 OFFCURVE",
"72 572 OFFCURVE",
"68 515 CURVE SMOOTH",
"56 363 LINE SMOOTH",
"55 344 OFFCURVE",
"55 341 OFFCURVE",
"55 337 CURVE SMOOTH",
"55 270 OFFCURVE",
"96 238 OFFCURVE",
"161 235 CURVE",
"191 249 OFFCURVE",
"211 258 OFFCURVE",
"247 258 CURVE SMOOTH",
"304 258 OFFCURVE",
"325 230 OFFCURVE",
"325 191 CURVE SMOOTH",
"325 151 OFFCURVE",
"300 119 OFFCURVE",
"238 119 CURVE SMOOTH",
"173 119 OFFCURVE",
"134 143 OFFCURVE",
"97 171 CURVE",
"71 157 OFFCURVE",
"45 131 OFFCURVE",
"45 94 CURVE SMOOTH",
"45 22 OFFCURVE",
"128 -16 OFFCURVE"
);
}
);
width = 522;
}
);
unicode = 0035;
},
{
glyphname = six;
lastChange = "2017-09-02 22:18:06 +0000";
layers = (
{
layerId = "95F0E3FF-6822-4CFD-805E-5B95C02D9EC6";
paths = (
{
closed = 1;
nodes = (
"483 534 CURVE",
"483 593 OFFCURVE",
"424 623 OFFCURVE",
"318 623 CURVE SMOOTH",
"151 623 OFFCURVE",
"35 510 OFFCURVE",
"35 288 CURVE SMOOTH",
"35 94 OFFCURVE",
"131 -16 OFFCURVE",
"288 -16 CURVE SMOOTH",
"445 -16 OFFCURVE",
"526 84 OFFCURVE",
"526 199 CURVE SMOOTH",
"526 330 OFFCURVE",
"447 404 OFFCURVE",
"325 404 CURVE SMOOTH",
"278 404 OFFCURVE",
"231 386 OFFCURVE",
"204 367 CURVE",
"218 445 OFFCURVE",
"261 489 OFFCURVE",
"340 489 CURVE SMOOTH",
"373 489 OFFCURVE",
"415 480 OFFCURVE",
"451 464 CURVE",
"468 477 OFFCURVE",
"483 506 OFFCURVE"
);
},
{
closed = 1;
nodes = (
"287 274 CURVE",
"331 274 OFFCURVE",
"355 245 OFFCURVE",
"355 198 CURVE SMOOTH",
"355 151 OFFCURVE",
"333 119 OFFCURVE",
"289 119 CURVE SMOOTH",
"246 119 OFFCURVE",
"212 148 OFFCURVE",
"212 219 CURVE",
"212 244 LINE",
"229 263 OFFCURVE",
"262 274 OFFCURVE"
);
}
);
width = 558;
}
);
unicode = 0036;
},
{
glyphname = seven;
lastChange = "2017-09-02 22:18:06 +0000";
layers = (
{
layerId = "95F0E3FF-6822-4CFD-805E-5B95C02D9EC6";
paths = (
{
closed = 1;
nodes = (
"80 608 LINE SMOOTH",
"45 608 OFFCURVE",
"20 588 OFFCURVE",
"20 538 CURVE SMOOTH",
"20 511 OFFCURVE",
"30 485 OFFCURVE",
"38 471 CURVE",
"283 471 LINE",
"137 172 LINE SMOOTH",
"115 127 OFFCURVE",
"100 96 OFFCURVE",
"100 68 CURVE SMOOTH",
"100 13 OFFCURVE",
"141 -8 OFFCURVE",
"201 -8 CURVE SMOOTH",
"216 -8 OFFCURVE",
"232 -8 OFFCURVE",
"251 -7 CURVE",
"459 464 LINE SMOOTH",
"468 485 OFFCURVE",
"472 508 OFFCURVE",
"472 529 CURVE SMOOTH",
"472 567 OFFCURVE",
"450 593 OFFCURVE",
"428 608 CURVE"
);
}
);
width = 482;
}
);
unicode = 0037;
},
{
glyphname = eight;
lastChange = "2017-09-02 22:18:06 +0000";
layers = (
{
layerId = "95F0E3FF-6822-4CFD-805E-5B95C02D9EC6";
paths = (
{
closed = 1;
nodes = (
"50 444 CURVE",
"50 375 OFFCURVE",
"79 338 OFFCURVE",
"115 309 CURVE",
"72 283 OFFCURVE",
"36 235 OFFCURVE",
"36 163 CURVE SMOOTH",
"36 57 OFFCURVE",
"132 -17 OFFCURVE",
"280 -17 CURVE SMOOTH",
"429 -17 OFFCURVE",
"524 57 OFFCURVE",
"524 163 CURVE SMOOTH",
"524 242 OFFCURVE",
"489 286 OFFCURVE",
"438 320 CURVE",
"481 349 OFFCURVE",
"506 394 OFFCURVE",
"506 452 CURVE SMOOTH",
"506 559 OFFCURVE",
"412 624 OFFCURVE",
"278 624 CURVE SMOOTH",
"144 624 OFFCURVE",
"50 551 OFFCURVE"
);
},
{
closed = 1;
nodes = (
"207 178 CURVE",
"207 215 OFFCURVE",
"230 244 OFFCURVE",
"288 257 CURVE",
"328 243 OFFCURVE",
"353 217 OFFCURVE",
"353 178 CURVE SMOOTH",
"353 138 OFFCURVE",
"322 111 OFFCURVE",
"280 111 CURVE SMOOTH",
"237 111 OFFCURVE",
"207 137 OFFCURVE"
);
},
{
closed = 1;
nodes = (
"339 438 CURVE",
"339 407 OFFCURVE",
"319 381 OFFCURVE",
"272 371 CURVE",
"243 384 OFFCURVE",
"217 405 OFFCURVE",
"217 439 CURVE SMOOTH",
"217 474 OFFCURVE",
"240 497 OFFCURVE",
"278 497 CURVE SMOOTH",
"316 497 OFFCURVE",
"339 474 OFFCURVE"
);
}
);
width = 560;
}
);
unicode = 0038;
},
{
glyphname = nine;
lastChange = "2017-09-02 22:18:06 +0000";
layers = (
{
layerId = "95F0E3FF-6822-4CFD-805E-5B95C02D9EC6";
paths = (
{
closed = 1;
nodes = (
"212 118 CURVE",
"179 118 OFFCURVE",
"137 127 OFFCURVE",
"101 143 CURVE",
"84 130 OFFCURVE",
"69 101 OFFCURVE",
"69 73 CURVE SMOOTH",
"69 14 OFFCURVE",
"133 -16 OFFCURVE",
"239 -16 CURVE SMOOTH",
"406 -16 OFFCURVE",
"523 97 OFFCURVE",
"523 319 CURVE SMOOTH",
"523 513 OFFCURVE",
"427 623 OFFCURVE",
"270 623 CURVE SMOOTH",
"113 623 OFFCURVE",
"32 523 OFFCURVE",
"32 409 CURVE SMOOTH",
"32 279 OFFCURVE",
"115 209 OFFCURVE",
"237 209 CURVE SMOOTH",
"298 209 OFFCURVE",
"338 230 OFFCURVE",
"353 242 CURVE",
"353 165 OFFCURVE",
"297 118 OFFCURVE"
);
},
{
closed = 1;
nodes = (
"276 337 CURVE",
"232 337 OFFCURVE",
"201 367 OFFCURVE",
"201 412 CURVE SMOOTH",
"201 458 OFFCURVE",
"227 488 OFFCURVE",
"271 488 CURVE SMOOTH",
"320 488 OFFCURVE",
"346 454 OFFCURVE",
"347 379 CURVE",
"347 367 LINE",
"330 348 OFFCURVE",
"301 337 OFFCURVE"
);
}
);
width = 558;
}
);
unicode = 0039;
},
{
glyphname = colon;
lastChange = "2017-09-02 22:18:06 +0000";
layers = (
{
layerId = "95F0E3FF-6822-4CFD-805E-5B95C02D9EC6";
paths = (
{
closed = 1;
nodes = (
"32 395 CURVE",
"32 340 OFFCURVE",
"70 297 OFFCURVE",
"129 297 CURVE SMOOTH",
"188 297 OFFCURVE",
"226 340 OFFCURVE",
"226 395 CURVE SMOOTH",
"226 450 OFFCURVE",
"188 493 OFFCURVE",
"129 493 CURVE SMOOTH",
"70 493 OFFCURVE",
"32 450 OFFCURVE"
);
},
{
closed = 1;
nodes = (
"32 81 CURVE",
"32 26 OFFCURVE",
"70 -17 OFFCURVE",
"129 -17 CURVE SMOOTH",
"188 -17 OFFCURVE",
"226 26 OFFCURVE",
"226 81 CURVE SMOOTH",
"226 136 OFFCURVE",
"188 179 OFFCURVE",
"129 179 CURVE SMOOTH",
"70 179 OFFCURVE",
"32 136 OFFCURVE"
);
}
);
width = 258;
}
);
leftKerningGroup = colon;
rightKerningGroup = colon;
unicode = 003A;
},
{
glyphname = semicolon;
lastChange = "2017-09-02 22:18:06 +0000";
layers = (
{
layerId = "95F0E3FF-6822-4CFD-805E-5B95C02D9EC6";
paths = (
{
closed = 1;
nodes = (
"162 -73 CURVE",
"196 -29 OFFCURVE",
"232 59 OFFCURVE",
"232 114 CURVE SMOOTH",
"232 162 OFFCURVE",
"195 178 OFFCURVE",
"154 178 CURVE SMOOTH",
"122 178 OFFCURVE",
"88 168 OFFCURVE",
"65 156 CURVE",
"52 86 OFFCURVE",
"32 -8 OFFCURVE",
"3 -90 CURVE",
"24 -107 OFFCURVE",
"49 -115 OFFCURVE",
"78 -115 CURVE SMOOTH",
"115 -115 OFFCURVE",
"140 -102 OFFCURVE"
);
},
{
closed = 1;
nodes = (
"38 395 CURVE",
"38 340 OFFCURVE",
"76 297 OFFCURVE",
"135 297 CURVE SMOOTH",
"194 297 OFFCURVE",
"232 340 OFFCURVE",
"232 395 CURVE SMOOTH",
"232 450 OFFCURVE",
"194 493 OFFCURVE",
"135 493 CURVE SMOOTH",
"76 493 OFFCURVE",
"38 450 OFFCURVE"
);
}
);
width = 266;
}
);
leftKerningGroup = colon;
rightKerningGroup = colon;
unicode = 003B;
},
{
glyphname = less;
lastChange = "2017-09-02 22:18:06 +0000";
layers = (
{
layerId = "95F0E3FF-6822-4CFD-805E-5B95C02D9EC6";
paths = (
{
closed = 1;
nodes = (
"191 250 LINE",
"367 339 LINE SMOOTH",
"412 362 OFFCURVE",
"436 383 OFFCURVE",
"436 430 CURVE SMOOTH",
"436 465 OFFCURVE",
"417 497 OFFCURVE",
"352 514 CURVE",
"77 354 LINE SMOOTH",
"47 337 OFFCURVE",
"30 309 OFFCURVE",
"30 253 CURVE SMOOTH",
"30 217 OFFCURVE",
"39 185 OFFCURVE",
"56 163 CURVE",
"271 39 LINE SMOOTH",
"311 16 OFFCURVE",
"335 4 OFFCURVE",
"363 4 CURVE SMOOTH",
"421 4 OFFCURVE",
"440 46 OFFCURVE",
"440 93 CURVE SMOOTH",
"440 102 OFFCURVE",
"439 114 OFFCURVE",
"437 122 CURVE"
);
}
);
width = 471;
}
);
leftKerningGroup = less;
unicode = 003C;
},
{
glyphname = equal;
lastChange = "2017-09-02 22:18:06 +0000";
layers = (
{
layerId = "95F0E3FF-6822-4CFD-805E-5B95C02D9EC6";
paths = (
{
closed = 1;
nodes = (
"399 328 LINE",
"434 328 OFFCURVE",
"457 349 OFFCURVE",
"457 396 CURVE SMOOTH",
"457 421 OFFCURVE",
"448 446 OFFCURVE",
"441 462 CURVE",
"91 462 LINE SMOOTH",
"55 462 OFFCURVE",
"32 441 OFFCURVE",
"32 393 CURVE SMOOTH",
"32 369 OFFCURVE",
"39 343 OFFCURVE",
"48 328 CURVE"
);
},
{
closed = 1;
nodes = (
"399 129 LINE",
"434 129 OFFCURVE",
"457 150 OFFCURVE",
"457 197 CURVE SMOOTH",
"457 222 OFFCURVE",
"448 247 OFFCURVE",
"441 263 CURVE",
"91 263 LINE SMOOTH",
"55 263 OFFCURVE",
"32 242 OFFCURVE",
"32 194 CURVE SMOOTH",
"32 170 OFFCURVE",
"39 144 OFFCURVE",
"48 129 CURVE"
);
}
);
width = 489;
}
);
leftKerningGroup = hyphen;
rightKerningGroup = hyphen;
unicode = 003D;
},
{
glyphname = greater;
lastChange = "2017-09-02 22:18:06 +0000";
layers = (
{
layerId = "95F0E3FF-6822-4CFD-805E-5B95C02D9EC6";
paths = (
{
closed = 1;
nodes = (
"280 268 LINE",
"104 179 LINE SMOOTH",
"59 156 OFFCURVE",
"35 135 OFFCURVE",
"35 88 CURVE SMOOTH",
"35 53 OFFCURVE",
"54 21 OFFCURVE",
"119 4 CURVE",
"394 164 LINE SMOOTH",
"424 181 OFFCURVE",
"441 209 OFFCURVE",
"441 265 CURVE SMOOTH",
"441 301 OFFCURVE",
"432 333 OFFCURVE",
"415 355 CURVE",
"200 479 LINE",
"160 502 OFFCURVE",
"136 514 OFFCURVE",
"108 514 CURVE SMOOTH",
"50 514 OFFCURVE",
"31 472 OFFCURVE",
"31 425 CURVE SMOOTH",
"31 416 OFFCURVE",
"32 404 OFFCURVE",
"34 396 CURVE"
);
}
);
width = 471;
}
);
leftKerningGroup = greater;
rightKerningGroup = greater;
unicode = 003E;
},
{
glyphname = question;
lastChange = "2017-09-02 22:18:06 +0000";
layers = (
{
layerId = "95F0E3FF-6822-4CFD-805E-5B95C02D9EC6";
paths = (
{
closed = 1;
nodes = (
"103 77 CURVE",
"103 23 OFFCURVE",
"140 -17 OFFCURVE",
"199 -17 CURVE SMOOTH",
"258 -17 OFFCURVE",
"295 23 OFFCURVE",
"295 77 CURVE SMOOTH",
"295 131 OFFCURVE",
"258 171 OFFCURVE",
"199 171 CURVE",
"140 171 OFFCURVE",
"103 131 OFFCURVE"
);
},
{
closed = 1;
nodes = (
"237 228 LINE",
"387 258 OFFCURVE",
"463 327 OFFCURVE",
"463 433 CURVE SMOOTH",
"463 546 OFFCURVE",
"381 623 OFFCURVE",
"224 623 CURVE SMOOTH",
"108 623 OFFCURVE",
"24 591 OFFCURVE",
"24 521 CURVE SMOOTH",
"24 487 OFFCURVE",
"43 462 OFFCURVE",
"65 445 CURVE",
"94 464 OFFCURVE",
"146 480 OFFCURVE",
"200 480 CURVE SMOOTH",
"260 480 OFFCURVE",
"282 458 OFFCURVE",
"282 433 CURVE SMOOTH",
"282 408 OFFCURVE",
"267 394 OFFCURVE",
"232 385 CURVE SMOOTH",
"154 366 LINE SMOOTH",
"111 355 OFFCURVE",
"89 337 OFFCURVE",
"89 296 CURVE",
"89 254 OFFCURVE",
"113 220 OFFCURVE",
"136 208 CURVE"
);
}
);
width = 498;
}
);
unicode = 003F;
},
{
glyphname = at;
lastChange = "2017-09-02 22:18:06 +0000";
layers = (
{
layerId = "95F0E3FF-6822-4CFD-805E-5B95C02D9EC6";
paths = (
{
closed = 1;
nodes = (
"514 0 CURVE",
"569 0 OFFCURVE",
"612 14 OFFCURVE",
"640 30 CURVE",
"679 6 OFFCURVE",
"732 -5 OFFCURVE",
"772 -5 CURVE SMOOTH",
"935 -5 OFFCURVE",
"1029 98 OFFCURVE",
"1029 276 CURVE SMOOTH",
"1029 512 OFFCURVE",
"836 663 OFFCURVE",
"561 663 CURVE SMOOTH",
"273 663 OFFCURVE",
"49 488 OFFCURVE",
"49 204 CURVE SMOOTH",
"49 -105 OFFCURVE",
"292 -227 OFFCURVE",
"497 -227 CURVE SMOOTH",
"618 -227 OFFCURVE",
"651 -195 OFFCURVE",
"651 -140 CURVE SMOOTH",
"651 -122 OFFCURVE",
"642 -98 OFFCURVE",
"633 -83 CURVE",
"604 -87 OFFCURVE",
"568 -94 OFFCURVE",
"509 -94 CURVE SMOOTH",
"337 -94 OFFCURVE",
"210 20 OFFCURVE",
"210 204 CURVE SMOOTH",
"210 394 OFFCURVE",
"353 535 OFFCURVE",
"562 535 CURVE SMOOTH",
"741 535 OFFCURVE",
"869 430 OFFCURVE",
"869 277 CURVE SMOOTH",
"869 187 OFFCURVE",
"832 124 OFFCURVE",
"772 124 CURVE SMOOTH",
"765 124 OFFCURVE",
"752 126 OFFCURVE",
"747 128 CURVE",
"768 308 LINE SMOOTH",
"769 314 OFFCURVE",
"769 324 OFFCURVE",
"769 328 CURVE SMOOTH",
"769 354 OFFCURVE",
"755 378 OFFCURVE",
"730 395 CURVE SMOOTH",
"687 425 OFFCURVE",
"627 442 OFFCURVE",
"564 442 CURVE SMOOTH",
"426 442 OFFCURVE",
"312 356 OFFCURVE",
"312 197 CURVE SMOOTH",
"312 68 OFFCURVE",
"400 0 OFFCURVE"
);
},
{
closed = 1;
nodes = (
"594 143 LINE",
"581 135 OFFCURVE",
"568 128 OFFCURVE",
"544 128 CURVE SMOOTH",
"502 128 OFFCURVE",
"480 154 OFFCURVE",
"480 198 CURVE SMOOTH",
"480 275 OFFCURVE",
"521 309 OFFCURVE",
"563 309 CURVE SMOOTH",
"587 309 OFFCURVE",
"601 304 OFFCURVE",
"609 299 CURVE"
);
}
);
width = 1069;
}
);
unicode = 0040;
},
{
glyphname = A;
lastChange = "2017-09-02 22:18:06 +0000";
layers = (
{
layerId = "95F0E3FF-6822-4CFD-805E-5B95C02D9EC6";
paths = (
{
closed = 1;
nodes = (
"194 588 CURVE",
"166 517 OFFCURVE",
"64 224 OFFCURVE",
"36 117 CURVE SMOOTH",
"29 92 OFFCURVE",
"23 75 OFFCURVE",
"23 56 CURVE SMOOTH",
"23 15 OFFCURVE",
"56 -10 OFFCURVE",
"123 -10 CURVE SMOOTH",
"152 -10 OFFCURVE",
"172 -4 OFFCURVE",
"190 2 CURVE",
"200 42 OFFCURVE",
"211 86 OFFCURVE",
"222 126 CURVE",
"403 126 LINE",
"421 57 LINE SMOOTH",
"434 11 OFFCURVE",
"452 -10 OFFCURVE",
"517 -10 CURVE SMOOTH",
"561 -10 OFFCURVE",
"594 3 OFFCURVE",
"610 21 CURVE",
"569 169 OFFCURVE",
"500 418 OFFCURVE",
"453 556 CURVE SMOOTH",
"439 597 OFFCURVE",
"381 616 OFFCURVE",
"315 616 CURVE SMOOTH",
"269 616 OFFCURVE",
"216 601 OFFCURVE"
);
},
{
closed = 1;
nodes = (
"320 459 LINE",
"336 405 OFFCURVE",
"356 333 OFFCURVE",
"375 261 CURVE",
"251 261 LINE",
"270 331 OFFCURVE",
"296 403 OFFCURVE",
"314 459 CURVE"
);
}
);
width = 627;
}
);
leftKerningGroup = A;
rightKerningGroup = A;
unicode = 0041;
},
{
glyphname = B;
lastChange = "2017-09-02 22:18:06 +0000";
layers = (
{
layerId = "95F0E3FF-6822-4CFD-805E-5B95C02D9EC6";
paths = (
{
closed = 1;
nodes = (
"235 247 LINE",
"317 247 LINE SMOOTH",
"376 247 OFFCURVE",
"406 230 OFFCURVE",
"406 186 CURVE SMOOTH",
"406 139 OFFCURVE",
"366 118 OFFCURVE",
"313 118 CURVE SMOOTH",
"287 118 OFFCURVE",
"253 120 OFFCURVE",
"235 125 CURVE"
);
},
{
closed = 1;
nodes = (
"235 487 LINE",
"249 489 OFFCURVE",
"280 491 OFFCURVE",
"300 491 CURVE SMOOTH",
"360 491 OFFCURVE",
"390 468 OFFCURVE",
"390 432 CURVE SMOOTH",
"390 391 OFFCURVE",
"365 369 OFFCURVE",
"308 369 CURVE SMOOTH",
"235 369 LINE"
);
},
{
closed = 1;
nodes = (
"300 -16 CURVE",
"483 -16 OFFCURVE",
"585 47 OFFCURVE",
"585 178 CURVE SMOOTH",
"585 252 OFFCURVE",
"534 304 OFFCURVE",
"468 322 CURVE",
"526 342 OFFCURVE",
"564 387 OFFCURVE",
"564 447 CURVE SMOOTH",
"564 566 OFFCURVE",
"467 623 OFFCURVE",
"298 623 CURVE SMOOTH",
"227 623 OFFCURVE",
"153 616 OFFCURVE",
"108 600 CURVE SMOOTH",
"82 591 OFFCURVE",
"65 577 OFFCURVE",
"65 549 CURVE SMOOTH",
"65 82 LINE SMOOTH",
"65 46 OFFCURVE",
"84 23 OFFCURVE",
"120 9 CURVE SMOOTH",
"173 -11 OFFCURVE",
"254 -16 OFFCURVE"
);
}
);
width = 619;
}
);
unicode = 0042;
},
{
glyphname = C;
lastChange = "2017-09-02 22:18:06 +0000";
layers = (
{
layerId = "95F0E3FF-6822-4CFD-805E-5B95C02D9EC6";
paths = (
{
closed = 1;
nodes = (
"374 484 CURVE SMOOTH",
"426 484 OFFCURVE",
"464 465 OFFCURVE",
"498 443 CURVE",
"520 458 OFFCURVE",
"541 484 OFFCURVE",
"541 518 CURVE SMOOTH",
"541 580 OFFCURVE",
"470 625 OFFCURVE",
"348 625 CURVE SMOOTH",
"175 625 OFFCURVE",
"35 511 OFFCURVE",
"35 304 CURVE SMOOTH",
"35 81 OFFCURVE",
"181 -18 OFFCURVE",
"359 -18 CURVE SMOOTH",
"483 -18 OFFCURVE",
"543 26 OFFCURVE",
"543 80 CURVE SMOOTH",
"543 114 OFFCURVE",
"529 141 OFFCURVE",
"507 159 CURVE",
"472 140 OFFCURVE",
"437 123 OFFCURVE",
"383 123 CURVE SMOOTH",
"281 123 OFFCURVE",
"215 189 OFFCURVE",
"215 304 CURVE SMOOTH",
"215 418 OFFCURVE",
"272 484 OFFCURVE"
);
}
);
width = 571;
}
);
leftKerningGroup = O;
rightKerningGroup = C;
unicode = 0043;
},
{
glyphname = D;
lastChange = "2017-09-02 22:18:06 +0000";
layers = (
{
layerId = "95F0E3FF-6822-4CFD-805E-5B95C02D9EC6";
paths = (
{
closed = 1;
nodes = (
"239 478 LINE",
"259 481 OFFCURVE",
"278 482 OFFCURVE",
"297 482 CURVE SMOOTH",
"390 482 OFFCURVE",
"451 420 OFFCURVE",
"451 301 CURVE SMOOTH",
"451 176 OFFCURVE",
"387 125 OFFCURVE",
"296 125 CURVE SMOOTH",
"278 125 OFFCURVE",
"253 127 OFFCURVE",
"239 130 CURVE"
);
},
{
closed = 1;
nodes = (
"295 -16 CURVE",
"496 -16 OFFCURVE",
"631 92 OFFCURVE",
"631 304 CURVE SMOOTH",
"631 522 OFFCURVE",
"492 623 OFFCURVE",
"285 623 CURVE SMOOTH",
"234 623 OFFCURVE",
"165 619 OFFCURVE",
"108 600 CURVE SMOOTH",
"82 591 OFFCURVE",
"65 577 OFFCURVE",
"65 549 CURVE SMOOTH",
"65 82 LINE SMOOTH",
"65 46 OFFCURVE",
"84 23 OFFCURVE",
"120 9 CURVE SMOOTH",
"173 -11 OFFCURVE",
"249 -16 OFFCURVE"
);
}
);
width = 666;
}
);
rightKerningGroup = O;
unicode = 0044;
},
{
glyphname = E;
lastChange = "2017-09-02 22:18:06 +0000";
layers = (
{
layerId = "95F0E3FF-6822-4CFD-805E-5B95C02D9EC6";
paths = (
{
closed = 1;
nodes = (
"65 90 LINE SMOOTH",
"65 33 OFFCURVE",
"101 -3 OFFCURVE",
"158 -3 CURVE SMOOTH",
"450 -3 LINE SMOOTH",
"486 -3 OFFCURVE",
"510 17 OFFCURVE",
"510 68 CURVE SMOOTH",
"510 95 OFFCURVE",
"501 120 OFFCURVE",
"492 135 CURVE",
"235 135 LINE",
"235 240 LINE",
"419 240 LINE SMOOTH",
"455 240 OFFCURVE",
"478 260 OFFCURVE",
"478 310 CURVE SMOOTH",
"478 337 OFFCURVE",
"469 361 OFFCURVE",
"460 376 CURVE",
"235 376 LINE",
"235 469 LINE",
"446 469 LINE SMOOTH",
"482 469 OFFCURVE",
"506 489 OFFCURVE",
"506 539 CURVE SMOOTH",
"506 566 OFFCURVE",
"497 591 OFFCURVE",
"488 606 CURVE",
"158 606 LINE SMOOTH",
"101 606 OFFCURVE",
"65 570 OFFCURVE",
"65 513 CURVE SMOOTH"
);
}
);
width = 548;
}
);
rightKerningGroup = E;
unicode = 0045;
},
{
glyphname = F;
lastChange = "2017-09-02 22:18:06 +0000";
layers = (
{
layerId = "95F0E3FF-6822-4CFD-805E-5B95C02D9EC6";
paths = (
{
closed = 1;
nodes = (
"158 606 LINE SMOOTH",
"101 606 OFFCURVE",
"65 570 OFFCURVE",
"65 513 CURVE SMOOTH",
"65 78 LINE SMOOTH",
"65 9 OFFCURVE",
"97 -5 OFFCURVE",
"159 -5 CURVE SMOOTH",
"189 -5 OFFCURVE",
"226 0 OFFCURVE",
"240 4 CURVE",
"240 215 LINE",
"415 215 LINE SMOOTH",
"452 215 OFFCURVE",
"476 235 OFFCURVE",
"476 286 CURVE SMOOTH",
"476 313 OFFCURVE",
"467 338 OFFCURVE",
"457 353 CURVE",
"238 353 LINE",
"238 466 LINE",
"448 466 LINE SMOOTH",
"485 466 OFFCURVE",
"509 486 OFFCURVE",
"509 538 CURVE SMOOTH",
"509 565 OFFCURVE",
"500 591 OFFCURVE",
"491 606 CURVE"
);
}
);
width = 531;
}
);
unicode = 0046;
},
{
glyphname = G;
lastChange = "2017-09-02 22:18:06 +0000";
layers = (
{
layerId = "95F0E3FF-6822-4CFD-805E-5B95C02D9EC6";
paths = (
{
closed = 1;
nodes = (
"614 303 LINE SMOOTH",
"614 343 OFFCURVE",
"591 366 OFFCURVE",
"551 366 CURVE SMOOTH",
"382 366 LINE SMOOTH",
"347 366 OFFCURVE",
"323 346 OFFCURVE",
"323 298 CURVE SMOOTH",
"323 271 OFFCURVE",
"332 246 OFFCURVE",
"340 231 CURVE",
"447 231 LINE",
"447 137 LINE",
"435 131 OFFCURVE",
"411 124 OFFCURVE",
"382 124 CURVE SMOOTH",
"292 124 OFFCURVE",
"215 178 OFFCURVE",
"215 301 CURVE SMOOTH",
"215 414 OFFCURVE",
"287 482 OFFCURVE",
"398 482 CURVE SMOOTH",
"460 482 OFFCURVE",
"512 458 OFFCURVE",
"545 438 CURVE",
"567 453 OFFCURVE",
"588 479 OFFCURVE",
"588 513 CURVE SMOOTH",
"588 578 OFFCURVE",
"508 623 OFFCURVE",
"382 623 CURVE SMOOTH",
"205 623 OFFCURVE",
"35 517 OFFCURVE",
"35 298 CURVE SMOOTH",
"35 89 OFFCURVE",
"188 -16 OFFCURVE",
"380 -16 CURVE SMOOTH",
"451 -16 OFFCURVE",
"531 2 OFFCURVE",
"568 24 CURVE SMOOTH",
"600 43 OFFCURVE",
"614 58 OFFCURVE",
"614 99 CURVE SMOOTH"
);
}
);
width = 664;
}
);
leftKerningGroup = O;
rightKerningGroup = G;
unicode = 0047;
},
{
glyphname = H;
lastChange = "2017-09-02 22:18:06 +0000";
layers = (
{
layerId = "95F0E3FF-6822-4CFD-805E-5B95C02D9EC6";
paths = (
{
closed = 1;
nodes = (
"607 532 LINE SMOOTH",
"607 601 OFFCURVE",
"574 615 OFFCURVE",
"513 615 CURVE SMOOTH",
"484 615 OFFCURVE",
"446 609 OFFCURVE",
"432 606 CURVE",
"432 372 LINE",
"240 372 LINE",
"240 532 LINE SMOOTH",
"240 601 OFFCURVE",
"207 615 OFFCURVE",
"146 615 CURVE SMOOTH",
"117 615 OFFCURVE",
"79 609 OFFCURVE",
"65 606 CURVE",
"65 78 LINE SMOOTH",
"65 9 OFFCURVE",
"97 -5 OFFCURVE",
"159 -5 CURVE SMOOTH",
"189 -5 OFFCURVE",
"226 0 OFFCURVE",
"240 4 CURVE",
"240 234 LINE",
"432 234 LINE",
"432 78 LINE SMOOTH",
"432 9 OFFCURVE",
"464 -5 OFFCURVE",
"526 -5 CURVE SMOOTH",
"556 -5 OFFCURVE",
"593 0 OFFCURVE",
"607 4 CURVE"
);
}
);
width = 672;
}
);
unicode = 0048;
},
{
glyphname = I;
lastChange = "2017-09-02 22:18:06 +0000";
layers = (
{
layerId = "95F0E3FF-6822-4CFD-805E-5B95C02D9EC6";
paths = (
{
closed = 1;
nodes = (
"240 532 LINE SMOOTH",
"240 601 OFFCURVE",
"207 615 OFFCURVE",
"146 615 CURVE SMOOTH",
"117 615 OFFCURVE",
"79 609 OFFCURVE",
"65 606 CURVE",
"65 78 LINE SMOOTH",
"65 9 OFFCURVE",
"97 -5 OFFCURVE",
"159 -5 CURVE SMOOTH",
"189 -5 OFFCURVE",
"226 0 OFFCURVE",
"240 4 CURVE"
);
}
);
width = 305;
}
);
unicode = 0049;
},
{
glyphname = J;
lastChange = "2017-09-02 22:18:06 +0000";
layers = (
{
layerId = "95F0E3FF-6822-4CFD-805E-5B95C02D9EC6";
paths = (
{
closed = 1;
nodes = (
"175 202 LINE SMOOTH",
"175 151 OFFCURVE",
"154 125 OFFCURVE",
"102 125 CURVE SMOOTH",
"81 125 OFFCURVE",
"65 127 OFFCURVE",
"40 132 CURVE",
"30 120 OFFCURVE",
"21 99 OFFCURVE",
"21 73 CURVE SMOOTH",
"21 41 OFFCURVE",
"35 15 OFFCURVE",
"65 0 CURVE SMOOTH",
"85 -10 OFFCURVE",
"113 -16 OFFCURVE",
"149 -16 CURVE SMOOTH",
"280 -16 OFFCURVE",
"350 44 OFFCURVE",
"350 162 CURVE SMOOTH",
"350 532 LINE SMOOTH",
"350 601 OFFCURVE",
"317 615 OFFCURVE",
"256 615 CURVE SMOOTH",
"227 615 OFFCURVE",
"189 609 OFFCURVE",
"175 606 CURVE"
);
}
);
width = 412;
}
);
leftKerningGroup = J;
unicode = 004A;
},
{
glyphname = K;
lastChange = "2017-09-02 22:18:06 +0000";
layers = (
{
layerId = "95F0E3FF-6822-4CFD-805E-5B95C02D9EC6";
paths = (
{
closed = 1;
nodes = (
"382 61 LINE SMOOTH",
"414 24 OFFCURVE",
"444 -8 OFFCURVE",
"499 -8 CURVE SMOOTH",
"549 -8 OFFCURVE",
"595 26 OFFCURVE",
"595 84 CURVE",
"546 136 OFFCURVE",
"461 226 OFFCURVE",
"395 300 CURVE",
"520 425 LINE SMOOTH",
"559 464 OFFCURVE",
"575 491 OFFCURVE",
"575 526 CURVE SMOOTH",
"575 573 OFFCURVE",
"539 612 OFFCURVE",
"448 612 CURVE",
"240 373 LINE",
"240 532 LINE SMOOTH",
"240 601 OFFCURVE",
"207 615 OFFCURVE",
"146 615 CURVE SMOOTH",
"117 615 OFFCURVE",
"79 609 OFFCURVE",
"65 606 CURVE",
"65 78 LINE SMOOTH",
"65 9 OFFCURVE",
"97 -5 OFFCURVE",
"159 -5 CURVE SMOOTH",
"189 -5 OFFCURVE",
"226 0 OFFCURVE",
"241 4 CURVE",
"241 225 LINE"
);
}
);
width = 615;
}
);
rightKerningGroup = K;
unicode = 004B;
},
{
glyphname = L;
lastChange = "2017-09-02 22:18:06 +0000";
layers = (
{
layerId = "95F0E3FF-6822-4CFD-805E-5B95C02D9EC6";
paths = (
{
closed = 1;
nodes = (
"426 -3 LINE SMOOTH",
"463 -3 OFFCURVE",
"488 17 OFFCURVE",
"488 70 CURVE SMOOTH",
"488 97 OFFCURVE",
"478 123 OFFCURVE",
"469 138 CURVE",
"240 138 LINE",
"240 533 LINE SMOOTH",
"240 602 OFFCURVE",
"207 616 OFFCURVE",
"146 616 CURVE SMOOTH",
"117 616 OFFCURVE",
"79 610 OFFCURVE",
"65 607 CURVE",
"65 90 LINE SMOOTH",
"65 33 OFFCURVE",
"101 -3 OFFCURVE",
"158 -3 CURVE SMOOTH"
);
}
);
width = 513;
}
);
rightKerningGroup = L;
unicode = 004C;
},
{
glyphname = M;
lastChange = "2017-09-02 22:18:06 +0000";
layers = (
{
layerId = "95F0E3FF-6822-4CFD-805E-5B95C02D9EC6";
paths = (
{
closed = 1;
nodes = (
"484 149 CURVE",
"520 272 OFFCURVE",
"546 346 OFFCURVE",
"559 398 CURVE",
"564 398 LINE",
"568 320 OFFCURVE",
"568 201 OFFCURVE",
"576 56 CURVE SMOOTH",
"579 5 OFFCURVE",
"618 -8 OFFCURVE",
"668 -8 CURVE SMOOTH",
"707 -8 OFFCURVE",
"728 -2 OFFCURVE",
"751 11 CURVE",
"746 109 OFFCURVE",
"717 473 OFFCURVE",
"702 554 CURVE SMOOTH",
"695 590 OFFCURVE",
"651 610 OFFCURVE",
"586 610 CURVE SMOOTH",
"548 610 OFFCURVE",
"515 601 OFFCURVE",
"495 591 CURVE",
"469 521 OFFCURVE",
"435 408 OFFCURVE",
"403 297 CURVE",
"398 297 LINE",
"376 367 OFFCURVE",
"343 476 OFFCURVE",
"319 540 CURVE SMOOTH",
"301 589 OFFCURVE",
"262 610 OFFCURVE",
"192 610 CURVE SMOOTH",
"127 610 OFFCURVE",
"92 584 OFFCURVE",
"81 567 CURVE",
"52 57 LINE",
"52 8 OFFCURVE",
"87 -8 OFFCURVE",
"145 -8 CURVE SMOOTH",
"173 -8 OFFCURVE",
"204 -2 OFFCURVE",
"221 4 CURVE",
"229 155 OFFCURVE",
"226 246 OFFCURVE",
"234 403 CURVE",
"239 403 LINE",
"252 348 OFFCURVE",
"276 283 OFFCURVE",
"313 165 CURVE SMOOTH",
"322 136 OFFCURVE",
"355 125 OFFCURVE",
"403 125 CURVE SMOOTH",
"439 125 OFFCURVE",
"467 135 OFFCURVE"
);
}
);
width = 797;
}
);
leftKerningGroup = M;
rightKerningGroup = M;
unicode = 004D;
},
{
glyphname = N;
lastChange = "2017-09-02 22:18:06 +0000";
layers = (
{
layerId = "95F0E3FF-6822-4CFD-805E-5B95C02D9EC6";
paths = (
{
closed = 1;
nodes = (
"614 535 LINE SMOOTH",
"614 601 OFFCURVE",
"583 615 OFFCURVE",
"524 615 CURVE SMOOTH",
"495 615 OFFCURVE",
"460 610 OFFCURVE",
"446 606 CURVE",
"446 444 LINE SMOOTH",
"446 372 OFFCURVE",
"447 300 OFFCURVE",
"452 228 CURVE",
"447 227 LINE",
"428 275 OFFCURVE",
"414 308 OFFCURVE",
"394 349 CURVE SMOOTH",
"294 551 LINE SMOOTH",
"267 606 OFFCURVE",
"219 615 OFFCURVE",
"170 615 CURVE SMOOTH",
"126 615 OFFCURVE",
"83 601 OFFCURVE",
"65 575 CURVE",
"65 75 LINE SMOOTH",
"65 9 OFFCURVE",
"96 -5 OFFCURVE",
"155 -5 CURVE SMOOTH",
"184 -5 OFFCURVE",
"219 0 OFFCURVE",
"233 4 CURVE",
"233 159 LINE SMOOTH",
"233 230 OFFCURVE",
"233 307 OFFCURVE",
"228 379 CURVE",
"234 380 LINE",
"253 332 OFFCURVE",
"267 299 OFFCURVE",
"287 258 CURVE SMOOTH",
"386 56 LINE SMOOTH",
"414 0 OFFCURVE",
"461 -8 OFFCURVE",
"510 -8 CURVE SMOOTH",
"559 -8 OFFCURVE",
"595 3 OFFCURVE",
"614 21 CURVE"
);
}
);
width = 679;
}
);
unicode = 004E;
},
{
glyphname = O;
lastChange = "2017-09-02 22:18:06 +0000";
layers = (
{
layerId = "95F0E3FF-6822-4CFD-805E-5B95C02D9EC6";
paths = (
{
closed = 1;
nodes = (
"35 304 CURVE",
"35 99 OFFCURVE",
"169 -18 OFFCURVE",
"351 -18 CURVE SMOOTH",
"533 -18 OFFCURVE",
"668 95 OFFCURVE",
"668 304 CURVE SMOOTH",
"668 512 OFFCURVE",
"529 625 OFFCURVE",
"351 625 CURVE SMOOTH",
"173 625 OFFCURVE",
"35 512 OFFCURVE"
);
},
{
closed = 1;
nodes = (
"215 304 CURVE",
"215 424 OFFCURVE",
"270 484 OFFCURVE",
"352 484 CURVE SMOOTH",
"435 484 OFFCURVE",
"488 423 OFFCURVE",
"488 304 CURVE SMOOTH",
"488 183 OFFCURVE",
"434 123 OFFCURVE",
"351 123 CURVE SMOOTH",
"269 123 OFFCURVE",
"215 183 OFFCURVE"
);
}
);
width = 703;
}
);
leftKerningGroup = O;
rightKerningGroup = O;
unicode = 004F;
},
{
glyphname = P;
lastChange = "2017-09-02 22:18:06 +0000";
layers = (
{
layerId = "95F0E3FF-6822-4CFD-805E-5B95C02D9EC6";
paths = (
{
closed = 1;
nodes = (
"239 325 LINE",
"239 480 LINE",
"253 482 OFFCURVE",
"266 483 OFFCURVE",
"287 483 CURVE SMOOTH",
"347 483 OFFCURVE",
"379 454 OFFCURVE",
"379 404 CURVE SMOOTH",
"379 351 OFFCURVE",
"347 325 OFFCURVE",
"292 325 CURVE SMOOTH"
);
},
{
closed = 1;
nodes = (
"240 188 LINE",
"311 188 LINE SMOOTH",
"475 188 OFFCURVE",
"557 274 OFFCURVE",
"557 404 CURVE SMOOTH",
"557 538 OFFCURVE",
"456 623 OFFCURVE",
"273 623 CURVE SMOOTH",
"215 623 OFFCURVE",
"153 616 OFFCURVE",
"108 600 CURVE SMOOTH",
"82 591 OFFCURVE",
"65 577 OFFCURVE",
"65 549 CURVE SMOOTH",
"65 78 LINE SMOOTH",
"65 9 OFFCURVE",
"97 -5 OFFCURVE",
"159 -5 CURVE SMOOTH",
"189 -5 OFFCURVE",
"226 0 OFFCURVE",
"240 4 CURVE"
);
}
);
width = 581;
}
);
unicode = 0050;
},
{
glyphname = Q;
lastChange = "2017-09-02 22:18:06 +0000";
layers = (
{
layerId = "95F0E3FF-6822-4CFD-805E-5B95C02D9EC6";
paths = (
{
closed = 1;
nodes = (
"35 304 CURVE",
"35 99 OFFCURVE",
"169 -18 OFFCURVE",
"351 -18 CURVE SMOOTH",
"359 -18 LINE",
"403 -59 LINE SMOOTH",
"471 -123 OFFCURVE",
"537 -158 OFFCURVE",
"598 -158 CURVE SMOOTH",
"662 -158 OFFCURVE",
"705 -125 OFFCURVE",
"705 -49 CURVE SMOOTH",
"705 -44 OFFCURVE",
"705 -38 OFFCURVE",
"704 -30 CURVE",
"647 -13 OFFCURVE",
"574 11 OFFCURVE",
"534 30 CURVE",
"616 82 OFFCURVE",
"668 174 OFFCURVE",
"668 304 CURVE SMOOTH",
"668 512 OFFCURVE",
"529 625 OFFCURVE",
"351 625 CURVE SMOOTH",
"173 625 OFFCURVE",
"35 512 OFFCURVE"
);
},
{
closed = 1;
nodes = (
"215 304 CURVE",
"215 424 OFFCURVE",
"270 484 OFFCURVE",
"352 484 CURVE SMOOTH",
"435 484 OFFCURVE",
"488 423 OFFCURVE",
"488 304 CURVE SMOOTH",
"488 183 OFFCURVE",
"434 123 OFFCURVE",
"351 123 CURVE SMOOTH",
"269 123 OFFCURVE",
"215 183 OFFCURVE"
);
}
);
width = 705;
}
);
leftKerningGroup = O;
rightKerningGroup = O;
unicode = 0051;
},
{
glyphname = R;
lastChange = "2017-09-02 22:18:06 +0000";
layers = (
{
layerId = "95F0E3FF-6822-4CFD-805E-5B95C02D9EC6";
paths = (
{
closed = 1;
nodes = (
"292 196 LINE",
"376 61 LINE SMOOTH",
"401 20 OFFCURVE",
"425 -8 OFFCURVE",
"483 -8 CURVE SMOOTH",
"527 -8 OFFCURVE",
"566 18 OFFCURVE",
"579 64 CURVE",
"552 110 OFFCURVE",
"501 169 OFFCURVE",
"453 234 CURVE",
"512 266 OFFCURVE",
"561 325 OFFCURVE",
"561 408 CURVE SMOOTH",
"561 540 OFFCURVE",
"467 623 OFFCURVE",
"283 623 CURVE SMOOTH",
"215 623 OFFCURVE",
"153 616 OFFCURVE",
"108 600 CURVE SMOOTH",
"82 591 OFFCURVE",
"65 577 OFFCURVE",
"65 549 CURVE SMOOTH",
"65 78 LINE SMOOTH",
"65 9 OFFCURVE",
"97 -5 OFFCURVE",
"158 -5 CURVE SMOOTH",
"188 -5 OFFCURVE",
"225 0 OFFCURVE",
"239 4 CURVE",
"239 196 LINE"
);
},
{
closed = 1;
nodes = (
"238 329 LINE",
"238 479 LINE",
"252 481 OFFCURVE",
"262 483 OFFCURVE",
"282 483 CURVE SMOOTH",
"352 483 OFFCURVE",
"384 457 OFFCURVE",
"384 406 CURVE SMOOTH",
"384 355 OFFCURVE",
"352 329 OFFCURVE",
"302 329 CURVE SMOOTH"
);
}
);
width = 609;
}
);
rightKerningGroup = R;
unicode = 0052;
},
{
glyphname = S;
lastChange = "2017-09-02 22:18:06 +0000";
layers = (
{
layerId = "95F0E3FF-6822-4CFD-805E-5B95C02D9EC6";
paths = (
{
closed = 1;
nodes = (
"279 227 LINE SMOOTH",
"318 214 OFFCURVE",
"340 203 OFFCURVE",
"340 176 CURVE SMOOTH",
"340 149 OFFCURVE",
"316 126 OFFCURVE",
"251 126 CURVE SMOOTH",
"187 126 OFFCURVE",
"131 151 OFFCURVE",
"94 180 CURVE",
"67 165 OFFCURVE",
"40 138 OFFCURVE",
"40 99 CURVE SMOOTH",
"40 24 OFFCURVE",
"135 -16 OFFCURVE",
"257 -16 CURVE SMOOTH",
"429 -16 OFFCURVE",
"521 61 OFFCURVE",
"521 174 CURVE SMOOTH",
"521 281 OFFCURVE",
"452 337 OFFCURVE",
"326 377 CURVE SMOOTH",
"273 394 LINE SMOOTH",
"239 405 OFFCURVE",
"221 416 OFFCURVE",
"221 436 CURVE SMOOTH",
"221 461 OFFCURVE",
"248 480 OFFCURVE",
"308 480 CURVE SMOOTH",
"366 480 OFFCURVE",
"419 464 OFFCURVE",
"448 445 CURVE",
"470 462 OFFCURVE",
"489 487 OFFCURVE",
"489 521 CURVE SMOOTH",
"489 591 OFFCURVE",
"405 623 OFFCURVE",
"289 623 CURVE SMOOTH",
"132 623 OFFCURVE",
"40 549 OFFCURVE",
"40 436 CURVE SMOOTH",
"40 319 OFFCURVE",
"120 280 OFFCURVE",
"237 241 CURVE SMOOTH"
);
}
);
width = 551;
}
);
leftKerningGroup = S;
rightKerningGroup = S;
unicode = 0053;
},
{
glyphname = T;
lastChange = "2017-09-02 22:18:06 +0000";
layers = (
{
layerId = "95F0E3FF-6822-4CFD-805E-5B95C02D9EC6";
paths = (
{
closed = 1;
nodes = (
"187 466 LINE",
"187 78 LINE SMOOTH",
"187 9 OFFCURVE",
"219 -5 OFFCURVE",
"281 -5 CURVE SMOOTH",
"311 -5 OFFCURVE",
"348 0 OFFCURVE",
"362 4 CURVE",
"362 466 LINE",
"473 466 LINE SMOOTH",
"510 466 OFFCURVE",
"536 487 OFFCURVE",
"536 539 CURVE SMOOTH",
"536 567 OFFCURVE",
"526 594 OFFCURVE",
"517 609 CURVE",
"81 609 LINE SMOOTH",
"44 609 OFFCURVE",
"18 588 OFFCURVE",
"18 536 CURVE SMOOTH",
"18 508 OFFCURVE",
"28 481 OFFCURVE",
"37 466 CURVE"
);
}
);
width = 556;
}
);
leftKerningGroup = T;
rightKerningGroup = T;
unicode = 0054;
},
{
glyphname = U;
lastChange = "2017-09-02 22:18:06 +0000";
layers = (
{
layerId = "95F0E3FF-6822-4CFD-805E-5B95C02D9EC6";
paths = (
{
closed = 1;
nodes = (
"602 532 LINE SMOOTH",
"602 601 OFFCURVE",
"569 615 OFFCURVE",
"508 615 CURVE SMOOTH",
"479 615 OFFCURVE",
"441 609 OFFCURVE",
"427 606 CURVE",
"427 227 LINE SMOOTH",
"427 164 OFFCURVE",
"389 125 OFFCURVE",
"332 125 CURVE SMOOTH",
"276 125 OFFCURVE",
"237 164 OFFCURVE",
"237 227 CURVE SMOOTH",
"237 532 LINE SMOOTH",
"237 601 OFFCURVE",
"204 615 OFFCURVE",
"143 615 CURVE SMOOTH",
"114 615 OFFCURVE",
"76 609 OFFCURVE",
"62 606 CURVE",
"62 224 LINE SMOOTH",
"62 79 OFFCURVE",
"164 -16 OFFCURVE",
"332 -16 CURVE SMOOTH",
"500 -16 OFFCURVE",
"602 79 OFFCURVE",
"602 224 CURVE SMOOTH"
);
}
);
width = 664;
}
);
leftKerningGroup = U;
rightKerningGroup = U;
unicode = 0055;
},
{
glyphname = V;
lastChange = "2017-09-02 22:18:06 +0000";
layers = (
{
layerId = "95F0E3FF-6822-4CFD-805E-5B95C02D9EC6";
paths = (
{
closed = 1;
nodes = (
"428 20 CURVE",
"473 81 OFFCURVE",
"611 452 OFFCURVE",
"611 538 CURVE SMOOTH",
"611 589 OFFCURVE",
"571 609 OFFCURVE",
"522 609 CURVE SMOOTH",
"488 609 OFFCURVE",
"461 600 OFFCURVE",
"437 588 CURVE",
"402 442 OFFCURVE",
"363 286 OFFCURVE",
"327 162 CURVE",
"321 162 LINE",
"281 291 OFFCURVE",
"245 405 OFFCURVE",
"209 536 CURVE SMOOTH",
"194 591 OFFCURVE",
"163 609 OFFCURVE",
"114 609 CURVE SMOOTH",
"74 609 OFFCURVE",
"36 590 OFFCURVE",
"17 572 CURVE",
"60 397 OFFCURVE",
"161 130 OFFCURVE",
"207 37 CURVE SMOOTH",
"221 8 OFFCURVE",
"265 -10 OFFCURVE",
"320 -10 CURVE SMOOTH",
"366 -10 OFFCURVE",
"409 4 OFFCURVE"
);
}
);
width = 634;
}
);
unicode = 0056;
},
{
glyphname = W;
lastChange = "2017-09-02 22:18:06 +0000";
layers = (
{
layerId = "95F0E3FF-6822-4CFD-805E-5B95C02D9EC6";
paths = (
{
closed = 1;
nodes = (
"345 458 CURVE",
"318 321 OFFCURVE",
"298 258 OFFCURVE",
"275 151 CURVE",
"270 151 LINE",
"263 188 OFFCURVE",
"255 267 OFFCURVE",
"211 538 CURVE SMOOTH",
"203 590 OFFCURVE",
"168 610 OFFCURVE",
"118 610 CURVE SMOOTH",
"79 610 OFFCURVE",
"44 592 OFFCURVE",
"25 575 CURVE",
"42 409 OFFCURVE",
"105 114 OFFCURVE",
"139 40 CURVE SMOOTH",
"153 10 OFFCURVE",
"209 -8 OFFCURVE",
"268 -8 CURVE SMOOTH",
"316 -8 OFFCURVE",
"359 6 OFFCURVE",
"379 24 CURVE",
"395 81 OFFCURVE",
"417 170 OFFCURVE",
"435 256 CURVE",
"457 168 OFFCURVE",
"478 93 OFFCURVE",
"495 40 CURVE SMOOTH",
"504 10 OFFCURVE",
"552 -8 OFFCURVE",
"614 -8 CURVE SMOOTH",
"662 -8 OFFCURVE",
"713 6 OFFCURVE",
"733 24 CURVE",
"774 112 OFFCURVE",
"832 452 OFFCURVE",
"832 540 CURVE SMOOTH",
"832 591 OFFCURVE",
"790 610 OFFCURVE",
"741 610 CURVE SMOOTH",
"713 610 OFFCURVE",
"687 603 OFFCURVE",
"662 589 CURVE",
"645 444 OFFCURVE",
"632 314 OFFCURVE",
"609 151 CURVE",
"604 151 LINE",
"582 244 OFFCURVE",
"560 317 OFFCURVE",
"531 427 CURVE SMOOTH",
"523 459 OFFCURVE",
"483 476 OFFCURVE",
"427 476 CURVE SMOOTH",
"395 476 OFFCURVE",
"360 465 OFFCURVE"
);
}
);
width = 863;
}
);
leftKerningGroup = W;
rightKerningGroup = W;
unicode = 0057;
},
{
glyphname = X;
lastChange = "2017-09-02 22:18:06 +0000";
layers = (
{
layerId = "95F0E3FF-6822-4CFD-805E-5B95C02D9EC6";
paths = (
{
closed = 1;
nodes = (
"182 308 LINE",
"77 173 LINE SMOOTH",
"47 134 OFFCURVE",
"29 110 OFFCURVE",
"29 72 CURVE SMOOTH",
"29 27 OFFCURVE",
"65 -8 OFFCURVE",
"140 -8 CURVE SMOOTH",
"149 -8 OFFCURVE",
"159 -7 OFFCURVE",
"169 -6 CURVE",
"295 184 LINE",
"376 56 LINE SMOOTH",
"405 9 OFFCURVE",
"431 -8 OFFCURVE",
"469 -8 CURVE SMOOTH",
"528 -8 OFFCURVE",
"565 23 OFFCURVE",
"575 72 CURVE",
"412 305 LINE",
"515 431 LINE SMOOTH",
"548 472 OFFCURVE",
"569 497 OFFCURVE",
"569 534 CURVE SMOOTH",
"569 577 OFFCURVE",
"532 610 OFFCURVE",
"471 610 CURVE SMOOTH",
"452 610 OFFCURVE",
"431 604 OFFCURVE",
"420 599 CURVE",
"305 429 LINE",
"227 548 LINE SMOOTH",
"197 594 OFFCURVE",
"169 612 OFFCURVE",
"131 612 CURVE SMOOTH",
"72 612 OFFCURVE",
"36 569 OFFCURVE",
"23 532 CURVE"
);
}
);
width = 601;
}
);
unicode = 0058;
},
{
glyphname = Y;
lastChange = "2017-09-02 22:18:06 +0000";
layers = (
{
layerId = "95F0E3FF-6822-4CFD-805E-5B95C02D9EC6";
paths = (
{
closed = 1;
nodes = (
"383 207 LINE",
"540 461 OFFCURVE",
"557 503 OFFCURVE",
"557 535 CURVE SMOOTH",
"557 584 OFFCURVE",
"519 609 OFFCURVE",
"473 609 CURVE SMOOTH",
"446 609 OFFCURVE",
"415 602 OFFCURVE",
"391 590 CURVE",
"353 495 OFFCURVE",
"337 449 OFFCURVE",
"300 366 CURVE",
"294 366 LINE",
"211 533 LINE",
"182 592 OFFCURVE",
"153 609 OFFCURVE",
"101 609 CURVE SMOOTH",
"57 609 OFFCURVE",
"27 585 OFFCURVE",
"10 561 CURVE",
"50 460 OFFCURVE",
"145 310 OFFCURVE",
"212 211 CURVE",
"212 76 LINE SMOOTH",
"212 9 OFFCURVE",
"243 -5 OFFCURVE",
"304 -5 CURVE SMOOTH",
"333 -5 OFFCURVE",
"369 0 OFFCURVE",
"383 4 CURVE"
);
}
);
width = 574;
}
);
leftKerningGroup = Y;
rightKerningGroup = Y;
unicode = 0059;
},
{
glyphname = Z;
lastChange = "2017-09-02 22:18:06 +0000";
layers = (
{
layerId = "95F0E3FF-6822-4CFD-805E-5B95C02D9EC6";
paths = (
{
closed = 1;
nodes = (
"78 192 LINE",
"54 163 OFFCURVE",
"34 126 OFFCURVE",
"34 93 CURVE SMOOTH",
"34 52 OFFCURVE",
"50 19 OFFCURVE",
"73 0 CURVE",
"467 0 LINE SMOOTH",
"504 0 OFFCURVE",
"530 21 OFFCURVE",
"530 73 CURVE SMOOTH",
"530 101 OFFCURVE",
"520 128 OFFCURVE",
"511 143 CURVE",
"255 143 LINE",
"482 417 LINE SMOOTH",
"506 446 OFFCURVE",
"523 480 OFFCURVE",
"523 513 CURVE SMOOTH",
"523 554 OFFCURVE",
"508 585 OFFCURVE",
"479 609 CURVE",
"106 609 LINE SMOOTH",
"69 609 OFFCURVE",
"43 588 OFFCURVE",
"43 536 CURVE SMOOTH",
"43 508 OFFCURVE",
"53 481 OFFCURVE",
"62 466 CURVE",
"308 466 LINE"
);
}
);
width = 560;
}
);
leftKerningGroup = Z;
rightKerningGroup = Z;
unicode = 005A;
},
{
glyphname = bracketleft;
lastChange = "2017-09-02 22:18:06 +0000";
layers = (
{
layerId = "95F0E3FF-6822-4CFD-805E-5B95C02D9EC6";
paths = (
{
closed = 1;
nodes = (
"46 -55 LINE SMOOTH",
"46 -101 OFFCURVE",
"76 -131 OFFCURVE",
"122 -131 CURVE SMOOTH",
"243 -131 LINE SMOOTH",
"275 -131 OFFCURVE",
"298 -112 OFFCURVE",
"298 -66 CURVE SMOOTH",
"298 -41 OFFCURVE",
"289 -19 OFFCURVE",
"282 -5 CURVE",
"204 -5 LINE",
"204 537 LINE",
"243 537 LINE SMOOTH",
"275 537 OFFCURVE",
"298 556 OFFCURVE",
"298 602 CURVE SMOOTH",
"298 627 OFFCURVE",
"289 649 OFFCURVE",
"282 663 CURVE",
"122 663 LINE SMOOTH",
"76 663 OFFCURVE",
"46 633 OFFCURVE",
"46 587 CURVE SMOOTH"
);
}
);
width = 303;
}
);
rightKerningGroup = parenleft;
unicode = 005B;
},
{
glyphname = backslash;
lastChange = "2017-09-02 22:18:06 +0000";
layers = (
{
layerId = "95F0E3FF-6822-4CFD-805E-5B95C02D9EC6";
paths = (
{
closed = 1;
nodes = (
"162 654 LINE SMOOTH",
"151 695 OFFCURVE",
"123 708 OFFCURVE",
"87 708 CURVE SMOOTH",
"56 708 OFFCURVE",
"19 691 OFFCURVE",
"0 671 CURVE",
"198 -55 LINE SMOOTH",
"209 -96 OFFCURVE",
"237 -109 OFFCURVE",
"273 -109 CURVE SMOOTH",
"303 -109 OFFCURVE",
"341 -92 OFFCURVE",
"360 -72 CURVE"
);
}
);
width = 360;
}
);
unicode = 005C;
},
{
glyphname = bracketright;
lastChange = "2017-09-02 22:18:06 +0000";
layers = (
{
layerId = "95F0E3FF-6822-4CFD-805E-5B95C02D9EC6";
paths = (
{
closed = 1;
nodes = (
"181 -131 LINE",
"228 -131 OFFCURVE",
"257 -102 OFFCURVE",
"257 -55 CURVE SMOOTH",
"257 587 LINE SMOOTH",
"257 634 OFFCURVE",
"228 663 OFFCURVE",
"181 663 CURVE SMOOTH",
"60 663 LINE SMOOTH",
"28 663 OFFCURVE",
"5 644 OFFCURVE",
"5 598 CURVE SMOOTH",
"5 573 OFFCURVE",
"14 551 OFFCURVE",
"21 537 CURVE",
"99 537 LINE",
"99 -5 LINE",
"60 -5 LINE SMOOTH",
"28 -5 OFFCURVE",
"5 -24 OFFCURVE",
"5 -70 CURVE SMOOTH",
"5 -95 OFFCURVE",
"14 -117 OFFCURVE",
"21 -131 CURVE"
);
}
);
width = 317;
}
);
leftKerningGroup = parenright;
unicode = 005D;
},
{
glyphname = asciicircum;
lastChange = "2017-09-02 22:18:06 +0000";
layers = (
{
layerId = "95F0E3FF-6822-4CFD-805E-5B95C02D9EC6";
paths = (
{
closed = 1;
nodes = (
"153 662 CURVE",
"108 594 OFFCURVE",
"35 438 OFFCURVE",
"35 389 CURVE SMOOTH",
"35 346 OFFCURVE",
"66 330 OFFCURVE",
"106 330 CURVE SMOOTH",
"129 330 OFFCURVE",
"157 335 OFFCURVE",
"177 347 CURVE",
"191 412 OFFCURVE",
"213 487 OFFCURVE",
"236 548 CURVE",
"240 548 LINE",
"296 391 LINE SMOOTH",
"313 344 OFFCURVE",
"334 330 OFFCURVE",
"375 330 CURVE SMOOTH",
"407 330 OFFCURVE",
"437 347 OFFCURVE",
"453 363 CURVE",
"432 448 OFFCURVE",
"367 605 OFFCURVE",
"336 648 CURVE",
"322 672 OFFCURVE",
"288 686 OFFCURVE",
"243 686 CURVE SMOOTH",
"203 686 OFFCURVE",
"169 675 OFFCURVE"
);
}
);
width = 488;
}
);
unicode = 005E;
},
{
glyphname = underscore;
lastChange = "2017-09-02 22:18:06 +0000";
layers = (
{
layerId = "95F0E3FF-6822-4CFD-805E-5B95C02D9EC6";
paths = (
{
closed = 1;
nodes = (
"478 -188 LINE SMOOTH",
"514 -188 OFFCURVE",
"539 -168 OFFCURVE",
"539 -119 CURVE SMOOTH",
"539 -93 OFFCURVE",
"527 -67 OFFCURVE",
"520 -54 CURVE",
"90 -54 LINE SMOOTH",
"55 -54 OFFCURVE",
"30 -74 OFFCURVE",
"30 -123 CURVE SMOOTH",
"30 -149 OFFCURVE",
"40 -175 OFFCURVE",
"48 -188 CURVE"
);
}
);
width = 569;
}
);
unicode = 005F;
},
{
glyphname = grave;
lastChange = "2017-09-02 22:18:06 +0000";
layers = (
{
layerId = "95F0E3FF-6822-4CFD-805E-5B95C02D9EC6";
paths = (
{
closed = 1;
nodes = (
"150 554 LINE SMOOTH",
"171 540 OFFCURVE",
"193 530 OFFCURVE",
"214 530 CURVE SMOOTH",
"247 530 OFFCURVE",
"277 564 OFFCURVE",
"280 614 CURVE",
"167 709 LINE SMOOTH",
"139 733 OFFCURVE",
"120 747 OFFCURVE",
"87 747 CURVE SMOOTH",
"43 747 OFFCURVE",
"16 714 OFFCURVE",
"16 663 CURVE SMOOTH",
"16 658 OFFCURVE",
"17 648 OFFCURVE",
"18 643 CURVE"
);
}
);
width = 302;
}
);
unicode = 0060;
},
{
glyphname = a;
lastChange = "2017-09-02 22:18:06 +0000";
layers = (
{
layerId = "95F0E3FF-6822-4CFD-805E-5B95C02D9EC6";
paths = (
{
closed = 1;
nodes = (
"260 108 CURVE",
"211 108 OFFCURVE",
"192 126 OFFCURVE",
"192 153 CURVE SMOOTH",
"192 180 OFFCURVE",
"219 192 OFFCURVE",
"256 195 CURVE SMOOTH",
"328 201 LINE",
"328 121 LINE",
"315 113 OFFCURVE",
"283 108 OFFCURVE"
);
},
{
closed = 1;
nodes = (
"252 501 CURVE",
"205 501 OFFCURVE",
"148 495 OFFCURVE",
"109 480 CURVE SMOOTH",
"74 466 OFFCURVE",
"58 446 OFFCURVE",
"58 412 CURVE SMOOTH",
"58 385 OFFCURVE",
"72 358 OFFCURVE",
"89 346 CURVE",
"127 362 OFFCURVE",
"178 374 OFFCURVE",
"228 374 CURVE SMOOTH",
"292 374 OFFCURVE",
"327 358 OFFCURVE",
"327 320 CURVE SMOOTH",
"327 313 LINE",
"196 299 LINE",
"82 287 OFFCURVE",
"28 239 OFFCURVE",
"28 147 CURVE SMOOTH",
"28 37 OFFCURVE",
"120 -16 OFFCURVE",
"260 -16 CURVE SMOOTH",
"338 -16 OFFCURVE",
"400 -3 OFFCURVE",
"443 23 CURVE SMOOTH",
"469 39 OFFCURVE",
"492 59 OFFCURVE",
"492 94 CURVE SMOOTH",
"492 318 LINE SMOOTH",
"492 443 OFFCURVE",
"397 501 OFFCURVE"
);
}
);
width = 544;
}
);
leftKerningGroup = a;
rightKerningGroup = a;
unicode = 0061;
},
{
glyphname = b;
lastChange = "2017-09-02 22:18:06 +0000";
layers = (
{
layerId = "95F0E3FF-6822-4CFD-805E-5B95C02D9EC6";
paths = (
{
closed = 1;
nodes = (
"54 118 LINE",
"54 85 OFFCURVE",
"70 58 OFFCURVE",
"98 38 CURVE SMOOTH",
"140 8 OFFCURVE",
"200 -16 OFFCURVE",
"288 -16 CURVE",
"452 -16 OFFCURVE",
"559 71 OFFCURVE",
"559 243 CURVE SMOOTH",
"559 410 OFFCURVE",
"449 501 OFFCURVE",
"321 501 CURVE SMOOTH",
"285 501 OFFCURVE",
"257 496 OFFCURVE",
"224 483 CURVE",
"224 581 LINE SMOOTH",
"224 648 OFFCURVE",
"190 661 OFFCURVE",
"131 661 CURVE SMOOTH",
"101 661 OFFCURVE",
"67 655 OFFCURVE",
"54 651 CURVE"
);
},
{
closed = 1;
nodes = (
"288 118 CURVE",
"258 118 OFFCURVE",
"238 125 OFFCURVE",
"223 134 CURVE",
"223 352 LINE",
"246 362 OFFCURVE",
"262 368 OFFCURVE",
"289 368 CURVE SMOOTH",
"347 368 OFFCURVE",
"385 327 OFFCURVE",
"385 243 CURVE SMOOTH",
"385 161 OFFCURVE",
"349 118 OFFCURVE"
);
}
);
width = 590;
}
);
leftKerningGroup = l;
rightKerningGroup = o;
unicode = 0062;
},
{
glyphname = c;
lastChange = "2017-09-02 22:18:06 +0000";
layers = (
{
layerId = "95F0E3FF-6822-4CFD-805E-5B95C02D9EC6";
paths = (
{
closed = 1;
nodes = (
"326 367 CURVE SMOOTH",
"363 367 OFFCURVE",
"396 355 OFFCURVE",
"419 344 CURVE",
"435 360 OFFCURVE",
"449 383 OFFCURVE",
"449 408 CURVE SMOOTH",
"449 462 OFFCURVE",
"394 501 OFFCURVE",
"299 501 CURVE SMOOTH",
"155 501 OFFCURVE",
"31 417 OFFCURVE",
"31 240 CURVE SMOOTH",
"31 88 OFFCURVE",
"142 -15 OFFCURVE",
"309 -15 CURVE SMOOTH",
"401 -15 OFFCURVE",
"456 17 OFFCURVE",
"456 71 CURVE SMOOTH",
"456 101 OFFCURVE",
"442 123 OFFCURVE",
"416 141 CURVE",
"394 130 OFFCURVE",
"365 119 OFFCURVE",
"325 119 CURVE SMOOTH",
"257 119 OFFCURVE",
"203 161 OFFCURVE",
"203 243 CURVE SMOOTH",
"203 325 OFFCURVE",
"259 367 OFFCURVE"
);
}
);
width = 489;
}
);
leftKerningGroup = o;
rightKerningGroup = c;
unicode = 0063;
},
{
glyphname = d;
lastChange = "2017-09-02 22:18:06 +0000";
layers = (
{
layerId = "95F0E3FF-6822-4CFD-805E-5B95C02D9EC6";
paths = (
{
closed = 1;
nodes = (
"31 243 CURVE",
"31 84 OFFCURVE",
"133 -16 OFFCURVE",
"307 -16 CURVE SMOOTH",
"386 -16 OFFCURVE",
"449 7 OFFCURVE",
"488 32 CURVE SMOOTH",
"518 51 OFFCURVE",
"532 74 OFFCURVE",
"532 107 CURVE SMOOTH",
"532 581 LINE SMOOTH",
"532 648 OFFCURVE",
"498 661 OFFCURVE",
"439 661 CURVE SMOOTH",
"409 661 OFFCURVE",
"375 655 OFFCURVE",
"362 651 CURVE",
"362 489 LINE",
"346 495 OFFCURVE",
"319 501 OFFCURVE",
"292 501 CURVE SMOOTH",
"146 501 OFFCURVE",
"31 418 OFFCURVE"
);
},
{
closed = 1;
nodes = (
"315 368 CURVE",
"332 368 OFFCURVE",
"350 364 OFFCURVE",
"363 356 CURVE",
"363 136 LINE",
"352 127 OFFCURVE",
"332 118 OFFCURVE",
"308 118 CURVE SMOOTH",
"241 118 OFFCURVE",
"203 161 OFFCURVE",
"203 243 CURVE SMOOTH",
"203 327 OFFCURVE",
"244 368 OFFCURVE"
);
}
);
width = 586;
}
);
leftKerningGroup = o;
rightKerningGroup = l;
unicode = 0064;
},
{
glyphname = e;
lastChange = "2017-09-02 22:18:06 +0000";
layers = (
{
layerId = "95F0E3FF-6822-4CFD-805E-5B95C02D9EC6";
paths = (
{
closed = 1;
nodes = (
"309 -16 CURVE",
"355 -16 OFFCURVE",
"413 -9 OFFCURVE",
"456 13 CURVE SMOOTH",
"483 27 OFFCURVE",
"498 50 OFFCURVE",
"498 80 CURVE SMOOTH",
"498 107 OFFCURVE",
"481 133 OFFCURVE",
"460 146 CURVE",
"429 128 OFFCURVE",
"377 111 OFFCURVE",
"323 111 CURVE SMOOTH",
"265 111 OFFCURVE",
"214 133 OFFCURVE",
"200 177 CURVE",
"447 214 LINE SMOOTH",
"492 221 OFFCURVE",
"519 244 OFFCURVE",
"519 289 CURVE SMOOTH",
"519 412 OFFCURVE",
"422 501 OFFCURVE",
"281 501 CURVE SMOOTH",
"156 501 OFFCURVE",
"31 427 OFFCURVE",
"31 250 CURVE SMOOTH",
"31 72 OFFCURVE",
"152 -16 OFFCURVE"
);
},
{
closed = 1;
nodes = (
"281 377 CURVE",
"330 377 OFFCURVE",
"355 344 OFFCURVE",
"359 317 CURVE",
"188 289 LINE",
"190 331 OFFCURVE",
"217 377 OFFCURVE"
);
}
);
width = 549;
}
);
leftKerningGroup = o;
rightKerningGroup = e;
unicode = 0065;
},
{
glyphname = f;
lastChange = "2017-09-02 22:18:06 +0000";
layers = (
{
layerId = "95F0E3FF-6822-4CFD-805E-5B95C02D9EC6";
paths = (
{
closed = 1;
nodes = (
"54 72 LINE SMOOTH",
"54 5 OFFCURVE",
"89 -8 OFFCURVE",
"148 -8 CURVE SMOOTH",
"178 -8 OFFCURVE",
"211 -3 OFFCURVE",
"224 1 CURVE",
"224 318 LINE",
"339 318 LINE SMOOTH",
"373 318 OFFCURVE",
"396 337 OFFCURVE",
"396 384 CURVE SMOOTH",
"396 410 OFFCURVE",
"387 434 OFFCURVE",
"379 448 CURVE",
"215 448 LINE",
"215 480 LINE SMOOTH",
"215 528 OFFCURVE",
"249 545 OFFCURVE",
"306 545 CURVE SMOOTH",
"342 545 OFFCURVE",
"368 540 OFFCURVE",
"393 533 CURVE",
"406 544 OFFCURVE",
"420 566 OFFCURVE",
"420 593 CURVE SMOOTH",
"420 655 OFFCURVE",
"374 679 OFFCURVE",
"276 679 CURVE SMOOTH",
"154 679 OFFCURVE",
"54 621 OFFCURVE",
"54 486 CURVE SMOOTH"
);
}
);
width = 430;
}
);
leftKerningGroup = f;
unicode = 0066;
},
{
glyphname = g;
lastChange = "2017-09-02 22:18:06 +0000";
layers = (
{
layerId = "95F0E3FF-6822-4CFD-805E-5B95C02D9EC6";
paths = (
{
closed = 1;
nodes = (
"289 501 CURVE",
"139 501 OFFCURVE",
"30 424 OFFCURVE",
"30 262 CURVE SMOOTH",
"30 96 OFFCURVE",
"135 26 OFFCURVE",
"254 26 CURVE SMOOTH",
"295 26 OFFCURVE",
"327 32 OFFCURVE",
"354 44 CURVE",
"354 28 LINE SMOOTH",
"354 -25 OFFCURVE",
"307 -48 OFFCURVE",
"236 -48 CURVE SMOOTH",
"184 -48 OFFCURVE",
"134 -31 OFFCURVE",
"95 -10 CURVE",
"79 -22 OFFCURVE",
"64 -47 OFFCURVE",
"64 -77 CURVE SMOOTH",
"64 -150 OFFCURVE",
"139 -181 OFFCURVE",
"259 -181 CURVE SMOOTH",
"400 -181 OFFCURVE",
"514 -117 OFFCURVE",
"514 24 CURVE SMOOTH",
"514 374 LINE SMOOTH",
"514 410 OFFCURVE",
"497 430 OFFCURVE",
"471 449 CURVE SMOOTH",
"429 479 OFFCURVE",
"364 501 OFFCURVE"
);
},
{
closed = 1;
nodes = (
"351 172 LINE",
"336 160 OFFCURVE",
"313 153 OFFCURVE",
"286 153 CURVE SMOOTH",
"235 153 OFFCURVE",
"199 185 OFFCURVE",
"199 262 CURVE SMOOTH",
"199 329 OFFCURVE",
"232 368 OFFCURVE",
"297 368 CURVE SMOOTH",
"323 368 OFFCURVE",
"342 361 OFFCURVE",
"351 356 CURVE"
);
}
);
width = 567;
}
);
leftKerningGroup = g;
rightKerningGroup = g;
unicode = 0067;
},
{
glyphname = h;
lastChange = "2017-09-02 22:18:06 +0000";
layers = (
{
layerId = "95F0E3FF-6822-4CFD-805E-5B95C02D9EC6";
paths = (
{
closed = 1;
nodes = (
"532 304 LINE SMOOTH",
"532 434 OFFCURVE",
"453 501 OFFCURVE",
"322 501 CURVE SMOOTH",
"279 501 OFFCURVE",
"241 489 OFFCURVE",
"224 483 CURVE",
"224 581 LINE SMOOTH",
"224 648 OFFCURVE",
"189 661 OFFCURVE",
"130 661 CURVE SMOOTH",
"101 661 OFFCURVE",
"68 655 OFFCURVE",
"54 652 CURVE",
"54 72 LINE SMOOTH",
"54 5 OFFCURVE",
"89 -8 OFFCURVE",
"148 -8 CURVE SMOOTH",
"178 -8 OFFCURVE",
"211 -3 OFFCURVE",
"224 1 CURVE",
"224 351 LINE",
"239 360 OFFCURVE",
"264 368 OFFCURVE",
"291 368 CURVE SMOOTH",
"331 368 OFFCURVE",
"362 348 OFFCURVE",
"362 294 CURVE SMOOTH",
"362 72 LINE SMOOTH",
"362 5 OFFCURVE",
"397 -8 OFFCURVE",
"456 -8 CURVE SMOOTH",
"486 -8 OFFCURVE",
"519 -3 OFFCURVE",
"532 1 CURVE"
);
}
);
width = 585;
}
);
leftKerningGroup = l;
rightKerningGroup = h;
unicode = 0068;
},
{
glyphname = i;
lastChange = "2017-09-02 22:18:06 +0000";
layers = (
{
layerId = "95F0E3FF-6822-4CFD-805E-5B95C02D9EC6";
paths = (
{
closed = 1;
nodes = (
"48 621 CURVE",
"48 571 OFFCURVE",
"86 531 OFFCURVE",
"141 531 CURVE SMOOTH",
"196 531 OFFCURVE",
"234 571 OFFCURVE",
"234 621 CURVE SMOOTH",
"234 671 OFFCURVE",
"196 711 OFFCURVE",
"141 711 CURVE SMOOTH",
"86 711 OFFCURVE",
"48 671 OFFCURVE"
);
},
{
closed = 1;
nodes = (
"226 408 LINE",
"226 475 OFFCURVE",
"191 488 OFFCURVE",
"132 488 CURVE SMOOTH",
"103 488 OFFCURVE",
"70 482 OFFCURVE",
"56 479 CURVE",
"56 72 LINE SMOOTH",
"56 5 OFFCURVE",
"91 -8 OFFCURVE",
"150 -8 CURVE SMOOTH",
"179 -8 OFFCURVE",
"212 -2 OFFCURVE",
"226 1 CURVE"
);
}
);
width = 282;
}
);
leftKerningGroup = i;
rightKerningGroup = i;
unicode = 0069;
},
{
glyphname = j;
lastChange = "2017-09-02 22:18:06 +0000";
layers = (
{
layerId = "95F0E3FF-6822-4CFD-805E-5B95C02D9EC6";
paths = (
{
closed = 1;
nodes = (
"53 621 CURVE",
"53 571 OFFCURVE",
"91 531 OFFCURVE",
"146 531 CURVE SMOOTH",
"201 531 OFFCURVE",
"239 571 OFFCURVE",
"239 621 CURVE SMOOTH",
"239 671 OFFCURVE",
"201 711 OFFCURVE",
"146 711 CURVE SMOOTH",
"91 711 OFFCURVE",
"53 671 OFFCURVE"
);
},
{
closed = 1;
nodes = (
"-7 -84 LINE",
"-6 -137 OFFCURVE",
"30 -177 OFFCURVE",
"88 -177 CURVE SMOOTH",
"177 -177 OFFCURVE",
"231 -102 OFFCURVE",
"231 9 CURVE SMOOTH",
"231 408 LINE SMOOTH",
"231 475 OFFCURVE",
"196 488 OFFCURVE",
"137 488 CURVE SMOOTH",
"108 488 OFFCURVE",
"75 482 OFFCURVE",
"61 479 CURVE",
"61 25 LINE",
"61 -15 OFFCURVE",
"48 -49 OFFCURVE",
"19 -68 CURVE"
);
}
);
width = 287;
}
);
leftKerningGroup = j;
rightKerningGroup = j;
unicode = 006A;
},
{
glyphname = k;
lastChange = "2017-09-02 22:18:06 +0000";
layers = (
{
layerId = "95F0E3FF-6822-4CFD-805E-5B95C02D9EC6";
paths = (
{
closed = 1;
nodes = (
"367 248 LINE",
"425 298 LINE SMOOTH",
"484 349 OFFCURVE",
"511 372 OFFCURVE",
"511 412 CURVE SMOOTH",
"511 458 OFFCURVE",
"465 493 OFFCURVE",
"396 493 CURVE",
"224 317 LINE",
"224 581 LINE SMOOTH",
"224 648 OFFCURVE",
"189 661 OFFCURVE",
"130 661 CURVE SMOOTH",
"101 661 OFFCURVE",
"68 655 OFFCURVE",
"54 651 CURVE",
"54 72 LINE SMOOTH",
"54 5 OFFCURVE",
"89 -8 OFFCURVE",
"148 -8 CURVE SMOOTH",
"177 -8 OFFCURVE",
"210 -2 OFFCURVE",
"224 1 CURVE",
"224 183 LINE",
"323 59 LINE SMOOTH",
"362 10 OFFCURVE",
"392 -9 OFFCURVE",
"434 -9 CURVE SMOOTH",
"491 -9 OFFCURVE",
"521 26 OFFCURVE",
"527 88 CURVE"
);
}
);
width = 555;
}
);
leftKerningGroup = l;
rightKerningGroup = k;
unicode = 006B;
},
{
glyphname = l;
lastChange = "2017-09-02 22:18:06 +0000";
layers = (
{
layerId = "95F0E3FF-6822-4CFD-805E-5B95C02D9EC6";
paths = (
{
closed = 1;
nodes = (
"225 581 LINE SMOOTH",
"225 648 OFFCURVE",
"190 661 OFFCURVE",
"131 661 CURVE SMOOTH",
"102 661 OFFCURVE",
"69 655 OFFCURVE",
"55 652 CURVE",
"55 72 LINE SMOOTH",
"55 5 OFFCURVE",
"90 -8 OFFCURVE",
"149 -8 CURVE SMOOTH",
"178 -8 OFFCURVE",
"211 -2 OFFCURVE",
"225 1 CURVE"
);
}
);
width = 280;
}
);
leftKerningGroup = l;
rightKerningGroup = l;
unicode = 006C;
},
{
glyphname = m;
lastChange = "2017-09-02 22:18:06 +0000";
layers = (
{
layerId = "95F0E3FF-6822-4CFD-805E-5B95C02D9EC6";
paths = (
{
closed = 1;
nodes = (
"285 501 CURVE SMOOTH",
"212 501 OFFCURVE",
"140 479 OFFCURVE",
"95 447 CURVE SMOOTH",
"68 428 OFFCURVE",
"52 410 OFFCURVE",
"52 374 CURVE SMOOTH",
"52 72 LINE SMOOTH",
"52 5 OFFCURVE",
"87 -8 OFFCURVE",
"146 -8 CURVE SMOOTH",
"176 -8 OFFCURVE",
"209 -3 OFFCURVE",
"222 1 CURVE",
"222 352 LINE",
"234 359 OFFCURVE",
"251 368 OFFCURVE",
"275 368 CURVE SMOOTH",
"309 368 OFFCURVE",
"338 351 OFFCURVE",
"338 311 CURVE SMOOTH",
"338 72 LINE SMOOTH",
"338 5 OFFCURVE",
"373 -8 OFFCURVE",
"432 -8 CURVE SMOOTH",
"461 -8 OFFCURVE",
"494 -3 OFFCURVE",
"508 1 CURVE",
"508 334 LINE SMOOTH",
"508 338 OFFCURVE",
"508 343 OFFCURVE",
"507 348 CURVE",
"517 357 OFFCURVE",
"543 368 OFFCURVE",
"561 368 CURVE SMOOTH",
"600 368 OFFCURVE",
"624 351 OFFCURVE",
"624 311 CURVE SMOOTH",
"624 72 LINE SMOOTH",
"624 5 OFFCURVE",
"659 -8 OFFCURVE",
"718 -8 CURVE SMOOTH",
"748 -8 OFFCURVE",
"781 -3 OFFCURVE",
"794 1 CURVE",
"794 316 LINE SMOOTH",
"794 452 OFFCURVE",
"694 501 OFFCURVE",
"592 501 CURVE SMOOTH",
"522 501 OFFCURVE",
"474 482 OFFCURVE",
"434 455 CURVE",
"395 486 OFFCURVE",
"339 501 OFFCURVE"
);
}
);
width = 846;
}
);
leftKerningGroup = m;
rightKerningGroup = m;
unicode = 006D;
},
{
glyphname = n;
lastChange = "2017-09-02 22:18:06 +0000";
layers = (
{
layerId = "95F0E3FF-6822-4CFD-805E-5B95C02D9EC6";
paths = (
{
closed = 1;
nodes = (
"360 72 LINE SMOOTH",
"360 5 OFFCURVE",
"395 -8 OFFCURVE",
"454 -8 CURVE SMOOTH",
"484 -8 OFFCURVE",
"517 -3 OFFCURVE",
"530 1 CURVE",
"530 314 LINE SMOOTH",
"530 431 OFFCURVE",
"445 501 OFFCURVE",
"295 501 CURVE SMOOTH",
"212 501 OFFCURVE",
"140 479 OFFCURVE",
"95 447 CURVE SMOOTH",
"68 428 OFFCURVE",
"52 408 OFFCURVE",
"52 372 CURVE SMOOTH",
"52 72 LINE SMOOTH",
"52 5 OFFCURVE",
"87 -8 OFFCURVE",
"146 -8 CURVE SMOOTH",
"176 -8 OFFCURVE",
"209 -3 OFFCURVE",
"222 1 CURVE",
"222 348 LINE",
"240 361 OFFCURVE",
"269 368 OFFCURVE",
"295 368 CURVE SMOOTH",
"335 368 OFFCURVE",
"360 349 OFFCURVE",
"360 308 CURVE SMOOTH"
);
}
);
width = 583;
}
);
leftKerningGroup = m;
rightKerningGroup = h;
unicode = 006E;
},
{
glyphname = o;
lastChange = "2017-09-02 22:18:06 +0000";
layers = (
{
layerId = "95F0E3FF-6822-4CFD-805E-5B95C02D9EC6";
paths = (
{
closed = 1;
nodes = (
"555 243 CURVE",
"555 399 OFFCURVE",
"450 501 OFFCURVE",
"293 501 CURVE SMOOTH",
"136 501 OFFCURVE",
"31 401 OFFCURVE",
"31 243 CURVE",
"31 82 OFFCURVE",
"136 -16 OFFCURVE",
"293 -16 CURVE SMOOTH",
"450 -16 OFFCURVE",
"555 77 OFFCURVE"
);
},
{
closed = 1;
nodes = (
"205 243 CURVE",
"205 323 OFFCURVE",
"238 368 OFFCURVE",
"293 368 CURVE",
"348 368 OFFCURVE",
"381 322 OFFCURVE",
"381 243 CURVE SMOOTH",
"381 163 OFFCURVE",
"349 117 OFFCURVE",
"294 117 CURVE SMOOTH",
"239 117 OFFCURVE",
"205 162 OFFCURVE"
);
}
);
width = 586;
}
);
leftKerningGroup = o;
rightKerningGroup = o;
unicode = 006F;
},
{
glyphname = p;
lastChange = "2017-09-02 22:18:06 +0000";
layers = (
{
layerId = "95F0E3FF-6822-4CFD-805E-5B95C02D9EC6";
paths = (
{
closed = 1;
nodes = (
"275 501 CURVE",
"199 501 OFFCURVE",
"136 483 OFFCURVE",
"95 457 CURVE SMOOTH",
"68 439 OFFCURVE",
"52 418 OFFCURVE",
"52 382 CURVE SMOOTH",
"52 -98 LINE SMOOTH",
"52 -165 OFFCURVE",
"86 -178 OFFCURVE",
"145 -178 CURVE SMOOTH",
"175 -178 OFFCURVE",
"209 -172 OFFCURVE",
"222 -168 CURVE",
"222 -2 LINE",
"245 -10 OFFCURVE",
"273 -15 OFFCURVE",
"302 -15 CURVE SMOOTH",
"455 -15 OFFCURVE",
"554 72 OFFCURVE",
"554 242 CURVE SMOOTH",
"554 420 OFFCURVE",
"436 501 OFFCURVE"
);
},
{
closed = 1;
nodes = (
"277 119 CURVE",
"256 119 OFFCURVE",
"237 125 OFFCURVE",
"221 133 CURVE",
"221 353 LINE",
"236 361 OFFCURVE",
"256 368 OFFCURVE",
"281 368 CURVE SMOOTH",
"345 368 OFFCURVE",
"380 327 OFFCURVE",
"380 242 CURVE SMOOTH",
"380 159 OFFCURVE",
"344 119 OFFCURVE"
);
}
);
width = 585;
}
);
leftKerningGroup = m;
rightKerningGroup = o;
unicode = 0070;
},
{
glyphname = q;
lastChange = "2017-09-02 22:18:06 +0000";
layers = (
{
layerId = "95F0E3FF-6822-4CFD-805E-5B95C02D9EC6";
paths = (
{
closed = 1;
nodes = (
"282 -16 CURVE",
"311 -16 OFFCURVE",
"341 -12 OFFCURVE",
"363 -3 CURVE",
"363 -98 LINE SMOOTH",
"363 -165 OFFCURVE",
"397 -178 OFFCURVE",
"456 -178 CURVE SMOOTH",
"486 -178 OFFCURVE",
"520 -172 OFFCURVE",
"533 -168 CURVE",
"533 376 LINE SMOOTH",
"533 412 OFFCURVE",
"517 434 OFFCURVE",
"490 453 CURVE SMOOTH",
"456 477 OFFCURVE",
"384 501 OFFCURVE",
"310 501 CURVE SMOOTH",
"142 501 OFFCURVE",
"31 408 OFFCURVE",
"31 240 CURVE SMOOTH",
"31 67 OFFCURVE",
"140 -16 OFFCURVE"
);
},
{
closed = 1;
nodes = (
"364 132 LINE",
"351 123 OFFCURVE",
"333 118 OFFCURVE",
"310 118 CURVE SMOOTH",
"242 118 OFFCURVE",
"203 155 OFFCURVE",
"203 242 CURVE SMOOTH",
"203 326 OFFCURVE",
"244 368 OFFCURVE",
"315 368 CURVE SMOOTH",
"336 368 OFFCURVE",
"352 363 OFFCURVE",
"364 358 CURVE"
);
}
);
width = 587;
}
);
leftKerningGroup = o;
rightKerningGroup = g;
unicode = 0071;
},
{
glyphname = r;
lastChange = "2017-09-02 22:18:06 +0000";
layers = (
{
layerId = "95F0E3FF-6822-4CFD-805E-5B95C02D9EC6";
paths = (
{
closed = 1;
nodes = (
"222 342 LINE",
"257 357 OFFCURVE",
"323 369 OFFCURVE",
"379 369 CURVE",
"387 383 OFFCURVE",
"393 402 OFFCURVE",
"393 421 CURVE SMOOTH",
"393 477 OFFCURVE",
"352 500 OFFCURVE",
"289 500 CURVE SMOOTH",
"212 500 OFFCURVE",
"129 475 OFFCURVE",
"85 441 CURVE SMOOTH",
"64 424 OFFCURVE",
"52 403 OFFCURVE",
"52 372 CURVE SMOOTH",
"52 72 LINE SMOOTH",
"52 5 OFFCURVE",
"87 -8 OFFCURVE",
"146 -8 CURVE SMOOTH",
"176 -8 OFFCURVE",
"209 -3 OFFCURVE",
"222 1 CURVE"
);
}
);
width = 411;
}
);
leftKerningGroup = m;
rightKerningGroup = r;
unicode = 0072;
},
{
glyphname = s;
lastChange = "2017-09-02 22:18:06 +0000";
layers = (
{
layerId = "95F0E3FF-6822-4CFD-805E-5B95C02D9EC6";
paths = (
{
closed = 1;
nodes = (
"462 145 CURVE SMOOTH",
"462 226 OFFCURVE",
"413 276 OFFCURVE",
"285 305 CURVE SMOOTH",
"254 312 LINE SMOOTH",
"217 320 OFFCURVE",
"206 328 OFFCURVE",
"206 343 CURVE SMOOTH",
"206 364 OFFCURVE",
"231 374 OFFCURVE",
"275 374 CURVE SMOOTH",
"317 374 OFFCURVE",
"386 357 OFFCURVE",
"408 343 CURVE",
"425 358 OFFCURVE",
"438 380 OFFCURVE",
"438 410 CURVE SMOOTH",
"438 474 OFFCURVE",
"358 502 OFFCURVE",
"260 502 CURVE SMOOTH",
"129 502 OFFCURVE",
"40 443 OFFCURVE",
"40 343 CURVE SMOOTH",
"40 253 OFFCURVE",
"97 208 OFFCURVE",
"212 185 CURVE SMOOTH",
"242 179 LINE SMOOTH",
"279 172 OFFCURVE",
"294 162 OFFCURVE",
"294 144 CURVE SMOOTH",
"294 124 OFFCURVE",
"271 111 OFFCURVE",
"230 111 CURVE SMOOTH",
"165 111 OFFCURVE",
"115 131 OFFCURVE",
"77 152 CURVE",
"58 138 OFFCURVE",
"43 116 OFFCURVE",
"43 84 CURVE SMOOTH",
"43 14 OFFCURVE",
"124 -17 OFFCURVE",
"237 -17 CURVE SMOOTH",
"384 -17 OFFCURVE",
"462 44 OFFCURVE"
);
}
);
width = 492;
}
);
leftKerningGroup = s;
rightKerningGroup = s;
unicode = 0073;
},
{
glyphname = t;
lastChange = "2017-09-02 22:18:06 +0000";
layers = (
{
layerId = "95F0E3FF-6822-4CFD-805E-5B95C02D9EC6";
paths = (
{
closed = 1;
nodes = (
"222 318 LINE",
"313 318 LINE SMOOTH",
"347 318 OFFCURVE",
"370 337 OFFCURVE",
"370 384 CURVE SMOOTH",
"370 410 OFFCURVE",
"361 434 OFFCURVE",
"353 448 CURVE",
"222 448 LINE",
"222 512 LINE SMOOTH",
"222 579 OFFCURVE",
"188 593 OFFCURVE",
"129 593 CURVE SMOOTH",
"99 593 OFFCURVE",
"68 587 OFFCURVE",
"54 583 CURVE",
"54 155 LINE SMOOTH",
"54 35 OFFCURVE",
"120 -15 OFFCURVE",
"237 -15 CURVE SMOOTH",
"333 -15 OFFCURVE",
"366 21 OFFCURVE",
"366 71 CURVE SMOOTH",
"366 96 OFFCURVE",
"356 114 OFFCURVE",
"344 128 CURVE",
"328 123 OFFCURVE",
"305 119 OFFCURVE",
"285 119 CURVE SMOOTH",
"245 119 OFFCURVE",
"222 133 OFFCURVE",
"222 167 CURVE SMOOTH"
);
}
);
width = 400;
}
);
leftKerningGroup = t;
rightKerningGroup = t;
unicode = 0074;
},
{
glyphname = u;
lastChange = "2017-09-02 22:18:06 +0000";
layers = (
{
layerId = "95F0E3FF-6822-4CFD-805E-5B95C02D9EC6";
paths = (
{
closed = 1;
nodes = (
"52 193 LINE SMOOTH",
"52 45 OFFCURVE",
"154 -16 OFFCURVE",
"299 -16 CURVE SMOOTH",
"375 -16 OFFCURVE",
"441 0 OFFCURVE",
"488 29 CURVE SMOOTH",
"516 46 OFFCURVE",
"530 71 OFFCURVE",
"530 104 CURVE SMOOTH",
"530 408 LINE SMOOTH",
"530 475 OFFCURVE",
"495 488 OFFCURVE",
"436 488 CURVE SMOOTH",
"406 488 OFFCURVE",
"373 483 OFFCURVE",
"360 479 CURVE",
"360 129 LINE",
"350 124 OFFCURVE",
"330 117 OFFCURVE",
"300 117 CURVE SMOOTH",
"250 117 OFFCURVE",
"222 139 OFFCURVE",
"222 193 CURVE SMOOTH",
"222 408 LINE SMOOTH",
"222 475 OFFCURVE",
"187 488 OFFCURVE",
"128 488 CURVE SMOOTH",
"98 488 OFFCURVE",
"65 483 OFFCURVE",
"52 479 CURVE"
);
}
);
width = 582;
}
);
leftKerningGroup = u;
rightKerningGroup = u;
unicode = 0075;
},
{
glyphname = v;
lastChange = "2017-09-02 22:18:06 +0000";
layers = (
{
layerId = "95F0E3FF-6822-4CFD-805E-5B95C02D9EC6";
paths = (
{
closed = 1;
nodes = (
"377 13 CURVE",
"426 106 OFFCURVE",
"521 366 OFFCURVE",
"521 429 CURVE SMOOTH",
"521 478 OFFCURVE",
"484 496 OFFCURVE",
"438 496 CURVE SMOOTH",
"411 496 OFFCURVE",
"381 489 OFFCURVE",
"358 477 CURVE",
"335 362 OFFCURVE",
"305 234 OFFCURVE",
"280 136 CURVE",
"275 136 LINE",
"269 163 OFFCURVE",
"254 215 OFFCURVE",
"239 274 CURVE SMOOTH",
"200 427 LINE SMOOTH",
"186 480 OFFCURVE",
"156 496 OFFCURVE",
"109 496 CURVE SMOOTH",
"72 496 OFFCURVE",
"38 479 OFFCURVE",
"20 461 CURVE",
"48 340 OFFCURVE",
"132 99 OFFCURVE",
"168 30 CURVE SMOOTH",
"183 1 OFFCURVE",
"223 -12 OFFCURVE",
"275 -12 CURVE SMOOTH",
"320 -12 OFFCURVE",
"359 -1 OFFCURVE"
);
}
);
width = 545;
}
);
leftKerningGroup = v;
rightKerningGroup = v;
unicode = 0076;
},
{
glyphname = w;
lastChange = "2017-09-02 22:18:06 +0000";
layers = (
{
layerId = "95F0E3FF-6822-4CFD-805E-5B95C02D9EC6";
paths = (
{
closed = 1;
nodes = (
"329 15 CURVE",
"342 63 OFFCURVE",
"381 181 OFFCURVE",
"400 273 CURVE",
"417 184 OFFCURVE",
"451 78 OFFCURVE",
"468 30 CURVE SMOOTH",
"478 2 OFFCURVE",
"510 -12 OFFCURVE",
"567 -12 CURVE SMOOTH",
"611 -12 OFFCURVE",
"654 -1 OFFCURVE",
"672 15 CURVE",
"700 87 OFFCURVE",
"766 365 OFFCURVE",
"766 429 CURVE SMOOTH",
"766 478 OFFCURVE",
"731 496 OFFCURVE",
"685 496 CURVE SMOOTH",
"659 496 OFFCURVE",
"631 489 OFFCURVE",
"607 475 CURVE",
"595 361 OFFCURVE",
"581 248 OFFCURVE",
"566 146 CURVE",
"561 146 LINE",
"552 188 OFFCURVE",
"524 298 OFFCURVE",
"492 415 CURVE SMOOTH",
"483 445 OFFCURVE",
"447 460 OFFCURVE",
"400 460 CURVE SMOOTH",
"362 460 OFFCURVE",
"338 451 OFFCURVE",
"312 437 CURVE",
"283 316 OFFCURVE",
"250 189 OFFCURVE",
"241 146 CURVE",
"237 146 LINE",
"232 173 OFFCURVE",
"224 224 OFFCURVE",
"197 427 CURVE SMOOTH",
"190 477 OFFCURVE",
"159 496 OFFCURVE",
"112 496 CURVE SMOOTH",
"75 496 OFFCURVE",
"41 479 OFFCURVE",
"23 461 CURVE",
"43 331 OFFCURVE",
"93 97 OFFCURVE",
"123 32 CURVE SMOOTH",
"136 4 OFFCURVE",
"180 -12 OFFCURVE",
"234 -12 CURVE SMOOTH",
"278 -12 OFFCURVE",
"311 -1 OFFCURVE"
);
}
);
width = 791;
}
);
leftKerningGroup = w;
rightKerningGroup = w;
unicode = 0077;
},
{
glyphname = x;
lastChange = "2017-09-02 22:18:06 +0000";
layers = (
{
layerId = "95F0E3FF-6822-4CFD-805E-5B95C02D9EC6";
paths = (
{
closed = 1;
nodes = (
"159 250 LINE",
"79 157 LINE",
"42 114 OFFCURVE",
"28 96 OFFCURVE",
"28 64 CURVE SMOOTH",
"28 23 OFFCURVE",
"65 -9 OFFCURVE",
"132 -9 CURVE SMOOTH",
"137 -9 OFFCURVE",
"147 -8 OFFCURVE",
"153 -8 CURVE",
"255 139 LINE",
"309 62 LINE SMOOTH",
"337 22 OFFCURVE",
"363 -10 OFFCURVE",
"413 -11 CURVE",
"459 -11 OFFCURVE",
"496 20 OFFCURVE",
"503 71 CURVE",
"372 244 LINE",
"438 318 LINE",
"479 370 OFFCURVE",
"496 386 OFFCURVE",
"496 421 CURVE SMOOTH",
"496 465 OFFCURVE",
"450 493 OFFCURVE",
"377 493 CURVE",
"270 348 LINE",
"206 432 LINE SMOOTH",
"177 471 OFFCURVE",
"159 493 OFFCURVE",
"115 493 CURVE SMOOTH",
"69 493 OFFCURVE",
"35 458 OFFCURVE",
"25 407 CURVE"
);
}
);
width = 523;
}
);
unicode = 0078;
},
{
glyphname = y;
lastChange = "2017-09-02 22:18:06 +0000";
layers = (
{
layerId = "95F0E3FF-6822-4CFD-805E-5B95C02D9EC6";
paths = (
{
closed = 1;
nodes = (
"128 124 CURVE SMOOTH",
"158 56 OFFCURVE",
"184 38 OFFCURVE",
"207 31 CURVE",
"173 -12 OFFCURVE",
"127 -54 OFFCURVE",
"85 -87 CURVE",
"91 -140 OFFCURVE",
"129 -177 OFFCURVE",
"184 -177 CURVE SMOOTH",
"249 -177 OFFCURVE",
"297 -148 OFFCURVE",
"372 -18 CURVE SMOOTH",
"439 97 OFFCURVE",
"527 322 OFFCURVE",
"527 429 CURVE SMOOTH",
"527 478 OFFCURVE",
"492 496 OFFCURVE",
"446 496 CURVE SMOOTH",
"419 496 OFFCURVE",
"390 489 OFFCURVE",
"367 477 CURVE",
"349 369 OFFCURVE",
"315 244 OFFCURVE",
"284 152 CURVE",
"280 152 LINE",
"201 427 LINE SMOOTH",
"186 480 OFFCURVE",
"156 496 OFFCURVE",
"109 496 CURVE SMOOTH",
"72 496 OFFCURVE",
"38 479 OFFCURVE",
"20 461 CURVE",
"63 283 OFFCURVE",
"98 192 OFFCURVE"
);
}
);
width = 551;
}
);
leftKerningGroup = v;
rightKerningGroup = v;
unicode = 0079;
},
{
glyphname = z;
lastChange = "2017-09-02 22:18:06 +0000";
layers = (
{
layerId = "95F0E3FF-6822-4CFD-805E-5B95C02D9EC6";
paths = (
{
closed = 1;
nodes = (
"400 0 LINE SMOOTH",
"434 0 OFFCURVE",
"457 19 OFFCURVE",
"457 66 CURVE SMOOTH",
"457 92 OFFCURVE",
"448 117 OFFCURVE",
"440 131 CURVE",
"244 131 LINE",
"412 333 LINE SMOOTH",
"431 356 OFFCURVE",
"445 382 OFFCURVE",
"445 409 CURVE SMOOTH",
"445 441 OFFCURVE",
"431 466 OFFCURVE",
"410 485 CURVE",
"95 485 LINE SMOOTH",
"61 485 OFFCURVE",
"38 466 OFFCURVE",
"38 419 CURVE SMOOTH",
"38 393 OFFCURVE",
"47 368 OFFCURVE",
"55 354 CURVE",
"239 354 LINE",
"67 152 LINE SMOOTH",
"48 129 OFFCURVE",
"34 103 OFFCURVE",
"34 76 CURVE SMOOTH",
"34 44 OFFCURVE",
"48 19 OFFCURVE",
"69 0 CURVE"
);
}
);
width = 481;
}
);
leftKerningGroup = z;
rightKerningGroup = z;
unicode = 007A;
},
{
glyphname = braceleft;
lastChange = "2017-09-02 22:18:06 +0000";
layers = (
{
layerId = "95F0E3FF-6822-4CFD-805E-5B95C02D9EC6";
paths = (
{
closed = 1;
nodes = (
"199 266 CURVE",
"235 283 OFFCURVE",
"253 320 OFFCURVE",
"253 376 CURVE SMOOTH",
"253 488 LINE SMOOTH",
"253 533 OFFCURVE",
"269 549 OFFCURVE",
"298 557 CURVE",
"300 567 OFFCURVE",
"300 576 OFFCURVE",
"300 584 CURVE SMOOTH",
"300 646 OFFCURVE",
"267 668 OFFCURVE",
"221 668 CURVE SMOOTH",
"148 668 OFFCURVE",
"96 621 OFFCURVE",
"96 527 CURVE SMOOTH",
"96 422 LINE SMOOTH",
"96 364 OFFCURVE",
"76 335 OFFCURVE",
"31 323 CURVE",
"27 307 OFFCURVE",
"24 287 OFFCURVE",
"24 266 CURVE",
"24 245 OFFCURVE",
"27 225 OFFCURVE",
"31 209 CURVE",
"76 197 OFFCURVE",
"96 168 OFFCURVE",
"96 110 CURVE SMOOTH",
"96 5 LINE SMOOTH",
"96 -89 OFFCURVE",
"148 -136 OFFCURVE",
"221 -136 CURVE SMOOTH",
"267 -136 OFFCURVE",
"300 -114 OFFCURVE",
"300 -52 CURVE SMOOTH",
"300 -44 OFFCURVE",
"300 -35 OFFCURVE",
"298 -25 CURVE",
"269 -17 OFFCURVE",
"253 -1 OFFCURVE",
"253 44 CURVE SMOOTH",
"253 156 LINE SMOOTH",
"253 212 OFFCURVE",
"235 249 OFFCURVE"
);
}
);
width = 327;
}
);
rightKerningGroup = parenleft;
unicode = 007B;
},
{
glyphname = bar;
lastChange = "2017-09-02 22:18:06 +0000";
layers = (
{
layerId = "95F0E3FF-6822-4CFD-805E-5B95C02D9EC6";
paths = (
{
closed = 1;
nodes = (
"216 612 LINE SMOOTH",
"216 671 OFFCURVE",
"185 683 OFFCURVE",
"132 683 CURVE SMOOTH",
"107 683 OFFCURVE",
"78 679 OFFCURVE",
"65 676 CURVE",
"65 -71 LINE SMOOTH",
"65 -130 OFFCURVE",
"96 -141 OFFCURVE",
"149 -141 CURVE SMOOTH",
"174 -141 OFFCURVE",
"203 -137 OFFCURVE",
"216 -134 CURVE"
);
}
);
width = 281;
}
);
leftKerningGroup = bar;
rightKerningGroup = bar;
unicode = 007C;
},
{
glyphname = braceright;
lastChange = "2017-09-02 22:18:06 +0000";
layers = (
{
layerId = "95F0E3FF-6822-4CFD-805E-5B95C02D9EC6";
paths = (
{
closed = 1;
nodes = (
"125 266 CURVE",
"89 249 OFFCURVE",
"71 212 OFFCURVE",
"71 156 CURVE SMOOTH",
"71 44 LINE SMOOTH",
"71 -1 OFFCURVE",
"55 -17 OFFCURVE",
"26 -25 CURVE",
"24 -35 OFFCURVE",
"24 -44 OFFCURVE",
"24 -52 CURVE SMOOTH",
"24 -114 OFFCURVE",
"57 -136 OFFCURVE",
"103 -136 CURVE SMOOTH",
"176 -136 OFFCURVE",
"228 -89 OFFCURVE",
"228 5 CURVE SMOOTH",
"228 110 LINE SMOOTH",
"228 168 OFFCURVE",
"248 197 OFFCURVE",
"293 209 CURVE",
"297 225 OFFCURVE",
"300 245 OFFCURVE",
"300 266 CURVE SMOOTH",
"300 287 OFFCURVE",
"297 307 OFFCURVE",
"293 323 CURVE",
"248 335 OFFCURVE",
"228 364 OFFCURVE",
"228 422 CURVE SMOOTH",
"228 527 LINE SMOOTH",
"228 621 OFFCURVE",
"176 668 OFFCURVE",
"103 668 CURVE SMOOTH",
"57 668 OFFCURVE",
"24 646 OFFCURVE",
"24 584 CURVE SMOOTH",
"24 576 OFFCURVE",
"24 567 OFFCURVE",
"26 557 CURVE",
"55 549 OFFCURVE",
"71 533 OFFCURVE",
"71 488 CURVE SMOOTH",
"71 376 LINE SMOOTH",
"71 320 OFFCURVE",
"89 283 OFFCURVE"
);
}
);
width = 327;
}
);
leftKerningGroup = parenright;
unicode = 007D;
},
{
glyphname = asciitilde;
lastChange = "2017-09-02 22:18:06 +0000";
layers = (
{
layerId = "95F0E3FF-6822-4CFD-805E-5B95C02D9EC6";
paths = (
{
closed = 1;
nodes = (
"325 313 CURVE SMOOTH",
"264 313 OFFCURVE",
"206 347 OFFCURVE",
"138 347 CURVE SMOOTH",
"83 347 OFFCURVE",
"18 316 OFFCURVE",
"18 245 CURVE SMOOTH",
"18 189 OFFCURVE",
"65 151 OFFCURVE",
"119 151 CURVE",
"129 166 OFFCURVE",
"146 191 OFFCURVE",
"179 191 CURVE SMOOTH",
"198 191 OFFCURVE",
"215 187 OFFCURVE",
"296 167 CURVE SMOOTH",
"322 161 OFFCURVE",
"344 158 OFFCURVE",
"366 158 CURVE SMOOTH",
"431 158 OFFCURVE",
"487 190 OFFCURVE",
"487 260 CURVE SMOOTH",
"487 316 OFFCURVE",
"440 354 OFFCURVE",
"385 354 CURVE",
"373 334 OFFCURVE",
"357 313 OFFCURVE"
);
}
);
width = 503;
}
);
unicode = 007E;
},
{
glyphname = exclamdown;
lastChange = "2017-09-02 22:18:06 +0000";
layers = (
{
layerId = "95F0E3FF-6822-4CFD-805E-5B95C02D9EC6";
paths = (
{
closed = 1;
nodes = (
"61 -139 CURVE",
"61 -191 OFFCURVE",
"93 -216 OFFCURVE",
"147 -216 CURVE SMOOTH",
"180 -216 OFFCURVE",
"216 -207 OFFCURVE",
"243 -192 CURVE",
"243 -91 OFFCURVE",
"234 119 OFFCURVE",
"222 181 CURVE SMOOTH",
"215 215 OFFCURVE",
"187 225 OFFCURVE",
"149 225 CURVE SMOOTH",
"131 225 OFFCURVE",
"97 219 OFFCURVE",
"86 210 CURVE",
"67 112 OFFCURVE",
"61 -78 OFFCURVE"
);
},
{
closed = 1;
nodes = (
"245 365 CURVE",
"245 419 OFFCURVE",
"208 459 OFFCURVE",
"149 459 CURVE SMOOTH",
"90 459 OFFCURVE",
"53 419 OFFCURVE",
"53 365 CURVE SMOOTH",
"53 311 OFFCURVE",
"90 271 OFFCURVE",
"149 271 CURVE SMOOTH",
"208 271 OFFCURVE",
"245 311 OFFCURVE"
);
}
);
width = 298;
}
);
unicode = 00A1;
},
{
glyphname = cent;
lastChange = "2017-09-02 22:18:06 +0000";
layers = (
{
layerId = "95F0E3FF-6822-4CFD-805E-5B95C02D9EC6";
paths = (
{
closed = 1;
nodes = (
"324 367 CURVE SMOOTH",
"361 367 OFFCURVE",
"394 355 OFFCURVE",
"417 344 CURVE",
"433 360 OFFCURVE",
"447 383 OFFCURVE",
"447 408 CURVE SMOOTH",
"447 454 OFFCURVE",
"407 489 OFFCURVE",
"336 498 CURVE",
"336 511 LINE SMOOTH",
"336 570 OFFCURVE",
"305 582 OFFCURVE",
"253 582 CURVE SMOOTH",
"227 582 OFFCURVE",
"198 577 OFFCURVE",
"186 574 CURVE",
"186 482 LINE",
"94 448 OFFCURVE",
"29 369 OFFCURVE",
"29 240 CURVE SMOOTH",
"29 128 OFFCURVE",
"88 43 OFFCURVE",
"186 6 CURVE",
"186 -23 LINE SMOOTH",
"186 -82 OFFCURVE",
"217 -94 OFFCURVE",
"269 -94 CURVE SMOOTH",
"295 -94 OFFCURVE",
"324 -89 OFFCURVE",
"336 -86 CURVE",
"336 -14 LINE",
"410 -8 OFFCURVE",
"454 23 OFFCURVE",
"454 71 CURVE SMOOTH",
"454 101 OFFCURVE",
"440 123 OFFCURVE",
"414 141 CURVE",
"392 130 OFFCURVE",
"363 119 OFFCURVE",
"323 119 CURVE SMOOTH",
"255 119 OFFCURVE",
"201 161 OFFCURVE",
"201 243 CURVE SMOOTH",
"201 325 OFFCURVE",
"257 367 OFFCURVE"
);
}
);
width = 492;
}
);
unicode = 00A2;
},
{
glyphname = sterling;
lastChange = "2017-09-02 22:18:06 +0000";
layers = (
{
layerId = "95F0E3FF-6822-4CFD-805E-5B95C02D9EC6";
paths = (
{
closed = 1;
nodes = (
"55 371 LINE",
"48 357 OFFCURVE",
"38 333 OFFCURVE",
"38 308 CURVE SMOOTH",
"38 258 OFFCURVE",
"61 240 OFFCURVE",
"95 240 CURVE SMOOTH",
"116 240 LINE",
"116 229 LINE SMOOTH",
"116 153 OFFCURVE",
"89 118 OFFCURVE",
"36 94 CURVE",
"35 88 OFFCURVE",
"35 85 OFFCURVE",
"35 79 CURVE SMOOTH",
"35 29 OFFCURVE",
"65 0 OFFCURVE",
"100 0 CURVE SMOOTH",
"431 0 LINE SMOOTH",
"466 0 OFFCURVE",
"489 19 OFFCURVE",
"489 67 CURVE SMOOTH",
"489 93 OFFCURVE",
"480 118 OFFCURVE",
"472 132 CURVE",
"251 132 LINE",
"271 159 OFFCURVE",
"281 192 OFFCURVE",
"281 227 CURVE SMOOTH",
"281 240 LINE",
"361 240 LINE SMOOTH",
"395 240 OFFCURVE",
"418 258 OFFCURVE",
"418 308 CURVE SMOOTH",
"418 333 OFFCURVE",
"408 357 OFFCURVE",
"401 371 CURVE",
"270 371 LINE",
"268 382 OFFCURVE",
"268 392 OFFCURVE",
"268 403 CURVE SMOOTH",
"268 464 OFFCURVE",
"303 487 OFFCURVE",
"360 487 CURVE SMOOTH",
"396 487 OFFCURVE",
"419 479 OFFCURVE",
"442 467 CURVE",
"457 477 OFFCURVE",
"471 506 OFFCURVE",
"471 532 CURVE SMOOTH",
"471 592 OFFCURVE",
"422 623 OFFCURVE",
"332 623 CURVE SMOOTH",
"206 623 OFFCURVE",
"101 558 OFFCURVE",
"101 409 CURVE SMOOTH",
"101 396 OFFCURVE",
"102 384 OFFCURVE",
"104 371 CURVE"
);
}
);
width = 504;
}
);
unicode = 00A3;
},
{
glyphname = currency;
lastChange = "2017-09-02 22:18:06 +0000";
layers = (
{
layerId = "95F0E3FF-6822-4CFD-805E-5B95C02D9EC6";
paths = (
{
closed = 1;
nodes = (
"493 292 CURVE",
"493 337 OFFCURVE",
"480 376 OFFCURVE",
"457 407 CURVE",
"464 416 LINE SMOOTH",
"481 440 OFFCURVE",
"494 459 OFFCURVE",
"494 478 CURVE SMOOTH",
"494 506 OFFCURVE",
"465 524 OFFCURVE",
"424 532 CURVE",
"378 472 LINE",
"349 485 OFFCURVE",
"315 493 OFFCURVE",
"279 493 CURVE SMOOTH",
"245 493 OFFCURVE",
"213 487 OFFCURVE",
"185 475 CURVE",
"179 483 LINE SMOOTH",
"161 505 OFFCURVE",
"142 528 OFFCURVE",
"118 528 CURVE SMOOTH",
"93 528 OFFCURVE",
"70 512 OFFCURVE",
"55 478 CURVE",
"106 416 LINE",
"80 383 OFFCURVE",
"65 341 OFFCURVE",
"65 292 CURVE SMOOTH",
"65 242 OFFCURVE",
"80 200 OFFCURVE",
"106 167 CURVE",
"97 157 LINE SMOOTH",
"78 134 OFFCURVE",
"67 115 OFFCURVE",
"67 95 CURVE SMOOTH",
"67 67 OFFCURVE",
"96 49 OFFCURVE",
"137 41 CURVE",
"188 107 LINE",
"215 96 OFFCURVE",
"246 90 OFFCURVE",
"279 90 CURVE SMOOTH",
"313 90 OFFCURVE",
"346 96 OFFCURVE",
"375 108 CURVE",
"386 95 LINE SMOOTH",
"404 73 OFFCURVE",
"423 50 OFFCURVE",
"447 50 CURVE SMOOTH",
"472 50 OFFCURVE",
"495 66 OFFCURVE",
"510 100 CURVE",
"453 167 LINE",
"478 200 OFFCURVE",
"493 241 OFFCURVE"
);
},
{
closed = 1;
nodes = (
"207 292 CURVE",
"207 349 OFFCURVE",
"234 382 OFFCURVE",
"279 382 CURVE SMOOTH",
"324 382 OFFCURVE",
"352 349 OFFCURVE",
"352 292 CURVE SMOOTH",
"352 235 OFFCURVE",
"325 201 OFFCURVE",
"280 201 CURVE SMOOTH",
"235 201 OFFCURVE",
"207 234 OFFCURVE"
);
}
);
width = 565;
}
);
unicode = 00A4;
},
{
glyphname = yen;
lastChange = "2017-09-02 22:18:06 +0000";
layers = (
{
layerId = "95F0E3FF-6822-4CFD-805E-5B95C02D9EC6";
paths = (
{
closed = 1;
nodes = (
"505 254 LINE",
"532 254 OFFCURVE",
"551 268 OFFCURVE",
"551 307 CURVE SMOOTH",
"551 329 OFFCURVE",
"543 347 OFFCURVE",
"537 359 CURVE",
"475 359 LINE",
"549 484 OFFCURVE",
"559 514 OFFCURVE",
"559 538 CURVE SMOOTH",
"559 585 OFFCURVE",
"522 609 OFFCURVE",
"479 609 CURVE SMOOTH",
"452 609 OFFCURVE",
"422 602 OFFCURVE",
"399 591 CURVE",
"362 500 OFFCURVE",
"348 455 OFFCURVE",
"312 376 CURVE",
"306 376 LINE",
"227 536 LINE SMOOTH",
"199 593 OFFCURVE",
"171 609 OFFCURVE",
"120 609 CURVE SMOOTH",
"79 609 OFFCURVE",
"49 586 OFFCURVE",
"33 562 CURVE",
"55 505 OFFCURVE",
"97 430 OFFCURVE",
"140 359 CURVE",
"106 359 LINE SMOOTH",
"79 359 OFFCURVE",
"60 345 OFFCURVE",
"60 305 CURVE SMOOTH",
"60 285 OFFCURVE",
"68 265 OFFCURVE",
"74 254 CURVE"
);
},
{
closed = 1;
nodes = (
"219 102 LINE",
"219 76 LINE SMOOTH",
"219 9 OFFCURVE",
"250 -5 OFFCURVE",
"311 -5 CURVE SMOOTH",
"340 -5 OFFCURVE",
"376 0 OFFCURVE",
"390 4 CURVE",
"390 102 LINE",
"505 102 LINE SMOOTH",
"532 102 OFFCURVE",
"551 116 OFFCURVE",
"551 155 CURVE SMOOTH",
"551 177 OFFCURVE",
"543 195 OFFCURVE",
"537 207 CURVE",
"106 207 LINE SMOOTH",
"79 207 OFFCURVE",
"60 193 OFFCURVE",
"60 153 CURVE SMOOTH",
"60 133 OFFCURVE",
"68 113 OFFCURVE",
"74 102 CURVE"
);
}
);
width = 597;
}
);
unicode = 00A5;
},
{
glyphname = brokenbar;
lastChange = "2017-09-02 22:18:06 +0000";
layers = (
{
layerId = "95F0E3FF-6822-4CFD-805E-5B95C02D9EC6";
paths = (
{
closed = 1;
nodes = (
"216 612 LINE",
"216 671 OFFCURVE",
"185 683 OFFCURVE",
"132 683 CURVE SMOOTH",
"107 683 OFFCURVE",
"78 679 OFFCURVE",
"65 676 CURVE",
"65 393 LINE SMOOTH",
"65 334 OFFCURVE",
"96 323 OFFCURVE",
"149 323 CURVE SMOOTH",
"174 323 OFFCURVE",
"203 327 OFFCURVE",
"216 330 CURVE"
);
},
{
closed = 1;
nodes = (
"216 149 LINE",
"216 208 OFFCURVE",
"185 220 OFFCURVE",
"132 220 CURVE SMOOTH",
"107 220 OFFCURVE",
"78 216 OFFCURVE",
"65 213 CURVE",
"65 -70 LINE SMOOTH",
"65 -129 OFFCURVE",
"96 -140 OFFCURVE",
"149 -140 CURVE SMOOTH",
"174 -140 OFFCURVE",
"203 -136 OFFCURVE",
"216 -133 CURVE"
);
}
);
width = 293;
}
);
leftKerningGroup = bar;
rightKerningGroup = bar;
unicode = 00A6;
},
{
glyphname = section;
lastChange = "2017-09-02 22:18:06 +0000";
layers = (
{
layerId = "95F0E3FF-6822-4CFD-805E-5B95C02D9EC6";
paths = (
{
closed = 1;
nodes = (
"496 111 CURVE",
"496 147 OFFCURVE",
"481 184 OFFCURVE",
"458 206 CURVE",
"479 227 OFFCURVE",
"496 264 OFFCURVE",
"496 300 CURVE SMOOTH",
"496 381 OFFCURVE",
"440 435 OFFCURVE",
"319 453 CURVE SMOOTH",
"264 461 LINE SMOOTH",
"226 467 OFFCURVE",
"216 472 OFFCURVE",
"216 487 CURVE SMOOTH",
"216 508 OFFCURVE",
"241 518 OFFCURVE",
"285 518 CURVE SMOOTH",
"327 518 OFFCURVE",
"396 501 OFFCURVE",
"418 487 CURVE",
"435 502 OFFCURVE",
"448 524 OFFCURVE",
"448 554 CURVE SMOOTH",
"448 618 OFFCURVE",
"367 646 OFFCURVE",
"270 646 CURVE SMOOTH",
"139 646 OFFCURVE",
"50 589 OFFCURVE",
"50 494 CURVE SMOOTH",
"50 450 OFFCURVE",
"65 416 OFFCURVE",
"90 398 CURVE",
"65 374 OFFCURVE",
"50 341 OFFCURVE",
"50 305 CURVE SMOOTH",
"50 222 OFFCURVE",
"100 171 OFFCURVE",
"217 154 CURVE SMOOTH",
"276 145 LINE SMOOTH",
"314 139 OFFCURVE",
"328 132 OFFCURVE",
"328 114 CURVE SMOOTH",
"328 94 OFFCURVE",
"307 81 OFFCURVE",
"244 81 CURVE SMOOTH",
"179 81 OFFCURVE",
"129 101 OFFCURVE",
"91 122 CURVE",
"73 108 OFFCURVE",
"57 86 OFFCURVE",
"57 54 CURVE SMOOTH",
"57 -16 OFFCURVE",
"138 -47 OFFCURVE",
"251 -47 CURVE SMOOTH",
"412 -47 OFFCURVE",
"496 14 OFFCURVE"
);
},
{
closed = 1;
nodes = (
"208 310 CURVE",
"208 324 OFFCURVE",
"212 336 OFFCURVE",
"220 344 CURVE",
"285 332 LINE SMOOTH",
"323 325 OFFCURVE",
"338 307 OFFCURVE",
"338 289 CURVE SMOOTH",
"338 275 OFFCURVE",
"332 263 OFFCURVE",
"326 255 CURVE",
"256 269 LINE SMOOTH",
"219 276 OFFCURVE",
"208 295 OFFCURVE"
);
}
);
width = 546;
}
);
unicode = 00A7;
},
{
glyphname = dieresis;
lastChange = "2017-09-02 22:18:06 +0000";
layers = (
{
layerId = "95F0E3FF-6822-4CFD-805E-5B95C02D9EC6";
paths = (
{
closed = 1;
nodes = (
"-14 637 CURVE",
"-14 590 OFFCURVE",
"24 551 OFFCURVE",
"73 551 CURVE SMOOTH",
"128 551 OFFCURVE",
"163 590 OFFCURVE",
"163 637 CURVE SMOOTH",
"163 683 OFFCURVE",
"128 723 OFFCURVE",
"73 723 CURVE SMOOTH",
"24 723 OFFCURVE",
"-14 683 OFFCURVE"
);
},
{
closed = 1;
nodes = (
"210 637 CURVE",
"210 590 OFFCURVE",
"244 551 OFFCURVE",
"299 551 CURVE SMOOTH",
"350 551 OFFCURVE",
"387 590 OFFCURVE",
"387 637 CURVE SMOOTH",
"387 683 OFFCURVE",
"350 723 OFFCURVE",
"299 723 CURVE SMOOTH",
"244 723 OFFCURVE",
"210 683 OFFCURVE"
);
}
);
width = 374;
}
);
unicode = 00A8;
},
{
glyphname = copyright;
lastChange = "2017-09-02 22:18:06 +0000";
layers = (
{
layerId = "95F0E3FF-6822-4CFD-805E-5B95C02D9EC6";
paths = (
{
closed = 1;
nodes = (
"35 308 CURVE",
"35 133 OFFCURVE",
"163 -2 OFFCURVE",
"355 -2 CURVE SMOOTH",
"546 -2 OFFCURVE",
"678 133 OFFCURVE",
"678 308 CURVE SMOOTH",
"678 482 OFFCURVE",
"546 619 OFFCURVE",
"355 619 CURVE SMOOTH",
"163 619 OFFCURVE",
"35 482 OFFCURVE"
);
},
{
closed = 1;
nodes = (
"355 529 CURVE",
"488 529 OFFCURVE",
"568 435 OFFCURVE",
"568 308 CURVE SMOOTH",
"568 180 OFFCURVE",
"488 90 OFFCURVE",
"355 90 CURVE SMOOTH",
"223 90 OFFCURVE",
"142 180 OFFCURVE",
"142 308 CURVE SMOOTH",
"142 435 OFFCURVE",
"223 529 OFFCURVE"
);
},
{
closed = 1;
nodes = (
"394 373 CURVE",
"417 373 OFFCURVE",
"435 366 OFFCURVE",
"447 359 CURVE",
"459 371 OFFCURVE",
"467 388 OFFCURVE",
"467 408 CURVE SMOOTH",
"467 441 OFFCURVE",
"430 466 OFFCURVE",
"375 466 CURVE SMOOTH",
"301 466 OFFCURVE",
"215 416 OFFCURVE",
"215 313 CURVE SMOOTH",
"215 212 OFFCURVE",
"283 155 OFFCURVE",
"371 155 CURVE SMOOTH",
"431 155 OFFCURVE",
"472 182 OFFCURVE",
"472 212 CURVE SMOOTH",
"472 233 OFFCURVE",
"463 250 OFFCURVE",
"449 262 CURVE",
"436 255 OFFCURVE",
"418 247 OFFCURVE",
"393 247 CURVE SMOOTH",
"356 247 OFFCURVE",
"329 271 OFFCURVE",
"329 312 CURVE SMOOTH",
"329 350 OFFCURVE",
"358 373 OFFCURVE"
);
}
);
width = 713;
}
);
leftKerningGroup = copyright;
rightKerningGroup = copyright;
unicode = 00A9;
},
{
glyphname = ordfeminine;
lastChange = "2017-09-02 22:18:06 +0000";
layers = (
{
layerId = "95F0E3FF-6822-4CFD-805E-5B95C02D9EC6";
paths = (
{
closed = 1;
nodes = (
"165 401 CURVE",
"132 401 OFFCURVE",
"120 412 OFFCURVE",
"120 429 CURVE SMOOTH",
"120 447 OFFCURVE",
"137 455 OFFCURVE",
"162 457 CURVE SMOOTH",
"209 461 LINE",
"209 409 LINE",
"201 404 OFFCURVE",
"179 401 OFFCURVE"
);
},
{
closed = 1;
nodes = (
"159 656 CURVE",
"128 656 OFFCURVE",
"92 652 OFFCURVE",
"66 642 CURVE SMOOTH",
"44 633 OFFCURVE",
"33 620 OFFCURVE",
"33 598 CURVE SMOOTH",
"33 580 OFFCURVE",
"43 563 OFFCURVE",
"54 556 CURVE",
"77 566 OFFCURVE",
"111 573 OFFCURVE",
"144 573 CURVE SMOOTH",
"185 573 OFFCURVE",
"208 563 OFFCURVE",
"208 538 CURVE SMOOTH",
"208 534 LINE",
"123 525 LINE SMOOTH",
"50 517 OFFCURVE",
"14 485 OFFCURVE",
"14 425 CURVE SMOOTH",
"14 355 OFFCURVE",
"73 320 OFFCURVE",
"165 320 CURVE SMOOTH",
"215 320 OFFCURVE",
"255 328 OFFCURVE",
"283 346 CURVE SMOOTH",
"300 356 OFFCURVE",
"315 369 OFFCURVE",
"315 391 CURVE SMOOTH",
"315 537 LINE SMOOTH",
"315 618 OFFCURVE",
"253 656 OFFCURVE"
);
}
);
width = 355;
}
);
leftKerningGroup = ordmasculine;
rightKerningGroup = ordmasculine;
unicode = 00AA;
},
{
glyphname = guillemotleft;
lastChange = "2017-09-02 22:18:06 +0000";
layers = (
{
layerId = "95F0E3FF-6822-4CFD-805E-5B95C02D9EC6";
paths = (
{
closed = 1;
nodes = (
"418 221 LINE",
"484 282 LINE SMOOTH",
"523 318 OFFCURVE",
"530 335 OFFCURVE",
"530 365 CURVE SMOOTH",
"530 397 OFFCURVE",
"503 427 OFFCURVE",
"453 441 CURVE",
"306 299 LINE SMOOTH",
"290 284 OFFCURVE",
"278 260 OFFCURVE",
"278 217 CURVE SMOOTH",
"278 196 OFFCURVE",
"285 171 OFFCURVE",
"293 158 CURVE",
"390 60 LINE SMOOTH",
"413 36 OFFCURVE",
"435 19 OFFCURVE",
"464 19 CURVE SMOOTH",
"517 19 OFFCURVE",
"542 56 OFFCURVE",
"542 94 CURVE"
);
},
{
closed = 1;
nodes = (
"169 221 LINE",
"235 282 LINE SMOOTH",
"274 318 OFFCURVE",
"281 335 OFFCURVE",
"281 365 CURVE SMOOTH",
"281 397 OFFCURVE",
"254 427 OFFCURVE",
"204 441 CURVE",
"57 299 LINE SMOOTH",
"41 284 OFFCURVE",
"29 260 OFFCURVE",
"29 217 CURVE SMOOTH",
"29 196 OFFCURVE",
"36 171 OFFCURVE",
"44 158 CURVE",
"141 60 LINE SMOOTH",
"164 36 OFFCURVE",
"186 19 OFFCURVE",
"215 19 CURVE SMOOTH",
"268 19 OFFCURVE",
"293 56 OFFCURVE",
"293 94 CURVE"
);
}
);
width = 574;
}
);
unicode = 00AB;
},
{
glyphname = logicalnot;
lastChange = "2017-09-02 22:18:06 +0000";
layers = (
{
layerId = "95F0E3FF-6822-4CFD-805E-5B95C02D9EC6";
paths = (
{
closed = 1;
nodes = (
"85 356 LINE SMOOTH",
"50 356 OFFCURVE",
"26 336 OFFCURVE",
"26 288 CURVE SMOOTH",
"26 262 OFFCURVE",
"36 236 OFFCURVE",
"44 222 CURVE",
"297 222 LINE",
"297 177 LINE SMOOTH",
"297 115 OFFCURVE",
"326 102 OFFCURVE",
"382 102 CURVE SMOOTH",
"408 102 OFFCURVE",
"442 106 OFFCURVE",
"455 110 CURVE",
"455 281 LINE SMOOTH",
"455 327 OFFCURVE",
"426 356 OFFCURVE",
"380 356 CURVE SMOOTH"
);
}
);
width = 481;
}
);
unicode = 00AC;
},
{
glyphname = uni00AD;
lastChange = "2017-09-02 22:18:06 +0000";
layers = (
{
layerId = "95F0E3FF-6822-4CFD-805E-5B95C02D9EC6";
paths = (
{
closed = 1;
nodes = (
"263 186 LINE SMOOTH",
"299 186 OFFCURVE",
"324 207 OFFCURVE",
"324 256 CURVE SMOOTH",
"324 283 OFFCURVE",
"313 309 OFFCURVE",
"305 323 CURVE",
"91 323 LINE SMOOTH",
"55 323 OFFCURVE",
"30 302 OFFCURVE",
"30 253 CURVE SMOOTH",
"30 226 OFFCURVE",
"40 200 OFFCURVE",
"49 186 CURVE"
);
}
);
width = 354;
}
);
unicode = 00AD;
},
{
glyphname = registered;
lastChange = "2017-09-02 22:18:06 +0000";
layers = (
{
layerId = "95F0E3FF-6822-4CFD-805E-5B95C02D9EC6";
paths = (
{
closed = 1;
nodes = (
"37 372 CURVE",
"37 225 OFFCURVE",
"146 110 OFFCURVE",
"309 110 CURVE SMOOTH",
"469 110 OFFCURVE",
"582 225 OFFCURVE",
"582 372 CURVE SMOOTH",
"582 519 OFFCURVE",
"469 635 OFFCURVE",
"309 635 CURVE SMOOTH",
"146 635 OFFCURVE",
"37 519 OFFCURVE"
);
},
{
closed = 1;
nodes = (
"127 372 CURVE",
"127 480 OFFCURVE",
"197 559 OFFCURVE",
"309 559 CURVE SMOOTH",
"421 559 OFFCURVE",
"489 480 OFFCURVE",
"489 372 CURVE SMOOTH",
"489 264 OFFCURVE",
"421 188 OFFCURVE",
"309 188 CURVE SMOOTH",
"197 188 OFFCURVE",
"127 264 OFFCURVE"
);
},
{
closed = 1;
nodes = (
"300 336 LINE",
"332 286 LINE SMOOTH",
"344 267 OFFCURVE",
"355 255 OFFCURVE",
"379 255 CURVE SMOOTH",
"396 255 OFFCURVE",
"414 265 OFFCURVE",
"419 283 CURVE",
"408 301 OFFCURVE",
"388 325 OFFCURVE",
"369 351 CURVE",
"393 363 OFFCURVE",
"412 385 OFFCURVE",
"412 419 CURVE SMOOTH",
"412 472 OFFCURVE",
"375 504 OFFCURVE",
"302 504 CURVE SMOOTH",
"276 504 OFFCURVE",
"251 501 OFFCURVE",
"232 495 CURVE SMOOTH",
"222 491 OFFCURVE",
"216 486 OFFCURVE",
"216 476 CURVE SMOOTH",
"216 289 LINE SMOOTH",
"216 262 OFFCURVE",
"229 257 OFFCURVE",
"252 257 CURVE SMOOTH",
"269 257 OFFCURVE",
"282 259 OFFCURVE",
"290 260 CURVE",
"290 336 LINE"
);
},
{
closed = 1;
nodes = (
"290 390 LINE",
"290 446 LINE",
"292 446 OFFCURVE",
"297 447 OFFCURVE",
"304 447 CURVE SMOOTH",
"327 447 OFFCURVE",
"338 439 OFFCURVE",
"338 419 CURVE SMOOTH",
"338 398 OFFCURVE",
"325 390 OFFCURVE",
"305 390 CURVE SMOOTH"
);
}
);
width = 619;
}
);
unicode = 00AE;
},
{
glyphname = macron;
lastChange = "2017-09-02 22:18:06 +0000";
layers = (
{
layerId = "95F0E3FF-6822-4CFD-805E-5B95C02D9EC6";
paths = (
{
closed = 1;
nodes = (
"296 564 LINE SMOOTH",
"329 564 OFFCURVE",
"350 581 OFFCURVE",
"350 630 CURVE SMOOTH",
"350 654 OFFCURVE",
"345 678 OFFCURVE",
"334 692 CURVE",
"69 692 LINE SMOOTH",
"36 692 OFFCURVE",
"14 675 OFFCURVE",
"14 626 CURVE SMOOTH",
"14 602 OFFCURVE",
"24 578 OFFCURVE",
"30 564 CURVE"
);
}
);
width = 321;
}
);
unicode = 00AF;
},
{
glyphname = degree;
lastChange = "2017-09-02 22:18:06 +0000";
layers = (
{
layerId = "95F0E3FF-6822-4CFD-805E-5B95C02D9EC6";
paths = (
{
closed = 1;
nodes = (
"178 363 CURVE",
"278 363 OFFCURVE",
"345 426 OFFCURVE",
"345 511 CURVE SMOOTH",
"345 599 OFFCURVE",
"282 660 OFFCURVE",
"182 660 CURVE SMOOTH",
"79 660 OFFCURVE",
"16 599 OFFCURVE",
"16 511 CURVE SMOOTH",
"16 426 OFFCURVE",
"76 363 OFFCURVE"
);
},
{
closed = 1;
nodes = (
"179 458 CURVE",
"151 458 OFFCURVE",
"134 478 OFFCURVE",
"134 511 CURVE SMOOTH",
"134 546 OFFCURVE",
"155 564 OFFCURVE",
"182 564 CURVE SMOOTH",
"210 564 OFFCURVE",
"227 543 OFFCURVE",
"227 511 CURVE SMOOTH",
"227 478 OFFCURVE",
"207 458 OFFCURVE"
);
}
);
width = 361;
}
);
unicode = 00B0;
},
{
glyphname = plusminus;
lastChange = "2017-09-02 22:18:06 +0000";
layers = (
{
layerId = "95F0E3FF-6822-4CFD-805E-5B95C02D9EC6";
paths = (
{
closed = 1;
nodes = (
"413 -3 LINE",
"448 -3 OFFCURVE",
"471 18 OFFCURVE",
"471 65 CURVE SMOOTH",
"471 90 OFFCURVE",
"462 115 OFFCURVE",
"455 131 CURVE",
"95 131 LINE SMOOTH",
"59 131 OFFCURVE",
"36 110 OFFCURVE",
"36 62 CURVE SMOOTH",
"36 38 OFFCURVE",
"43 12 OFFCURVE",
"52 -3 CURVE"
);
},
{
closed = 1;
nodes = (
"327 324 LINE",
"413 324 LINE SMOOTH",
"448 324 OFFCURVE",
"471 345 OFFCURVE",
"471 392 CURVE SMOOTH",
"471 417 OFFCURVE",
"462 442 OFFCURVE",
"455 458 CURVE",
"327 458 LINE",
"327 543 LINE SMOOTH",
"327 603 OFFCURVE",
"297 616 OFFCURVE",
"244 616 CURVE SMOOTH",
"218 616 OFFCURVE",
"186 610 OFFCURVE",
"173 606 CURVE",
"173 458 LINE",
"85 458 LINE SMOOTH",
"49 458 OFFCURVE",
"26 437 OFFCURVE",
"26 389 CURVE SMOOTH",
"26 365 OFFCURVE",
"33 339 OFFCURVE",
"42 324 CURVE",
"173 324 LINE",
"173 234 LINE SMOOTH",
"173 175 OFFCURVE",
"201 163 OFFCURVE",
"256 163 CURVE SMOOTH",
"282 163 OFFCURVE",
"316 167 OFFCURVE",
"327 172 CURVE"
);
}
);
width = 497;
}
);
unicode = 00B1;
},
{
glyphname = twosuperior;
lastChange = "2017-09-02 22:18:06 +0000";
layers = (
{
layerId = "95F0E3FF-6822-4CFD-805E-5B95C02D9EC6";
paths = (
{
closed = 1;
nodes = (
"128 621 CURVE SMOOTH",
"70 621 OFFCURVE",
"33 603 OFFCURVE",
"33 567 CURVE SMOOTH",
"33 547 OFFCURVE",
"42 531 OFFCURVE",
"53 522 CURVE",
"68 531 OFFCURVE",
"90 542 OFFCURVE",
"119 542 CURVE SMOOTH",
"140 542 OFFCURVE",
"154 533 OFFCURVE",
"154 516 CURVE SMOOTH",
"154 502 OFFCURVE",
"147 490 OFFCURVE",
"108 454 CURVE SMOOTH",
"36 388 LINE",
"28 378 OFFCURVE",
"22 363 OFFCURVE",
"22 340 CURVE SMOOTH",
"22 319 OFFCURVE",
"32 303 OFFCURVE",
"46 293 CURVE",
"223 293 LINE SMOOTH",
"244 293 OFFCURVE",
"258 304 OFFCURVE",
"258 333 CURVE SMOOTH",
"258 348 OFFCURVE",
"252 363 OFFCURVE",
"248 372 CURVE",
"144 372 LINE",
"182 405 LINE SMOOTH",
"222 440 OFFCURVE",
"253 478 OFFCURVE",
"253 519 CURVE SMOOTH",
"253 579 OFFCURVE",
"208 621 OFFCURVE"
);
}
);
width = 280;
}
);
unicode = 00B2;
},
{
glyphname = threesuperior;
lastChange = "2017-09-02 22:18:06 +0000";
layers = (
{
layerId = "95F0E3FF-6822-4CFD-805E-5B95C02D9EC6";
paths = (
{
closed = 1;
nodes = (
"75 495 LINE",
"69 486 OFFCURVE",
"65 474 OFFCURVE",
"65 456 CURVE SMOOTH",
"65 440 OFFCURVE",
"70 427 OFFCURVE",
"75 419 CURVE",
"127 419 LINE SMOOTH",
"154 419 OFFCURVE",
"165 411 OFFCURVE",
"165 393 CURVE SMOOTH",
"165 376 OFFCURVE",
"150 366 OFFCURVE",
"119 366 CURVE SMOOTH",
"87 366 OFFCURVE",
"65 375 OFFCURVE",
"44 387 CURVE",
"28 380 OFFCURVE",
"17 362 OFFCURVE",
"17 343 CURVE SMOOTH",
"17 310 OFFCURVE",
"57 285 OFFCURVE",
"131 285 CURVE SMOOTH",
"209 285 OFFCURVE",
"264 324 OFFCURVE",
"264 383 CURVE SMOOTH",
"264 424 OFFCURVE",
"242 450 OFFCURVE",
"215 461 CURVE",
"238 474 OFFCURVE",
"257 499 OFFCURVE",
"257 527 CURVE SMOOTH",
"257 585 OFFCURVE",
"211 622 OFFCURVE",
"131 622 CURVE SMOOTH",
"67 622 OFFCURVE",
"26 605 OFFCURVE",
"26 569 CURVE SMOOTH",
"26 550 OFFCURVE",
"35 535 OFFCURVE",
"50 525 CURVE",
"67 534 OFFCURVE",
"89 543 OFFCURVE",
"115 543 CURVE SMOOTH",
"143 543 OFFCURVE",
"158 534 OFFCURVE",
"158 517 CURVE SMOOTH",
"158 501 OFFCURVE",
"147 495 OFFCURVE",
"125 495 CURVE SMOOTH"
);
}
);
width = 286;
}
);
unicode = 00B3;
},
{
glyphname = acute;
lastChange = "2017-09-02 22:18:06 +0000";
layers = (
{
layerId = "95F0E3FF-6822-4CFD-805E-5B95C02D9EC6";
paths = (
{
closed = 1;
nodes = (
"49 645 LINE SMOOTH",
"31 632 OFFCURVE",
"23 615 OFFCURVE",
"23 599 CURVE SMOOTH",
"23 567 OFFCURVE",
"55 534 OFFCURVE",
"95 530 CURVE",
"224 598 LINE SMOOTH",
"267 621 OFFCURVE",
"284 642 OFFCURVE",
"284 676 CURVE SMOOTH",
"284 713 OFFCURVE",
"254 744 OFFCURVE",
"185 744 CURVE"
);
}
);
width = 298;
}
);
unicode = 00B4;
},
{
glyphname = mu;
lastChange = "2017-09-02 22:18:06 +0000";
layers = (
{
layerId = "95F0E3FF-6822-4CFD-805E-5B95C02D9EC6";
paths = (
{
closed = 1;
nodes = (
"53 -98 LINE SMOOTH",
"53 -165 OFFCURVE",
"87 -178 OFFCURVE",
"146 -178 CURVE SMOOTH",
"176 -178 OFFCURVE",
"210 -172 OFFCURVE",
"223 -168 CURVE",
"223 2 LINE",
"251 -9 OFFCURVE",
"287 -16 OFFCURVE",
"324 -16 CURVE SMOOTH",
"411 -16 OFFCURVE",
"460 6 OFFCURVE",
"491 28 CURVE SMOOTH",
"516 46 OFFCURVE",
"531 70 OFFCURVE",
"531 103 CURVE SMOOTH",
"531 408 LINE SMOOTH",
"531 475 OFFCURVE",
"496 488 OFFCURVE",
"437 488 CURVE SMOOTH",
"407 488 OFFCURVE",
"374 483 OFFCURVE",
"361 479 CURVE",
"361 129 LINE",
"346 122 OFFCURVE",
"327 117 OFFCURVE",
"302 117 CURVE SMOOTH",
"260 117 OFFCURVE",
"223 134 OFFCURVE",
"223 188 CURVE SMOOTH",
"223 408 LINE SMOOTH",
"223 475 OFFCURVE",
"188 488 OFFCURVE",
"129 488 CURVE SMOOTH",
"99 488 OFFCURVE",
"66 483 OFFCURVE",
"53 479 CURVE"
);
}
);
width = 584;
}
);
unicode = 00B5;
},
{
glyphname = paragraph;
lastChange = "2017-09-02 22:18:06 +0000";
layers = (
{
layerId = "95F0E3FF-6822-4CFD-805E-5B95C02D9EC6";
paths = (
{
closed = 1;
nodes = (
"253 607 LINE SMOOTH",
"126 607 OFFCURVE",
"16 536 OFFCURVE",
"16 391 CURVE SMOOTH",
"16 253 OFFCURVE",
"107 191 OFFCURVE",
"193 191 CURVE SMOOTH",
"237 191 OFFCURVE",
"256 204 OFFCURVE",
"256 221 CURVE SMOOTH",
"256 464 LINE",
"325 464 LINE",
"325 2 LINE SMOOTH",
"325 -65 OFFCURVE",
"360 -78 OFFCURVE",
"419 -78 CURVE SMOOTH",
"448 -78 OFFCURVE",
"481 -72 OFFCURVE",
"495 -69 CURVE",
"495 527 LINE SMOOTH",
"495 594 OFFCURVE",
"460 607 OFFCURVE",
"401 607 CURVE SMOOTH"
);
}
);
width = 550;
}
);
unicode = 00B6;
},
{
glyphname = periodcentered;
lastChange = "2017-09-02 22:18:06 +0000";
layers = (
{
layerId = "95F0E3FF-6822-4CFD-805E-5B95C02D9EC6";
paths = (
{
closed = 1;
nodes = (
"20 301 CURVE SMOOTH",
"20 246 OFFCURVE",
"58 203 OFFCURVE",
"117 203 CURVE SMOOTH",
"176 203 OFFCURVE",
"214 246 OFFCURVE",
"214 301 CURVE SMOOTH",
"214 356 OFFCURVE",
"176 399 OFFCURVE",
"117 399 CURVE SMOOTH",
"58 399 OFFCURVE",
"20 356 OFFCURVE"
);
}
);
width = 234;
}
);
unicode = 00B7;
},
{
glyphname = cedilla;
lastChange = "2017-09-02 22:18:06 +0000";
layers = (
{
layerId = "95F0E3FF-6822-4CFD-805E-5B95C02D9EC6";
paths = (
{
closed = 1;
nodes = (
"33 5 LINE",
"45 -8 OFFCURVE",
"52 -31 OFFCURVE",
"52 -44 CURVE SMOOTH",
"52 -75 OFFCURVE",
"27 -94 OFFCURVE",
"-16 -96 CURVE",
"-19 -106 OFFCURVE",
"-20 -116 OFFCURVE",
"-20 -126 CURVE SMOOTH",
"-20 -177 OFFCURVE",
"19 -205 OFFCURVE",
"73 -205 CURVE SMOOTH",
"149 -205 OFFCURVE",
"194 -155 OFFCURVE",
"194 -87 CURVE SMOOTH",
"194 -40 OFFCURVE",
"161 14 OFFCURVE",
"111 38 CURVE"
);
}
);
width = 195;
}
);
unicode = 00B8;
},
{
glyphname = onesuperior;
lastChange = "2017-09-02 22:18:06 +0000";
layers = (
{
layerId = "95F0E3FF-6822-4CFD-805E-5B95C02D9EC6";
paths = (
{
closed = 1;
nodes = (
"180 568 LINE SMOOTH",
"180 599 OFFCURVE",
"159 621 OFFCURVE",
"127 621 CURVE SMOOTH",
"111 621 LINE",
"39 595 LINE SMOOTH",
"16 586 OFFCURVE",
"7 570 OFFCURVE",
"7 551 CURVE SMOOTH",
"7 523 OFFCURVE",
"26 506 OFFCURVE",
"41 497 CURVE",
"82 509 LINE",
"82 334 LINE SMOOTH",
"82 296 OFFCURVE",
"102 289 OFFCURVE",
"136 289 CURVE SMOOTH",
"153 289 OFFCURVE",
"172 292 OFFCURVE",
"180 293 CURVE"
);
}
);
width = 222;
}
);
unicode = 00B9;
},
{
glyphname = ordmasculine;
lastChange = "2017-09-02 22:18:06 +0000";
layers = (
{
layerId = "95F0E3FF-6822-4CFD-805E-5B95C02D9EC6";
paths = (
{
closed = 1;
nodes = (
"365 489 CURVE",
"365 590 OFFCURVE",
"297 656 OFFCURVE",
"195 656 CURVE SMOOTH",
"93 656 OFFCURVE",
"25 591 OFFCURVE",
"25 489 CURVE SMOOTH",
"25 384 OFFCURVE",
"93 321 OFFCURVE",
"195 321 CURVE SMOOTH",
"297 321 OFFCURVE",
"365 381 OFFCURVE"
);
},
{
closed = 1;
nodes = (
"138 489 CURVE",
"138 541 OFFCURVE",
"159 570 OFFCURVE",
"195 570 CURVE SMOOTH",
"231 570 OFFCURVE",
"252 540 OFFCURVE",
"252 489 CURVE SMOOTH",
"252 437 OFFCURVE",
"231 407 OFFCURVE",
"196 407 CURVE SMOOTH",
"160 407 OFFCURVE",
"138 436 OFFCURVE"
);
}
);
width = 396;
}
);
leftKerningGroup = ordmasculine;
rightKerningGroup = ordmasculine;
unicode = 00BA;
},
{
glyphname = guillemotright;
lastChange = "2017-09-02 22:18:06 +0000";
layers = (
{
layerId = "95F0E3FF-6822-4CFD-805E-5B95C02D9EC6";
paths = (
{
closed = 1;
nodes = (
"153 239 LINE",
"87 178 LINE SMOOTH",
"48 142 OFFCURVE",
"41 125 OFFCURVE",
"41 95 CURVE SMOOTH",
"41 63 OFFCURVE",
"68 33 OFFCURVE",
"118 19 CURVE",
"265 159 LINE SMOOTH",
"281 174 OFFCURVE",
"293 198 OFFCURVE",
"293 241 CURVE SMOOTH",
"293 262 OFFCURVE",
"286 287 OFFCURVE",
"278 300 CURVE",
"181 400 LINE SMOOTH",
"158 424 OFFCURVE",
"136 441 OFFCURVE",
"107 441 CURVE SMOOTH",
"54 441 OFFCURVE",
"29 404 OFFCURVE",
"29 366 CURVE"
);
},
{
closed = 1;
nodes = (
"402 239 LINE",
"336 178 LINE SMOOTH",
"297 142 OFFCURVE",
"290 125 OFFCURVE",
"290 95 CURVE SMOOTH",
"290 63 OFFCURVE",
"317 33 OFFCURVE",
"367 19 CURVE",
"514 159 LINE SMOOTH",
"530 174 OFFCURVE",
"542 198 OFFCURVE",
"542 241 CURVE SMOOTH",
"542 262 OFFCURVE",
"535 287 OFFCURVE",
"527 300 CURVE",
"430 400 LINE SMOOTH",
"407 424 OFFCURVE",
"385 441 OFFCURVE",
"356 441 CURVE SMOOTH",
"303 441 OFFCURVE",
"278 404 OFFCURVE",
"278 366 CURVE"
);
}
);
width = 574;
}
);
unicode = 00BB;
},
{
glyphname = onequarter;
lastChange = "2017-09-02 22:18:06 +0000";
layers = (
{
layerId = "95F0E3FF-6822-4CFD-805E-5B95C02D9EC6";
paths = (
{
closed = 1;
nodes = (
"180 568 LINE",
"180 599 OFFCURVE",
"159 621 OFFCURVE",
"127 621 CURVE SMOOTH",
"111 621 LINE",
"39 595 LINE SMOOTH",
"16 586 OFFCURVE",
"7 570 OFFCURVE",
"7 551 CURVE SMOOTH",
"7 523 OFFCURVE",
"26 506 OFFCURVE",
"41 497 CURVE",
"82 509 LINE",
"82 334 LINE SMOOTH",
"82 296 OFFCURVE",
"102 289 OFFCURVE",
"136 289 CURVE SMOOTH",
"153 289 OFFCURVE",
"172 292 OFFCURVE",
"180 293 CURVE"
);
},
{
closed = 1;
nodes = (
"94 107 LINE",
"78 83 OFFCURVE",
"67 64 OFFCURVE",
"67 44 CURVE",
"69 16 OFFCURVE",
"98 -1 OFFCURVE",
"139 -7 CURVE",
"490 503 LINE SMOOTH",
"506 527 OFFCURVE",
"517 546 OFFCURVE",
"517 566 CURVE",
"515 594 OFFCURVE",
"486 611 OFFCURVE",
"445 617 CURVE"
);
},
{
closed = 1;
nodes = (
"573 273 LINE SMOOTH",
"573 312 OFFCURVE",
"538 323 OFFCURVE",
"506 323 CURVE SMOOTH",
"486 323 OFFCURVE",
"468 319 OFFCURVE",
"455 316 CURVE",
"335 157 LINE",
"327 142 OFFCURVE",
"321 129 OFFCURVE",
"321 111 CURVE SMOOTH",
"321 86 OFFCURVE",
"334 69 OFFCURVE",
"351 61 CURVE",
"480 61 LINE",
"480 39 LINE SMOOTH",
"480 3 OFFCURVE",
"499 -4 OFFCURVE",
"531 -4 CURVE SMOOTH",
"547 -4 OFFCURVE",
"565 -2 OFFCURVE",
"573 0 CURVE",
"573 61 LINE",
"592 61 LINE SMOOTH",
"611 61 OFFCURVE",
"625 72 OFFCURVE",
"625 100 CURVE SMOOTH",
"625 116 OFFCURVE",
"620 131 OFFCURVE",
"616 139 CURVE",
"573 139 LINE"
);
},
{
closed = 1;
nodes = (
"483 139 LINE",
"424 139 LINE",
"483 227 LINE"
);
}
);
width = 609;
}
);
leftKerningGroup = onequarter;
rightKerningGroup = onequarter;
unicode = 00BC;
},
{
glyphname = onehalf;
lastChange = "2017-09-02 22:18:06 +0000";
layers = (
{
layerId = "95F0E3FF-6822-4CFD-805E-5B95C02D9EC6";
paths = (
{
closed = 1;
nodes = (
"180 568 LINE",
"180 599 OFFCURVE",
"159 621 OFFCURVE",
"127 621 CURVE SMOOTH",
"111 621 LINE",
"39 595 LINE SMOOTH",
"16 586 OFFCURVE",
"7 570 OFFCURVE",
"7 551 CURVE SMOOTH",
"7 523 OFFCURVE",
"26 506 OFFCURVE",
"41 497 CURVE",
"82 509 LINE",
"82 334 LINE SMOOTH",
"82 296 OFFCURVE",
"102 289 OFFCURVE",
"136 289 CURVE SMOOTH",
"153 289 OFFCURVE",
"172 292 OFFCURVE",
"180 293 CURVE"
);
},
{
closed = 1;
nodes = (
"94 107 LINE",
"78 83 OFFCURVE",
"67 64 OFFCURVE",
"67 44 CURVE",
"69 16 OFFCURVE",
"98 -1 OFFCURVE",
"139 -7 CURVE",
"490 503 LINE SMOOTH",
"506 527 OFFCURVE",
"517 546 OFFCURVE",
"517 566 CURVE",
"515 594 OFFCURVE",
"486 611 OFFCURVE",
"445 617 CURVE"
);
},
{
closed = 1;
nodes = (
"484 330 CURVE SMOOTH",
"426 330 OFFCURVE",
"389 312 OFFCURVE",
"389 276 CURVE SMOOTH",
"389 256 OFFCURVE",
"398 240 OFFCURVE",
"409 231 CURVE",
"424 240 OFFCURVE",
"446 251 OFFCURVE",
"475 251 CURVE SMOOTH",
"496 251 OFFCURVE",
"510 242 OFFCURVE",
"510 225 CURVE SMOOTH",
"510 211 OFFCURVE",
"503 199 OFFCURVE",
"464 163 CURVE SMOOTH",
"392 97 LINE",
"384 87 OFFCURVE",
"378 72 OFFCURVE",
"378 49 CURVE SMOOTH",
"378 28 OFFCURVE",
"388 12 OFFCURVE",
"402 2 CURVE",
"579 2 LINE SMOOTH",
"600 2 OFFCURVE",
"614 13 OFFCURVE",
"614 42 CURVE SMOOTH",
"614 57 OFFCURVE",
"608 72 OFFCURVE",
"604 81 CURVE",
"500 81 LINE",
"538 114 LINE SMOOTH",
"578 149 OFFCURVE",
"609 187 OFFCURVE",
"609 228 CURVE SMOOTH",
"609 288 OFFCURVE",
"564 330 OFFCURVE"
);
}
);
width = 636;
}
);
leftKerningGroup = onequarter;
unicode = 00BD;
},
{
glyphname = threequarters;
lastChange = "2017-09-02 22:18:06 +0000";
layers = (
{
layerId = "95F0E3FF-6822-4CFD-805E-5B95C02D9EC6";
paths = (
{
closed = 1;
nodes = (
"75 495 LINE",
"69 486 OFFCURVE",
"65 474 OFFCURVE",
"65 456 CURVE SMOOTH",
"65 440 OFFCURVE",
"70 427 OFFCURVE",
"75 419 CURVE",
"127 419 LINE SMOOTH",
"154 419 OFFCURVE",
"165 411 OFFCURVE",
"165 393 CURVE SMOOTH",
"165 376 OFFCURVE",
"150 366 OFFCURVE",
"119 366 CURVE SMOOTH",
"87 366 OFFCURVE",
"65 375 OFFCURVE",
"44 387 CURVE",
"28 380 OFFCURVE",
"17 362 OFFCURVE",
"17 343 CURVE SMOOTH",
"17 310 OFFCURVE",
"57 285 OFFCURVE",
"131 285 CURVE SMOOTH",
"209 285 OFFCURVE",
"264 324 OFFCURVE",
"264 383 CURVE SMOOTH",
"264 424 OFFCURVE",
"242 450 OFFCURVE",
"215 461 CURVE",
"238 474 OFFCURVE",
"257 499 OFFCURVE",
"257 527 CURVE SMOOTH",
"257 585 OFFCURVE",
"211 622 OFFCURVE",
"131 622 CURVE SMOOTH",
"67 622 OFFCURVE",
"26 605 OFFCURVE",
"26 569 CURVE SMOOTH",
"26 550 OFFCURVE",
"35 535 OFFCURVE",
"50 525 CURVE",
"67 534 OFFCURVE",
"89 543 OFFCURVE",
"115 543 CURVE SMOOTH",
"143 543 OFFCURVE",
"158 534 OFFCURVE",
"158 517 CURVE SMOOTH",
"158 501 OFFCURVE",
"147 495 OFFCURVE",
"125 495 CURVE SMOOTH"
);
},
{
closed = 1;
nodes = (
"149 107 LINE",
"133 83 OFFCURVE",
"122 64 OFFCURVE",
"122 44 CURVE",
"124 16 OFFCURVE",
"153 -1 OFFCURVE",
"194 -7 CURVE",
"545 503 LINE SMOOTH",
"561 527 OFFCURVE",
"572 546 OFFCURVE",
"572 566 CURVE",
"570 594 OFFCURVE",
"541 611 OFFCURVE",
"500 617 CURVE"
);
},
{
closed = 1;
nodes = (
"629 273 LINE SMOOTH",
"629 312 OFFCURVE",
"594 323 OFFCURVE",
"562 323 CURVE SMOOTH",
"542 323 OFFCURVE",
"524 319 OFFCURVE",
"511 316 CURVE",
"391 157 LINE",
"383 142 OFFCURVE",
"377 129 OFFCURVE",
"377 111 CURVE SMOOTH",
"377 86 OFFCURVE",
"390 69 OFFCURVE",
"407 61 CURVE",
"536 61 LINE",
"536 39 LINE SMOOTH",
"536 3 OFFCURVE",
"555 -4 OFFCURVE",
"587 -4 CURVE SMOOTH",
"603 -4 OFFCURVE",
"621 -2 OFFCURVE",
"629 0 CURVE",
"629 61 LINE",
"648 61 LINE SMOOTH",
"667 61 OFFCURVE",
"681 72 OFFCURVE",
"681 100 CURVE SMOOTH",
"681 116 OFFCURVE",
"676 131 OFFCURVE",
"672 139 CURVE",
"629 139 LINE"
);
},
{
closed = 1;
nodes = (
"539 139 LINE",
"480 139 LINE",
"539 227 LINE"
);
}
);
width = 664;
}
);
rightKerningGroup = onequarter;
unicode = 00BE;
},
{
glyphname = questiondown;
lastChange = "2017-09-02 22:18:06 +0000";
layers = (
{
layerId = "95F0E3FF-6822-4CFD-805E-5B95C02D9EC6";
paths = (
{
closed = 1;
nodes = (
"341 365 CURVE",
"341 419 OFFCURVE",
"304 459 OFFCURVE",
"245 459 CURVE SMOOTH",
"186 459 OFFCURVE",
"149 419 OFFCURVE",
"149 365 CURVE SMOOTH",
"149 311 OFFCURVE",
"186 271 OFFCURVE",
"245 271 CURVE",
"304 271 OFFCURVE",
"341 311 OFFCURVE"
);
},
{
closed = 1;
nodes = (
"207 214 LINE",
"57 184 OFFCURVE",
"-19 115 OFFCURVE",
"-19 9 CURVE SMOOTH",
"-19 -104 OFFCURVE",
"63 -181 OFFCURVE",
"220 -181 CURVE SMOOTH",
"336 -181 OFFCURVE",
"420 -149 OFFCURVE",
"420 -79 CURVE SMOOTH",
"420 -45 OFFCURVE",
"401 -20 OFFCURVE",
"379 -3 CURVE",
"350 -22 OFFCURVE",
"298 -38 OFFCURVE",
"244 -38 CURVE SMOOTH",
"184 -38 OFFCURVE",
"162 -16 OFFCURVE",
"162 9 CURVE SMOOTH",
"162 34 OFFCURVE",
"177 48 OFFCURVE",
"212 57 CURVE SMOOTH",
"290 76 LINE SMOOTH",
"333 87 OFFCURVE",
"355 105 OFFCURVE",
"355 146 CURVE",
"355 188 OFFCURVE",
"331 222 OFFCURVE",
"308 234 CURVE"
);
}
);
width = 439;
}
);
unicode = 00BF;
},
{
glyphname = Agrave;
lastChange = "2017-09-02 22:18:06 +0000";
layers = (
{
layerId = "95F0E3FF-6822-4CFD-805E-5B95C02D9EC6";
paths = (
{
closed = 1;
nodes = (
"194 588 CURVE",
"166 517 OFFCURVE",
"64 224 OFFCURVE",
"36 117 CURVE SMOOTH",
"29 92 OFFCURVE",
"23 75 OFFCURVE",
"23 56 CURVE SMOOTH",
"23 15 OFFCURVE",
"56 -10 OFFCURVE",
"123 -10 CURVE SMOOTH",
"152 -10 OFFCURVE",
"172 -4 OFFCURVE",
"190 2 CURVE",
"200 42 OFFCURVE",
"211 86 OFFCURVE",
"222 126 CURVE",
"403 126 LINE",
"421 57 LINE SMOOTH",
"434 11 OFFCURVE",
"452 -10 OFFCURVE",
"517 -10 CURVE SMOOTH",
"561 -10 OFFCURVE",
"594 3 OFFCURVE",
"610 21 CURVE",
"569 169 OFFCURVE",
"500 418 OFFCURVE",
"453 556 CURVE SMOOTH",
"439 597 OFFCURVE",
"381 616 OFFCURVE",
"315 616 CURVE SMOOTH",
"269 616 OFFCURVE",
"216 601 OFFCURVE"
);
},
{
closed = 1;
nodes = (
"320 459 LINE",
"336 405 OFFCURVE",
"356 333 OFFCURVE",
"375 261 CURVE",
"251 261 LINE",
"270 331 OFFCURVE",
"296 403 OFFCURVE",
"314 459 CURVE"
);
},
{
closed = 1;
nodes = (
"337 666 LINE",
"357 658 OFFCURVE",
"376 653 OFFCURVE",
"394 653 CURVE SMOOTH",
"428 653 OFFCURVE",
"455 683 OFFCURVE",
"455 730 CURVE SMOOTH",
"455 735 OFFCURVE",
"455 741 OFFCURVE",
"454 746 CURVE",
"318 816 LINE SMOOTH",
"291 830 OFFCURVE",
"272 840 OFFCURVE",
"248 840 CURVE SMOOTH",
"203 840 OFFCURVE",
"175 810 OFFCURVE",
"175 768 CURVE SMOOTH",
"175 756 OFFCURVE",
"177 740 OFFCURVE",
"183 726 CURVE"
);
}
);
width = 627;
}
);
leftKerningGroup = A;
rightKerningGroup = A;
unicode = 00C0;
},
{
glyphname = Aacute;
lastChange = "2017-09-02 22:18:06 +0000";
layers = (
{
layerId = "95F0E3FF-6822-4CFD-805E-5B95C02D9EC6";
paths = (
{
closed = 1;
nodes = (
"194 588 CURVE",
"166 517 OFFCURVE",
"64 224 OFFCURVE",
"36 117 CURVE SMOOTH",
"29 92 OFFCURVE",
"23 75 OFFCURVE",
"23 56 CURVE SMOOTH",
"23 15 OFFCURVE",
"56 -10 OFFCURVE",
"123 -10 CURVE SMOOTH",
"152 -10 OFFCURVE",
"172 -4 OFFCURVE",
"190 2 CURVE",
"200 42 OFFCURVE",
"211 86 OFFCURVE",
"222 126 CURVE",
"403 126 LINE",
"421 57 LINE SMOOTH",
"434 11 OFFCURVE",
"452 -10 OFFCURVE",
"517 -10 CURVE SMOOTH",
"561 -10 OFFCURVE",
"594 3 OFFCURVE",
"610 21 CURVE",
"569 169 OFFCURVE",
"500 418 OFFCURVE",
"453 556 CURVE SMOOTH",
"439 597 OFFCURVE",
"381 616 OFFCURVE",
"315 616 CURVE SMOOTH",
"269 616 OFFCURVE",
"216 601 OFFCURVE"
);
},
{
closed = 1;
nodes = (
"320 459 LINE",
"336 405 OFFCURVE",
"356 333 OFFCURVE",
"375 261 CURVE",
"251 261 LINE",
"270 331 OFFCURVE",
"296 403 OFFCURVE",
"314 459 CURVE"
);
},
{
closed = 1;
nodes = (
"224 763 LINE",
"203 752 OFFCURVE",
"193 734 OFFCURVE",
"193 715 CURVE SMOOTH",
"193 686 OFFCURVE",
"219 659 OFFCURVE",
"257 651 CURVE",
"394 705 LINE SMOOTH",
"440 723 OFFCURVE",
"462 744 OFFCURVE",
"462 782 CURVE SMOOTH",
"462 816 OFFCURVE",
"436 846 OFFCURVE",
"371 851 CURVE"
);
}
);
width = 627;
}
);
leftKerningGroup = A;
rightKerningGroup = A;
unicode = 00C1;
},
{
glyphname = Acircumflex;
lastChange = "2017-09-02 22:18:06 +0000";
layers = (
{
layerId = "95F0E3FF-6822-4CFD-805E-5B95C02D9EC6";
paths = (
{
closed = 1;
nodes = (
"194 588 CURVE",
"166 517 OFFCURVE",
"64 224 OFFCURVE",
"36 117 CURVE SMOOTH",
"29 92 OFFCURVE",
"23 75 OFFCURVE",
"23 56 CURVE SMOOTH",
"23 15 OFFCURVE",
"56 -10 OFFCURVE",
"123 -10 CURVE SMOOTH",
"152 -10 OFFCURVE",
"172 -4 OFFCURVE",
"190 2 CURVE",
"200 42 OFFCURVE",
"211 86 OFFCURVE",
"222 126 CURVE",
"403 126 LINE",
"421 57 LINE SMOOTH",
"434 11 OFFCURVE",
"452 -10 OFFCURVE",
"517 -10 CURVE SMOOTH",
"561 -10 OFFCURVE",
"594 3 OFFCURVE",
"610 21 CURVE",
"569 169 OFFCURVE",
"500 418 OFFCURVE",
"453 556 CURVE SMOOTH",
"439 597 OFFCURVE",
"381 616 OFFCURVE",
"315 616 CURVE SMOOTH",
"269 616 OFFCURVE",
"216 601 OFFCURVE"
);
},
{
closed = 1;
nodes = (
"320 459 LINE",
"336 405 OFFCURVE",
"356 333 OFFCURVE",
"375 261 CURVE",
"251 261 LINE",
"270 331 OFFCURVE",
"296 403 OFFCURVE",
"314 459 CURVE"
);
},
{
closed = 1;
nodes = (
"347 713 LINE",
"391 673 OFFCURVE",
"408 665 OFFCURVE",
"434 665 CURVE SMOOTH",
"475 665 OFFCURVE",
"494 697 OFFCURVE",
"494 742 CURVE",
"413 813 LINE",
"378 844 OFFCURVE",
"358 854 OFFCURVE",
"322 854 CURVE SMOOTH",
"296 854 OFFCURVE",
"267 841 OFFCURVE",
"234 818 CURVE SMOOTH",
"198 792 LINE SMOOTH",
"162 767 OFFCURVE",
"152 750 OFFCURVE",
"152 723 CURVE SMOOTH",
"152 688 OFFCURVE",
"183 662 OFFCURVE",
"223 662 CURVE",
"252 683 OFFCURVE",
"283 703 OFFCURVE",
"324 734 CURVE"
);
}
);
width = 627;
}
);
leftKerningGroup = A;
rightKerningGroup = A;
unicode = 00C2;
},
{
glyphname = Atilde;
lastChange = "2017-09-02 22:18:06 +0000";
layers = (
{
layerId = "95F0E3FF-6822-4CFD-805E-5B95C02D9EC6";
paths = (
{
closed = 1;
nodes = (
"194 588 CURVE",
"166 517 OFFCURVE",
"64 224 OFFCURVE",
"36 117 CURVE SMOOTH",
"29 92 OFFCURVE",
"23 75 OFFCURVE",
"23 56 CURVE SMOOTH",
"23 15 OFFCURVE",
"56 -10 OFFCURVE",
"123 -10 CURVE SMOOTH",
"152 -10 OFFCURVE",
"172 -4 OFFCURVE",
"190 2 CURVE",
"200 42 OFFCURVE",
"211 86 OFFCURVE",
"222 126 CURVE",
"403 126 LINE",
"421 57 LINE SMOOTH",
"434 11 OFFCURVE",
"452 -10 OFFCURVE",
"517 -10 CURVE SMOOTH",
"561 -10 OFFCURVE",
"594 3 OFFCURVE",
"610 21 CURVE",
"569 169 OFFCURVE",
"500 418 OFFCURVE",
"453 556 CURVE SMOOTH",
"439 597 OFFCURVE",
"381 616 OFFCURVE",
"315 616 CURVE SMOOTH",
"269 616 OFFCURVE",
"216 601 OFFCURVE"
);
},
{
closed = 1;
nodes = (
"320 459 LINE",
"336 405 OFFCURVE",
"356 333 OFFCURVE",
"375 261 CURVE",
"251 261 LINE",
"270 331 OFFCURVE",
"296 403 OFFCURVE",
"314 459 CURVE"
);
},
{
closed = 1;
nodes = (
"322 825 CURVE",
"267 841 OFFCURVE",
"249 843 OFFCURVE",
"231 843 CURVE SMOOTH",
"184 843 OFFCURVE",
"133 816 OFFCURVE",
"133 756 CURVE SMOOTH",
"133 709 OFFCURVE",
"168 676 OFFCURVE",
"215 676 CURVE",
"223 689 OFFCURVE",
"237 711 OFFCURVE",
"266 711 CURVE SMOOTH",
"278 711 OFFCURVE",
"290 707 OFFCURVE",
"308 702 CURVE SMOOTH",
"348 690 LINE SMOOTH",
"370 684 OFFCURVE",
"389 682 OFFCURVE",
"407 682 CURVE SMOOTH",
"463 682 OFFCURVE",
"505 710 OFFCURVE",
"505 769 CURVE SMOOTH",
"505 816 OFFCURVE",
"470 849 OFFCURVE",
"423 849 CURVE",
"416 837 OFFCURVE",
"401 814 OFFCURVE",
"372 814 CURVE SMOOTH",
"361 814 OFFCURVE",
"346 818 OFFCURVE"
);
}
);
width = 627;
}
);
leftKerningGroup = A;
rightKerningGroup = A;
unicode = 00C3;
},
{
glyphname = Adieresis;
lastChange = "2017-09-02 22:18:06 +0000";
layers = (
{
layerId = "95F0E3FF-6822-4CFD-805E-5B95C02D9EC6";
paths = (
{
closed = 1;
nodes = (
"194 588 CURVE",
"166 517 OFFCURVE",
"64 224 OFFCURVE",
"36 117 CURVE SMOOTH",
"29 92 OFFCURVE",
"23 75 OFFCURVE",
"23 56 CURVE SMOOTH",
"23 15 OFFCURVE",
"56 -10 OFFCURVE",
"123 -10 CURVE SMOOTH",
"152 -10 OFFCURVE",
"172 -4 OFFCURVE",
"190 2 CURVE",
"200 42 OFFCURVE",
"211 86 OFFCURVE",
"222 126 CURVE",
"403 126 LINE",
"421 57 LINE SMOOTH",
"434 11 OFFCURVE",
"452 -10 OFFCURVE",
"517 -10 CURVE SMOOTH",
"561 -10 OFFCURVE",
"594 3 OFFCURVE",
"610 21 CURVE",
"569 169 OFFCURVE",
"500 418 OFFCURVE",
"453 556 CURVE SMOOTH",
"439 597 OFFCURVE",
"381 616 OFFCURVE",
"315 616 CURVE SMOOTH",
"269 616 OFFCURVE",
"216 601 OFFCURVE"
);
},
{
closed = 1;
nodes = (
"320 459 LINE",
"336 405 OFFCURVE",
"356 333 OFFCURVE",
"375 261 CURVE",
"251 261 LINE",
"270 331 OFFCURVE",
"296 403 OFFCURVE",
"314 459 CURVE"
);
},
{
closed = 1;
nodes = (
"117 755 CURVE",
"117 708 OFFCURVE",
"155 669 OFFCURVE",
"204 669 CURVE SMOOTH",
"259 669 OFFCURVE",
"294 708 OFFCURVE",
"294 755 CURVE SMOOTH",
"294 801 OFFCURVE",
"259 841 OFFCURVE",
"204 841 CURVE SMOOTH",
"155 841 OFFCURVE",
"117 801 OFFCURVE"
);
},
{
closed = 1;
nodes = (
"341 755 CURVE",
"341 708 OFFCURVE",
"375 669 OFFCURVE",
"430 669 CURVE SMOOTH",
"481 669 OFFCURVE",
"518 708 OFFCURVE",
"518 755 CURVE SMOOTH",
"518 801 OFFCURVE",
"481 841 OFFCURVE",
"430 841 CURVE SMOOTH",
"375 841 OFFCURVE",
"341 801 OFFCURVE"
);
}
);
width = 627;
}
);
leftKerningGroup = A;
rightKerningGroup = A;
unicode = 00C4;
},
{
glyphname = Aring;
lastChange = "2017-09-02 22:18:06 +0000";
layers = (
{
layerId = "95F0E3FF-6822-4CFD-805E-5B95C02D9EC6";
paths = (
{
closed = 1;
nodes = (
"194 588 CURVE",
"166 517 OFFCURVE",
"64 224 OFFCURVE",
"36 117 CURVE SMOOTH",
"29 92 OFFCURVE",
"23 75 OFFCURVE",
"23 56 CURVE SMOOTH",
"23 15 OFFCURVE",
"56 -10 OFFCURVE",
"123 -10 CURVE SMOOTH",
"152 -10 OFFCURVE",
"172 -4 OFFCURVE",
"190 2 CURVE",
"200 42 OFFCURVE",
"211 86 OFFCURVE",
"222 126 CURVE",
"403 126 LINE",
"421 57 LINE SMOOTH",
"434 11 OFFCURVE",
"452 -10 OFFCURVE",
"517 -10 CURVE SMOOTH",
"561 -10 OFFCURVE",
"594 3 OFFCURVE",
"610 21 CURVE",
"569 169 OFFCURVE",
"500 418 OFFCURVE",
"453 556 CURVE SMOOTH",
"439 597 OFFCURVE",
"381 616 OFFCURVE",
"315 616 CURVE SMOOTH",
"269 616 OFFCURVE",
"216 601 OFFCURVE"
);
},
{
closed = 1;
nodes = (
"320 459 LINE",
"336 405 OFFCURVE",
"356 333 OFFCURVE",
"375 261 CURVE",
"251 261 LINE",
"270 331 OFFCURVE",
"296 403 OFFCURVE",
"314 459 CURVE"
);
},
{
closed = 1;
nodes = (
"189 754 CURVE",
"189 692 OFFCURVE",
"242 646 OFFCURVE",
"321 646 CURVE SMOOTH",
"405 646 OFFCURVE",
"458 692 OFFCURVE",
"458 754 CURVE SMOOTH",
"458 816 OFFCURVE",
"405 863 OFFCURVE",
"321 863 CURVE SMOOTH",
"242 863 OFFCURVE",
"189 816 OFFCURVE"
);
},
{
closed = 1;
nodes = (
"290 754 CURVE",
"290 773 OFFCURVE",
"305 785 OFFCURVE",
"322 785 CURVE SMOOTH",
"342 785 OFFCURVE",
"356 773 OFFCURVE",
"356 754 CURVE SMOOTH",
"356 735 OFFCURVE",
"342 723 OFFCURVE",
"322 723 CURVE SMOOTH",
"305 723 OFFCURVE",
"290 735 OFFCURVE"
);
}
);
width = 627;
}
);
leftKerningGroup = A;
rightKerningGroup = A;
unicode = 00C5;
},
{
glyphname = AE;
lastChange = "2017-09-02 22:18:06 +0000";
layers = (
{
layerId = "95F0E3FF-6822-4CFD-805E-5B95C02D9EC6";
paths = (
{
closed = 1;
nodes = (
"524 606 LINE",
"504 606 OFFCURVE",
"487 601 OFFCURVE",
"473 592 CURVE",
"448 604 OFFCURVE",
"409 611 OFFCURVE",
"378 611 CURVE SMOOTH",
"331 611 OFFCURVE",
"292 595 OFFCURVE",
"272 581 CURVE",
"229 509 OFFCURVE",
"90 228 OFFCURVE",
"40 117 CURVE SMOOTH",
"29 93 OFFCURVE",
"25 75 OFFCURVE",
"25 56 CURVE SMOOTH",
"25 15 OFFCURVE",
"54 -10 OFFCURVE",
"115 -10 CURVE SMOOTH",
"144 -10 OFFCURVE",
"164 -4 OFFCURVE",
"182 2 CURVE",
"239 126 LINE",
"392 126 LINE",
"392 90 LINE SMOOTH",
"392 33 OFFCURVE",
"428 -3 OFFCURVE",
"485 -3 CURVE SMOOTH",
"777 -3 LINE SMOOTH",
"813 -3 OFFCURVE",
"837 17 OFFCURVE",
"837 68 CURVE SMOOTH",
"837 95 OFFCURVE",
"828 120 OFFCURVE",
"819 135 CURVE",
"562 135 LINE",
"562 240 LINE",
"746 240 LINE SMOOTH",
"782 240 OFFCURVE",
"805 260 OFFCURVE",
"805 310 CURVE SMOOTH",
"805 337 OFFCURVE",
"796 361 OFFCURVE",
"787 376 CURVE",
"562 376 LINE",
"562 469 LINE",
"773 469 LINE SMOOTH",
"809 469 OFFCURVE",
"833 489 OFFCURVE",
"833 539 CURVE SMOOTH",
"833 566 OFFCURVE",
"824 591 OFFCURVE",
"815 606 CURVE"
);
},
{
closed = 1;
nodes = (
"392 459 LINE",
"392 261 LINE",
"300 261 LINE",
"386 459 LINE"
);
}
);
width = 875;
}
);
rightKerningGroup = E;
unicode = 00C6;
},
{
glyphname = Ccedilla;
lastChange = "2017-09-02 22:18:06 +0000";
layers = (
{
layerId = "95F0E3FF-6822-4CFD-805E-5B95C02D9EC6";
paths = (
{
closed = 1;
nodes = (
"374 484 CURVE SMOOTH",
"426 484 OFFCURVE",
"464 465 OFFCURVE",
"498 443 CURVE",
"520 458 OFFCURVE",
"541 484 OFFCURVE",
"541 518 CURVE SMOOTH",
"541 580 OFFCURVE",
"470 625 OFFCURVE",
"348 625 CURVE SMOOTH",
"175 625 OFFCURVE",
"35 511 OFFCURVE",
"35 304 CURVE SMOOTH",
"35 112 OFFCURVE",
"144 10 OFFCURVE",
"289 -12 CURVE",
"295 -25 OFFCURVE",
"297 -39 OFFCURVE",
"297 -47 CURVE SMOOTH",
"297 -78 OFFCURVE",
"275 -94 OFFCURVE",
"232 -96 CURVE",
"229 -104 OFFCURVE",
"227 -112 OFFCURVE",
"227 -126 CURVE SMOOTH",
"227 -177 OFFCURVE",
"265 -207 OFFCURVE",
"320 -207 CURVE SMOOTH",
"398 -207 OFFCURVE",
"443 -156 OFFCURVE",
"443 -87 CURVE SMOOTH",
"443 -64 OFFCURVE",
"437 -30 OFFCURVE",
"427 -12 CURVE",
"506 0 OFFCURVE",
"543 36 OFFCURVE",
"543 80 CURVE SMOOTH",
"543 114 OFFCURVE",
"529 141 OFFCURVE",
"507 159 CURVE",
"472 140 OFFCURVE",
"437 123 OFFCURVE",
"383 123 CURVE SMOOTH",
"281 123 OFFCURVE",
"215 189 OFFCURVE",
"215 304 CURVE SMOOTH",
"215 418 OFFCURVE",
"272 484 OFFCURVE"
);
}
);
width = 571;
}
);
leftKerningGroup = O;
rightKerningGroup = C;
unicode = 00C7;
},
{
glyphname = Egrave;
lastChange = "2017-09-02 22:18:06 +0000";
layers = (
{
layerId = "95F0E3FF-6822-4CFD-805E-5B95C02D9EC6";
paths = (
{
closed = 1;
nodes = (
"58 90 LINE",
"58 33 OFFCURVE",
"94 -3 OFFCURVE",
"151 -3 CURVE SMOOTH",
"443 -3 LINE SMOOTH",
"479 -3 OFFCURVE",
"503 17 OFFCURVE",
"503 68 CURVE SMOOTH",
"503 95 OFFCURVE",
"494 120 OFFCURVE",
"485 135 CURVE",
"228 135 LINE",
"228 240 LINE",
"412 240 LINE SMOOTH",
"448 240 OFFCURVE",
"471 260 OFFCURVE",
"471 310 CURVE SMOOTH",
"471 337 OFFCURVE",
"462 361 OFFCURVE",
"453 376 CURVE",
"228 376 LINE",
"228 469 LINE",
"439 469 LINE SMOOTH",
"475 469 OFFCURVE",
"499 489 OFFCURVE",
"499 539 CURVE SMOOTH",
"499 566 OFFCURVE",
"490 591 OFFCURVE",
"481 606 CURVE",
"151 606 LINE SMOOTH",
"94 606 OFFCURVE",
"58 570 OFFCURVE",
"58 513 CURVE SMOOTH"
);
},
{
closed = 1;
nodes = (
"278 666 LINE",
"298 658 OFFCURVE",
"317 653 OFFCURVE",
"335 653 CURVE SMOOTH",
"369 653 OFFCURVE",
"396 683 OFFCURVE",
"396 730 CURVE SMOOTH",
"396 735 OFFCURVE",
"396 741 OFFCURVE",
"395 746 CURVE",
"259 816 LINE SMOOTH",
"232 830 OFFCURVE",
"213 840 OFFCURVE",
"189 840 CURVE SMOOTH",
"144 840 OFFCURVE",
"116 810 OFFCURVE",
"116 768 CURVE SMOOTH",
"116 756 OFFCURVE",
"118 740 OFFCURVE",
"124 726 CURVE"
);
}
);
width = 541;
}
);
rightKerningGroup = E;
unicode = 00C8;
},
{
glyphname = Eacute;
lastChange = "2017-09-02 22:18:06 +0000";
layers = (
{
layerId = "95F0E3FF-6822-4CFD-805E-5B95C02D9EC6";
paths = (
{
closed = 1;
nodes = (
"58 90 LINE",
"58 33 OFFCURVE",
"94 -3 OFFCURVE",
"151 -3 CURVE SMOOTH",
"443 -3 LINE SMOOTH",
"479 -3 OFFCURVE",
"503 17 OFFCURVE",
"503 68 CURVE SMOOTH",
"503 95 OFFCURVE",
"494 120 OFFCURVE",
"485 135 CURVE",
"228 135 LINE",
"228 240 LINE",
"412 240 LINE SMOOTH",
"448 240 OFFCURVE",
"471 260 OFFCURVE",
"471 310 CURVE SMOOTH",
"471 337 OFFCURVE",
"462 361 OFFCURVE",
"453 376 CURVE",
"228 376 LINE",
"228 469 LINE",
"439 469 LINE SMOOTH",
"475 469 OFFCURVE",
"499 489 OFFCURVE",
"499 539 CURVE SMOOTH",
"499 566 OFFCURVE",
"490 591 OFFCURVE",
"481 606 CURVE",
"151 606 LINE SMOOTH",
"94 606 OFFCURVE",
"58 570 OFFCURVE",
"58 513 CURVE SMOOTH"
);
},
{
closed = 1;
nodes = (
"181 763 LINE",
"160 752 OFFCURVE",
"150 734 OFFCURVE",
"150 715 CURVE SMOOTH",
"150 686 OFFCURVE",
"176 659 OFFCURVE",
"214 651 CURVE",
"351 705 LINE SMOOTH",
"397 723 OFFCURVE",
"419 744 OFFCURVE",
"419 782 CURVE SMOOTH",
"419 816 OFFCURVE",
"393 846 OFFCURVE",
"328 851 CURVE"
);
}
);
width = 541;
}
);
rightKerningGroup = E;
unicode = 00C9;
},
{
glyphname = Ecircumflex;
lastChange = "2017-09-02 22:18:06 +0000";
layers = (
{
layerId = "95F0E3FF-6822-4CFD-805E-5B95C02D9EC6";
paths = (
{
closed = 1;
nodes = (
"58 90 LINE",
"58 33 OFFCURVE",
"94 -3 OFFCURVE",
"151 -3 CURVE SMOOTH",
"443 -3 LINE SMOOTH",
"479 -3 OFFCURVE",
"503 17 OFFCURVE",
"503 68 CURVE SMOOTH",
"503 95 OFFCURVE",
"494 120 OFFCURVE",
"485 135 CURVE",
"228 135 LINE",
"228 240 LINE",
"412 240 LINE SMOOTH",
"448 240 OFFCURVE",
"471 260 OFFCURVE",
"471 310 CURVE SMOOTH",
"471 337 OFFCURVE",
"462 361 OFFCURVE",
"453 376 CURVE",
"228 376 LINE",
"228 469 LINE",
"439 469 LINE SMOOTH",
"475 469 OFFCURVE",
"499 489 OFFCURVE",
"499 539 CURVE SMOOTH",
"499 566 OFFCURVE",
"490 591 OFFCURVE",
"481 606 CURVE",
"151 606 LINE SMOOTH",
"94 606 OFFCURVE",
"58 570 OFFCURVE",
"58 513 CURVE SMOOTH"
);
},
{
closed = 1;
nodes = (
"295 713 LINE",
"339 673 OFFCURVE",
"356 665 OFFCURVE",
"382 665 CURVE SMOOTH",
"423 665 OFFCURVE",
"442 697 OFFCURVE",
"442 742 CURVE",
"361 813 LINE",
"326 844 OFFCURVE",
"306 854 OFFCURVE",
"270 854 CURVE SMOOTH",
"244 854 OFFCURVE",
"215 841 OFFCURVE",
"182 818 CURVE SMOOTH",
"146 792 LINE SMOOTH",
"110 767 OFFCURVE",
"100 750 OFFCURVE",
"100 723 CURVE SMOOTH",
"100 688 OFFCURVE",
"131 662 OFFCURVE",
"171 662 CURVE",
"200 683 OFFCURVE",
"231 703 OFFCURVE",
"272 734 CURVE"
);
}
);
width = 541;
}
);
rightKerningGroup = E;
unicode = 00CA;
},
{
glyphname = Edieresis;
lastChange = "2017-09-02 22:18:06 +0000";
layers = (
{
layerId = "95F0E3FF-6822-4CFD-805E-5B95C02D9EC6";
paths = (
{
closed = 1;
nodes = (
"58 90 LINE",
"58 33 OFFCURVE",
"94 -3 OFFCURVE",
"151 -3 CURVE SMOOTH",
"443 -3 LINE SMOOTH",
"479 -3 OFFCURVE",
"503 17 OFFCURVE",
"503 68 CURVE SMOOTH",
"503 95 OFFCURVE",
"494 120 OFFCURVE",
"485 135 CURVE",
"228 135 LINE",
"228 240 LINE",
"412 240 LINE SMOOTH",
"448 240 OFFCURVE",
"471 260 OFFCURVE",
"471 310 CURVE SMOOTH",
"471 337 OFFCURVE",
"462 361 OFFCURVE",
"453 376 CURVE",
"228 376 LINE",
"228 469 LINE",
"439 469 LINE SMOOTH",
"475 469 OFFCURVE",
"499 489 OFFCURVE",
"499 539 CURVE SMOOTH",
"499 566 OFFCURVE",
"490 591 OFFCURVE",
"481 606 CURVE",
"151 606 LINE SMOOTH",
"94 606 OFFCURVE",
"58 570 OFFCURVE",
"58 513 CURVE SMOOTH"
);
},
{
closed = 1;
nodes = (
"70 757 CURVE",
"70 710 OFFCURVE",
"108 671 OFFCURVE",
"157 671 CURVE SMOOTH",
"212 671 OFFCURVE",
"247 710 OFFCURVE",
"247 757 CURVE SMOOTH",
"247 803 OFFCURVE",
"212 843 OFFCURVE",
"157 843 CURVE SMOOTH",
"108 843 OFFCURVE",
"70 803 OFFCURVE"
);
},
{
closed = 1;
nodes = (
"294 757 CURVE",
"294 710 OFFCURVE",
"328 671 OFFCURVE",
"383 671 CURVE SMOOTH",
"434 671 OFFCURVE",
"471 710 OFFCURVE",
"471 757 CURVE SMOOTH",
"471 803 OFFCURVE",
"434 843 OFFCURVE",
"383 843 CURVE SMOOTH",
"328 843 OFFCURVE",
"294 803 OFFCURVE"
);
}
);
width = 541;
}
);
rightKerningGroup = E;
unicode = 00CB;
},
{
glyphname = Igrave;
lastChange = "2017-09-02 22:18:06 +0000";
layers = (
{
layerId = "95F0E3FF-6822-4CFD-805E-5B95C02D9EC6";
paths = (
{
closed = 1;
nodes = (
"155 666 LINE",
"175 658 OFFCURVE",
"194 653 OFFCURVE",
"212 653 CURVE SMOOTH",
"246 653 OFFCURVE",
"273 683 OFFCURVE",
"273 730 CURVE SMOOTH",
"273 735 OFFCURVE",
"273 741 OFFCURVE",
"272 746 CURVE",
"136 816 LINE SMOOTH",
"109 830 OFFCURVE",
"90 840 OFFCURVE",
"66 840 CURVE SMOOTH",
"21 840 OFFCURVE",
"-7 810 OFFCURVE",
"-7 768 CURVE SMOOTH",
"-7 756 OFFCURVE",
"-5 740 OFFCURVE",
"1 726 CURVE"
);
},
{
closed = 1;
nodes = (
"240 532 LINE",
"240 601 OFFCURVE",
"207 615 OFFCURVE",
"146 615 CURVE SMOOTH",
"117 615 OFFCURVE",
"79 609 OFFCURVE",
"65 606 CURVE",
"65 78 LINE SMOOTH",
"65 9 OFFCURVE",
"97 -5 OFFCURVE",
"159 -5 CURVE SMOOTH",
"189 -5 OFFCURVE",
"226 0 OFFCURVE",
"240 4 CURVE"
);
}
);
width = 305;
}
);
unicode = 00CC;
},
{
glyphname = Iacute;
lastChange = "2017-09-02 22:18:06 +0000";
layers = (
{
layerId = "95F0E3FF-6822-4CFD-805E-5B95C02D9EC6";
paths = (
{
closed = 1;
nodes = (
"73 763 LINE",
"52 752 OFFCURVE",
"42 734 OFFCURVE",
"42 715 CURVE SMOOTH",
"42 686 OFFCURVE",
"68 659 OFFCURVE",
"106 651 CURVE",
"243 705 LINE SMOOTH",
"289 723 OFFCURVE",
"311 744 OFFCURVE",
"311 782 CURVE SMOOTH",
"311 816 OFFCURVE",
"285 846 OFFCURVE",
"220 851 CURVE"
);
},
{
closed = 1;
nodes = (
"240 532 LINE",
"240 601 OFFCURVE",
"207 615 OFFCURVE",
"146 615 CURVE SMOOTH",
"117 615 OFFCURVE",
"79 609 OFFCURVE",
"65 606 CURVE",
"65 78 LINE SMOOTH",
"65 9 OFFCURVE",
"97 -5 OFFCURVE",
"159 -5 CURVE SMOOTH",
"189 -5 OFFCURVE",
"226 0 OFFCURVE",
"240 4 CURVE"
);
}
);
width = 305;
}
);
unicode = 00CD;
},
{
glyphname = Icircumflex;
lastChange = "2017-09-02 22:18:06 +0000";
layers = (
{
layerId = "95F0E3FF-6822-4CFD-805E-5B95C02D9EC6";
paths = (
{
closed = 1;
nodes = (
"176 713 LINE",
"220 673 OFFCURVE",
"237 665 OFFCURVE",
"263 665 CURVE SMOOTH",
"304 665 OFFCURVE",
"323 697 OFFCURVE",
"323 742 CURVE",
"242 813 LINE",
"207 844 OFFCURVE",
"187 854 OFFCURVE",
"151 854 CURVE SMOOTH",
"125 854 OFFCURVE",
"96 841 OFFCURVE",
"63 818 CURVE SMOOTH",
"27 792 LINE SMOOTH",
"-9 767 OFFCURVE",
"-19 750 OFFCURVE",
"-19 723 CURVE SMOOTH",
"-19 688 OFFCURVE",
"12 662 OFFCURVE",
"52 662 CURVE",
"81 683 OFFCURVE",
"112 703 OFFCURVE",
"153 734 CURVE"
);
},
{
closed = 1;
nodes = (
"240 532 LINE",
"240 601 OFFCURVE",
"207 615 OFFCURVE",
"146 615 CURVE SMOOTH",
"117 615 OFFCURVE",
"79 609 OFFCURVE",
"65 606 CURVE",
"65 78 LINE SMOOTH",
"65 9 OFFCURVE",
"97 -5 OFFCURVE",
"159 -5 CURVE SMOOTH",
"189 -5 OFFCURVE",
"226 0 OFFCURVE",
"240 4 CURVE"
);
}
);
width = 305;
}
);
unicode = 00CE;
},
{
glyphname = Idieresis;
lastChange = "2017-09-02 22:18:06 +0000";
layers = (
{
layerId = "95F0E3FF-6822-4CFD-805E-5B95C02D9EC6";
paths = (
{
closed = 1;
nodes = (
"-53 755 CURVE",
"-53 708 OFFCURVE",
"-15 669 OFFCURVE",
"34 669 CURVE SMOOTH",
"89 669 OFFCURVE",
"124 708 OFFCURVE",
"124 755 CURVE SMOOTH",
"124 801 OFFCURVE",
"89 841 OFFCURVE",
"34 841 CURVE SMOOTH",
"-15 841 OFFCURVE",
"-53 801 OFFCURVE"
);
},
{
closed = 1;
nodes = (
"171 755 CURVE",
"171 708 OFFCURVE",
"205 669 OFFCURVE",
"260 669 CURVE SMOOTH",
"311 669 OFFCURVE",
"348 708 OFFCURVE",
"348 755 CURVE SMOOTH",
"348 801 OFFCURVE",
"311 841 OFFCURVE",
"260 841 CURVE SMOOTH",
"205 841 OFFCURVE",
"171 801 OFFCURVE"
);
},
{
closed = 1;
nodes = (
"240 532 LINE",
"240 601 OFFCURVE",
"207 615 OFFCURVE",
"146 615 CURVE SMOOTH",
"117 615 OFFCURVE",
"79 609 OFFCURVE",
"65 606 CURVE",
"65 78 LINE SMOOTH",
"65 9 OFFCURVE",
"97 -5 OFFCURVE",
"159 -5 CURVE SMOOTH",
"189 -5 OFFCURVE",
"226 0 OFFCURVE",
"240 4 CURVE"
);
}
);
width = 305;
}
);
unicode = 00CF;
},
{
glyphname = Eth;
lastChange = "2017-09-02 22:18:06 +0000";
layers = (
{
layerId = "95F0E3FF-6822-4CFD-805E-5B95C02D9EC6";
paths = (
{
closed = 1;
nodes = (
"99 238 LINE",
"99 82 LINE SMOOTH",
"99 46 OFFCURVE",
"118 23 OFFCURVE",
"154 9 CURVE SMOOTH",
"207 -11 OFFCURVE",
"283 -16 OFFCURVE",
"329 -16 CURVE SMOOTH",
"530 -16 OFFCURVE",
"665 92 OFFCURVE",
"665 304 CURVE SMOOTH",
"665 522 OFFCURVE",
"526 623 OFFCURVE",
"319 623 CURVE SMOOTH",
"268 623 OFFCURVE",
"199 619 OFFCURVE",
"142 600 CURVE SMOOTH",
"116 591 OFFCURVE",
"99 577 OFFCURVE",
"99 549 CURVE SMOOTH",
"99 375 LINE",
"80 375 LINE SMOOTH",
"45 375 OFFCURVE",
"20 355 OFFCURVE",
"20 305 CURVE SMOOTH",
"20 278 OFFCURVE",
"29 252 OFFCURVE",
"38 238 CURVE"
);
},
{
closed = 1;
nodes = (
"273 238 LINE",
"326 238 LINE SMOOTH",
"361 238 OFFCURVE",
"386 258 OFFCURVE",
"386 308 CURVE SMOOTH",
"386 335 OFFCURVE",
"377 361 OFFCURVE",
"368 375 CURVE",
"273 375 LINE",
"273 478 LINE",
"293 481 OFFCURVE",
"312 482 OFFCURVE",
"331 482 CURVE SMOOTH",
"424 482 OFFCURVE",
"485 420 OFFCURVE",
"485 301 CURVE SMOOTH",
"485 176 OFFCURVE",
"421 125 OFFCURVE",
"330 125 CURVE SMOOTH",
"312 125 OFFCURVE",
"287 127 OFFCURVE",
"273 130 CURVE"
);
}
);
width = 700;
}
);
rightKerningGroup = O;
unicode = 00D0;
},
{
glyphname = Ntilde;
lastChange = "2017-09-02 22:18:06 +0000";
layers = (
{
layerId = "95F0E3FF-6822-4CFD-805E-5B95C02D9EC6";
paths = (
{
closed = 1;
nodes = (
"607 535 LINE SMOOTH",
"607 601 OFFCURVE",
"576 615 OFFCURVE",
"517 615 CURVE SMOOTH",
"488 615 OFFCURVE",
"453 610 OFFCURVE",
"439 606 CURVE",
"439 444 LINE SMOOTH",
"439 372 OFFCURVE",
"440 300 OFFCURVE",
"445 228 CURVE",
"440 227 LINE",
"421 275 OFFCURVE",
"407 308 OFFCURVE",
"387 349 CURVE SMOOTH",
"287 551 LINE SMOOTH",
"260 606 OFFCURVE",
"212 615 OFFCURVE",
"163 615 CURVE SMOOTH",
"119 615 OFFCURVE",
"76 601 OFFCURVE",
"58 575 CURVE",
"58 75 LINE SMOOTH",
"58 9 OFFCURVE",
"89 -5 OFFCURVE",
"148 -5 CURVE SMOOTH",
"177 -5 OFFCURVE",
"212 0 OFFCURVE",
"226 4 CURVE",
"226 159 LINE SMOOTH",
"226 230 OFFCURVE",
"226 307 OFFCURVE",
"221 379 CURVE",
"227 380 LINE",
"246 332 OFFCURVE",
"260 299 OFFCURVE",
"280 258 CURVE SMOOTH",
"379 56 LINE SMOOTH",
"407 0 OFFCURVE",
"454 -8 OFFCURVE",
"503 -8 CURVE SMOOTH",
"552 -8 OFFCURVE",
"588 3 OFFCURVE",
"607 21 CURVE"
);
},
{
closed = 1;
nodes = (
"338 816 CURVE",
"283 832 OFFCURVE",
"265 834 OFFCURVE",
"247 834 CURVE SMOOTH",
"200 834 OFFCURVE",
"149 807 OFFCURVE",
"149 747 CURVE SMOOTH",
"149 700 OFFCURVE",
"184 667 OFFCURVE",
"231 667 CURVE",
"239 680 OFFCURVE",
"253 702 OFFCURVE",
"282 702 CURVE SMOOTH",
"294 702 OFFCURVE",
"306 698 OFFCURVE",
"324 693 CURVE SMOOTH",
"364 681 LINE SMOOTH",
"386 675 OFFCURVE",
"405 673 OFFCURVE",
"423 673 CURVE SMOOTH",
"479 673 OFFCURVE",
"521 701 OFFCURVE",
"521 760 CURVE SMOOTH",
"521 807 OFFCURVE",
"486 840 OFFCURVE",
"439 840 CURVE",
"432 828 OFFCURVE",
"417 805 OFFCURVE",
"388 805 CURVE SMOOTH",
"377 805 OFFCURVE",
"362 809 OFFCURVE"
);
}
);
width = 665;
}
);
unicode = 00D1;
},
{
glyphname = Ograve;
lastChange = "2017-09-02 22:18:06 +0000";
layers = (
{
layerId = "95F0E3FF-6822-4CFD-805E-5B95C02D9EC6";
paths = (
{
closed = 1;
nodes = (
"35 304 CURVE",
"35 99 OFFCURVE",
"169 -18 OFFCURVE",
"351 -18 CURVE SMOOTH",
"533 -18 OFFCURVE",
"668 95 OFFCURVE",
"668 304 CURVE SMOOTH",
"668 512 OFFCURVE",
"529 625 OFFCURVE",
"351 625 CURVE SMOOTH",
"173 625 OFFCURVE",
"35 512 OFFCURVE"
);
},
{
closed = 1;
nodes = (
"215 304 CURVE",
"215 424 OFFCURVE",
"270 484 OFFCURVE",
"352 484 CURVE SMOOTH",
"435 484 OFFCURVE",
"488 423 OFFCURVE",
"488 304 CURVE SMOOTH",
"488 183 OFFCURVE",
"434 123 OFFCURVE",
"351 123 CURVE SMOOTH",
"269 123 OFFCURVE",
"215 183 OFFCURVE"
);
},
{
closed = 1;
nodes = (
"367 666 LINE",
"387 658 OFFCURVE",
"406 653 OFFCURVE",
"424 653 CURVE SMOOTH",
"458 653 OFFCURVE",
"485 683 OFFCURVE",
"485 730 CURVE SMOOTH",
"485 735 OFFCURVE",
"485 741 OFFCURVE",
"484 746 CURVE",
"348 816 LINE SMOOTH",
"321 830 OFFCURVE",
"302 840 OFFCURVE",
"278 840 CURVE SMOOTH",
"233 840 OFFCURVE",
"205 810 OFFCURVE",
"205 768 CURVE SMOOTH",
"205 756 OFFCURVE",
"207 740 OFFCURVE",
"213 726 CURVE"
);
}
);
width = 703;
}
);
leftKerningGroup = O;
rightKerningGroup = O;
unicode = 00D2;
},
{
glyphname = Oacute;
lastChange = "2017-09-02 22:18:06 +0000";
layers = (
{
layerId = "95F0E3FF-6822-4CFD-805E-5B95C02D9EC6";
paths = (
{
closed = 1;
nodes = (
"35 304 CURVE",
"35 99 OFFCURVE",
"169 -18 OFFCURVE",
"351 -18 CURVE SMOOTH",
"533 -18 OFFCURVE",
"668 95 OFFCURVE",
"668 304 CURVE SMOOTH",
"668 512 OFFCURVE",
"529 625 OFFCURVE",
"351 625 CURVE SMOOTH",
"173 625 OFFCURVE",
"35 512 OFFCURVE"
);
},
{
closed = 1;
nodes = (
"215 304 CURVE",
"215 424 OFFCURVE",
"270 484 OFFCURVE",
"352 484 CURVE SMOOTH",
"435 484 OFFCURVE",
"488 423 OFFCURVE",
"488 304 CURVE SMOOTH",
"488 183 OFFCURVE",
"434 123 OFFCURVE",
"351 123 CURVE SMOOTH",
"269 123 OFFCURVE",
"215 183 OFFCURVE"
);
},
{
closed = 1;
nodes = (
"259 763 LINE",
"238 752 OFFCURVE",
"228 734 OFFCURVE",
"228 715 CURVE SMOOTH",
"228 686 OFFCURVE",
"254 659 OFFCURVE",
"292 651 CURVE",
"429 705 LINE SMOOTH",
"475 723 OFFCURVE",
"497 744 OFFCURVE",
"497 782 CURVE SMOOTH",
"497 816 OFFCURVE",
"471 846 OFFCURVE",
"406 851 CURVE"
);
}
);
width = 703;
}
);
leftKerningGroup = O;
rightKerningGroup = O;
unicode = 00D3;
},
{
glyphname = Ocircumflex;
lastChange = "2017-09-02 22:18:06 +0000";
layers = (
{
layerId = "95F0E3FF-6822-4CFD-805E-5B95C02D9EC6";
paths = (
{
closed = 1;
nodes = (
"35 304 CURVE",
"35 99 OFFCURVE",
"169 -18 OFFCURVE",
"351 -18 CURVE SMOOTH",
"533 -18 OFFCURVE",
"668 95 OFFCURVE",
"668 304 CURVE SMOOTH",
"668 512 OFFCURVE",
"529 625 OFFCURVE",
"351 625 CURVE SMOOTH",
"173 625 OFFCURVE",
"35 512 OFFCURVE"
);
},
{
closed = 1;
nodes = (
"215 304 CURVE",
"215 424 OFFCURVE",
"270 484 OFFCURVE",
"352 484 CURVE SMOOTH",
"435 484 OFFCURVE",
"488 423 OFFCURVE",
"488 304 CURVE SMOOTH",
"488 183 OFFCURVE",
"434 123 OFFCURVE",
"351 123 CURVE SMOOTH",
"269 123 OFFCURVE",
"215 183 OFFCURVE"
);
},
{
closed = 1;
nodes = (
"379 713 LINE",
"423 673 OFFCURVE",
"440 665 OFFCURVE",
"466 665 CURVE SMOOTH",
"507 665 OFFCURVE",
"526 697 OFFCURVE",
"526 742 CURVE",
"445 813 LINE",
"410 844 OFFCURVE",
"390 854 OFFCURVE",
"354 854 CURVE SMOOTH",
"328 854 OFFCURVE",
"299 841 OFFCURVE",
"266 818 CURVE SMOOTH",
"230 792 LINE SMOOTH",
"194 767 OFFCURVE",
"184 750 OFFCURVE",
"184 723 CURVE SMOOTH",
"184 688 OFFCURVE",
"215 662 OFFCURVE",
"255 662 CURVE",
"284 683 OFFCURVE",
"315 703 OFFCURVE",
"356 734 CURVE"
);
}
);
width = 703;
}
);
leftKerningGroup = O;
rightKerningGroup = O;
unicode = 00D4;
},
{
glyphname = Otilde;
lastChange = "2017-09-02 22:18:06 +0000";
layers = (
{
layerId = "95F0E3FF-6822-4CFD-805E-5B95C02D9EC6";
paths = (
{
closed = 1;
nodes = (
"35 304 CURVE",
"35 99 OFFCURVE",
"169 -18 OFFCURVE",
"351 -18 CURVE SMOOTH",
"533 -18 OFFCURVE",
"668 95 OFFCURVE",
"668 304 CURVE SMOOTH",
"668 512 OFFCURVE",
"529 625 OFFCURVE",
"351 625 CURVE SMOOTH",
"173 625 OFFCURVE",
"35 512 OFFCURVE"
);
},
{
closed = 1;
nodes = (
"215 304 CURVE",
"215 424 OFFCURVE",
"270 484 OFFCURVE",
"352 484 CURVE SMOOTH",
"435 484 OFFCURVE",
"488 423 OFFCURVE",
"488 304 CURVE SMOOTH",
"488 183 OFFCURVE",
"434 123 OFFCURVE",
"351 123 CURVE SMOOTH",
"269 123 OFFCURVE",
"215 183 OFFCURVE"
);
},
{
closed = 1;
nodes = (
"357 825 CURVE",
"302 841 OFFCURVE",
"284 843 OFFCURVE",
"266 843 CURVE SMOOTH",
"219 843 OFFCURVE",
"168 816 OFFCURVE",
"168 756 CURVE SMOOTH",
"168 709 OFFCURVE",
"203 676 OFFCURVE",
"250 676 CURVE",
"258 689 OFFCURVE",
"272 711 OFFCURVE",
"301 711 CURVE SMOOTH",
"313 711 OFFCURVE",
"325 707 OFFCURVE",
"343 702 CURVE SMOOTH",
"383 690 LINE SMOOTH",
"405 684 OFFCURVE",
"424 682 OFFCURVE",
"442 682 CURVE SMOOTH",
"498 682 OFFCURVE",
"540 710 OFFCURVE",
"540 769 CURVE SMOOTH",
"540 816 OFFCURVE",
"505 849 OFFCURVE",
"458 849 CURVE",
"451 837 OFFCURVE",
"436 814 OFFCURVE",
"407 814 CURVE SMOOTH",
"396 814 OFFCURVE",
"381 818 OFFCURVE"
);
}
);
width = 703;
}
);
leftKerningGroup = O;
rightKerningGroup = O;
unicode = 00D5;
},
{
glyphname = Odieresis;
lastChange = "2017-09-02 22:18:06 +0000";
layers = (
{
layerId = "95F0E3FF-6822-4CFD-805E-5B95C02D9EC6";
paths = (
{
closed = 1;
nodes = (
"35 304 CURVE",
"35 99 OFFCURVE",
"169 -18 OFFCURVE",
"351 -18 CURVE SMOOTH",
"533 -18 OFFCURVE",
"668 95 OFFCURVE",
"668 304 CURVE SMOOTH",
"668 512 OFFCURVE",
"529 625 OFFCURVE",
"351 625 CURVE SMOOTH",
"173 625 OFFCURVE",
"35 512 OFFCURVE"
);
},
{
closed = 1;
nodes = (
"215 304 CURVE",
"215 424 OFFCURVE",
"270 484 OFFCURVE",
"352 484 CURVE SMOOTH",
"435 484 OFFCURVE",
"488 423 OFFCURVE",
"488 304 CURVE SMOOTH",
"488 183 OFFCURVE",
"434 123 OFFCURVE",
"351 123 CURVE SMOOTH",
"269 123 OFFCURVE",
"215 183 OFFCURVE"
);
},
{
closed = 1;
nodes = (
"149 755 CURVE",
"149 708 OFFCURVE",
"187 669 OFFCURVE",
"236 669 CURVE SMOOTH",
"291 669 OFFCURVE",
"326 708 OFFCURVE",
"326 755 CURVE SMOOTH",
"326 801 OFFCURVE",
"291 841 OFFCURVE",
"236 841 CURVE SMOOTH",
"187 841 OFFCURVE",
"149 801 OFFCURVE"
);
},
{
closed = 1;
nodes = (
"373 755 CURVE",
"373 708 OFFCURVE",
"407 669 OFFCURVE",
"462 669 CURVE SMOOTH",
"513 669 OFFCURVE",
"550 708 OFFCURVE",
"550 755 CURVE SMOOTH",
"550 801 OFFCURVE",
"513 841 OFFCURVE",
"462 841 CURVE SMOOTH",
"407 841 OFFCURVE",
"373 801 OFFCURVE"
);
}
);
width = 703;
}
);
leftKerningGroup = O;
rightKerningGroup = O;
unicode = 00D6;
},
{
glyphname = multiply;
lastChange = "2017-09-02 22:18:06 +0000";
layers = (
{
layerId = "95F0E3FF-6822-4CFD-805E-5B95C02D9EC6";
paths = (
{
closed = 1;
nodes = (
"256 376 LINE",
"162 478 LINE SMOOTH",
"150 492 OFFCURVE",
"134 500 OFFCURVE",
"116 500 CURVE SMOOTH",
"77 500 OFFCURVE",
"38 459 OFFCURVE",
"28 418 CURVE",
"152 291 LINE",
"59 191 LINE SMOOTH",
"41 172 OFFCURVE",
"33 157 OFFCURVE",
"33 143 CURVE SMOOTH",
"33 108 OFFCURVE",
"73 68 OFFCURVE",
"126 60 CURVE",
"250 194 LINE",
"333 94 LINE SMOOTH",
"348 76 OFFCURVE",
"371 67 OFFCURVE",
"386 67 CURVE SMOOTH",
"430 67 OFFCURVE",
"462 96 OFFCURVE",
"476 143 CURVE",
"353 285 LINE",
"432 367 LINE SMOOTH",
"451 386 OFFCURVE",
"458 402 OFFCURVE",
"458 418 CURVE SMOOTH",
"458 457 OFFCURVE",
"420 492 OFFCURVE",
"379 505 CURVE"
);
}
);
width = 504;
}
);
leftKerningGroup = hyphen;
rightKerningGroup = hyphen;
unicode = 00D7;
},
{
glyphname = Oslash;
lastChange = "2017-09-02 22:18:06 +0000";
layers = (
{
layerId = "95F0E3FF-6822-4CFD-805E-5B95C02D9EC6";
paths = (
{
closed = 1;
nodes = (
"35 304 CURVE",
"35 198 OFFCURVE",
"71 116 OFFCURVE",
"130 61 CURVE",
"117 39 OFFCURVE",
"103 10 OFFCURVE",
"103 -8 CURVE SMOOTH",
"103 -41 OFFCURVE",
"138 -69 OFFCURVE",
"193 -69 CURVE",
"234 0 LINE",
"270 -12 OFFCURVE",
"309 -18 OFFCURVE",
"351 -18 CURVE SMOOTH",
"533 -18 OFFCURVE",
"668 95 OFFCURVE",
"668 304 CURVE SMOOTH",
"668 412 OFFCURVE",
"630 494 OFFCURVE",
"569 549 CURVE",
"583 571 OFFCURVE",
"597 598 OFFCURVE",
"597 619 CURVE SMOOTH",
"597 649 OFFCURVE",
"560 677 OFFCURVE",
"507 677 CURVE",
"465 607 LINE",
"430 619 OFFCURVE",
"391 625 OFFCURVE",
"351 625 CURVE SMOOTH",
"173 625 OFFCURVE",
"35 512 OFFCURVE"
);
},
{
closed = 1;
nodes = (
"351 123 CURVE",
"338 123 OFFCURVE",
"325 124 OFFCURVE",
"313 127 CURVE",
"477 398 LINE",
"487 372 OFFCURVE",
"493 341 OFFCURVE",
"493 304 CURVE SMOOTH",
"493 183 OFFCURVE",
"434 123 OFFCURVE"
);
},
{
closed = 1;
nodes = (
"210 304 CURVE",
"210 424 OFFCURVE",
"270 484 OFFCURVE",
"352 484 CURVE SMOOTH",
"365 484 OFFCURVE",
"377 482 OFFCURVE",
"389 479 CURVE",
"226 208 LINE",
"216 234 OFFCURVE",
"210 266 OFFCURVE"
);
}
);
width = 703;
}
);
leftKerningGroup = O;
rightKerningGroup = O;
unicode = 00D8;
},
{
glyphname = Ugrave;
lastChange = "2017-09-02 22:18:06 +0000";
layers = (
{
layerId = "95F0E3FF-6822-4CFD-805E-5B95C02D9EC6";
paths = (
{
closed = 1;
nodes = (
"602 532 LINE",
"602 601 OFFCURVE",
"569 615 OFFCURVE",
"508 615 CURVE SMOOTH",
"479 615 OFFCURVE",
"441 609 OFFCURVE",
"427 606 CURVE",
"427 227 LINE SMOOTH",
"427 164 OFFCURVE",
"389 125 OFFCURVE",
"332 125 CURVE SMOOTH",
"276 125 OFFCURVE",
"237 164 OFFCURVE",
"237 227 CURVE SMOOTH",
"237 532 LINE SMOOTH",
"237 601 OFFCURVE",
"204 615 OFFCURVE",
"143 615 CURVE SMOOTH",
"114 615 OFFCURVE",
"76 609 OFFCURVE",
"62 606 CURVE",
"62 224 LINE SMOOTH",
"62 79 OFFCURVE",
"164 -16 OFFCURVE",
"332 -16 CURVE SMOOTH",
"500 -16 OFFCURVE",
"602 79 OFFCURVE",
"602 224 CURVE SMOOTH"
);
},
{
closed = 1;
nodes = (
"335 666 LINE",
"355 658 OFFCURVE",
"374 653 OFFCURVE",
"392 653 CURVE SMOOTH",
"426 653 OFFCURVE",
"453 683 OFFCURVE",
"453 730 CURVE SMOOTH",
"453 735 OFFCURVE",
"453 741 OFFCURVE",
"452 746 CURVE",
"316 816 LINE SMOOTH",
"289 830 OFFCURVE",
"270 840 OFFCURVE",
"246 840 CURVE SMOOTH",
"201 840 OFFCURVE",
"173 810 OFFCURVE",
"173 768 CURVE SMOOTH",
"173 756 OFFCURVE",
"175 740 OFFCURVE",
"181 726 CURVE"
);
}
);
width = 664;
}
);
leftKerningGroup = U;
rightKerningGroup = U;
unicode = 00D9;
},
{
glyphname = Uacute;
lastChange = "2017-09-02 22:18:06 +0000";
layers = (
{
layerId = "95F0E3FF-6822-4CFD-805E-5B95C02D9EC6";
paths = (
{
closed = 1;
nodes = (
"602 532 LINE",
"602 601 OFFCURVE",
"569 615 OFFCURVE",
"508 615 CURVE SMOOTH",
"479 615 OFFCURVE",
"441 609 OFFCURVE",
"427 606 CURVE",
"427 227 LINE SMOOTH",
"427 164 OFFCURVE",
"389 125 OFFCURVE",
"332 125 CURVE SMOOTH",
"276 125 OFFCURVE",
"237 164 OFFCURVE",
"237 227 CURVE SMOOTH",
"237 532 LINE SMOOTH",
"237 601 OFFCURVE",
"204 615 OFFCURVE",
"143 615 CURVE SMOOTH",
"114 615 OFFCURVE",
"76 609 OFFCURVE",
"62 606 CURVE",
"62 224 LINE SMOOTH",
"62 79 OFFCURVE",
"164 -16 OFFCURVE",
"332 -16 CURVE SMOOTH",
"500 -16 OFFCURVE",
"602 79 OFFCURVE",
"602 224 CURVE SMOOTH"
);
},
{
closed = 1;
nodes = (
"242 763 LINE",
"221 752 OFFCURVE",
"211 734 OFFCURVE",
"211 715 CURVE SMOOTH",
"211 686 OFFCURVE",
"237 659 OFFCURVE",
"275 651 CURVE",
"412 705 LINE SMOOTH",
"458 723 OFFCURVE",
"480 744 OFFCURVE",
"480 782 CURVE SMOOTH",
"480 816 OFFCURVE",
"454 846 OFFCURVE",
"389 851 CURVE"
);
}
);
width = 664;
}
);
leftKerningGroup = U;
rightKerningGroup = U;
unicode = 00DA;
},
{
glyphname = Ucircumflex;
lastChange = "2017-09-02 22:18:06 +0000";
layers = (
{
layerId = "95F0E3FF-6822-4CFD-805E-5B95C02D9EC6";
paths = (
{
closed = 1;
nodes = (
"602 532 LINE",
"602 601 OFFCURVE",
"569 615 OFFCURVE",
"508 615 CURVE SMOOTH",
"479 615 OFFCURVE",
"441 609 OFFCURVE",
"427 606 CURVE",
"427 227 LINE SMOOTH",
"427 164 OFFCURVE",
"389 125 OFFCURVE",
"332 125 CURVE SMOOTH",
"276 125 OFFCURVE",
"237 164 OFFCURVE",
"237 227 CURVE SMOOTH",
"237 532 LINE SMOOTH",
"237 601 OFFCURVE",
"204 615 OFFCURVE",
"143 615 CURVE SMOOTH",
"114 615 OFFCURVE",
"76 609 OFFCURVE",
"62 606 CURVE",
"62 224 LINE SMOOTH",
"62 79 OFFCURVE",
"164 -16 OFFCURVE",
"332 -16 CURVE SMOOTH",
"500 -16 OFFCURVE",
"602 79 OFFCURVE",
"602 224 CURVE SMOOTH"
);
},
{
closed = 1;
nodes = (
"360 713 LINE",
"404 673 OFFCURVE",
"421 665 OFFCURVE",
"447 665 CURVE SMOOTH",
"488 665 OFFCURVE",
"507 697 OFFCURVE",
"507 742 CURVE",
"426 813 LINE",
"391 844 OFFCURVE",
"371 854 OFFCURVE",
"335 854 CURVE SMOOTH",
"309 854 OFFCURVE",
"280 841 OFFCURVE",
"247 818 CURVE SMOOTH",
"211 792 LINE SMOOTH",
"175 767 OFFCURVE",
"165 750 OFFCURVE",
"165 723 CURVE SMOOTH",
"165 688 OFFCURVE",
"196 662 OFFCURVE",
"236 662 CURVE",
"265 683 OFFCURVE",
"296 703 OFFCURVE",
"337 734 CURVE"
);
}
);
width = 664;
}
);
leftKerningGroup = U;
rightKerningGroup = U;
unicode = 00DB;
},
{
glyphname = Udieresis;
lastChange = "2017-09-02 22:18:06 +0000";
layers = (
{
layerId = "95F0E3FF-6822-4CFD-805E-5B95C02D9EC6";
paths = (
{
closed = 1;
nodes = (
"602 532 LINE",
"602 601 OFFCURVE",
"569 615 OFFCURVE",
"508 615 CURVE SMOOTH",
"479 615 OFFCURVE",
"441 609 OFFCURVE",
"427 606 CURVE",
"427 227 LINE SMOOTH",
"427 164 OFFCURVE",
"389 125 OFFCURVE",
"332 125 CURVE SMOOTH",
"276 125 OFFCURVE",
"237 164 OFFCURVE",
"237 227 CURVE SMOOTH",
"237 532 LINE SMOOTH",
"237 601 OFFCURVE",
"204 615 OFFCURVE",
"143 615 CURVE SMOOTH",
"114 615 OFFCURVE",
"76 609 OFFCURVE",
"62 606 CURVE",
"62 224 LINE SMOOTH",
"62 79 OFFCURVE",
"164 -16 OFFCURVE",
"332 -16 CURVE SMOOTH",
"500 -16 OFFCURVE",
"602 79 OFFCURVE",
"602 224 CURVE SMOOTH"
);
},
{
closed = 1;
nodes = (
"129 755 CURVE",
"129 708 OFFCURVE",
"167 669 OFFCURVE",
"216 669 CURVE SMOOTH",
"271 669 OFFCURVE",
"306 708 OFFCURVE",
"306 755 CURVE SMOOTH",
"306 801 OFFCURVE",
"271 841 OFFCURVE",
"216 841 CURVE SMOOTH",
"167 841 OFFCURVE",
"129 801 OFFCURVE"
);
},
{
closed = 1;
nodes = (
"353 755 CURVE",
"353 708 OFFCURVE",
"387 669 OFFCURVE",
"442 669 CURVE SMOOTH",
"493 669 OFFCURVE",
"530 708 OFFCURVE",
"530 755 CURVE SMOOTH",
"530 801 OFFCURVE",
"493 841 OFFCURVE",
"442 841 CURVE SMOOTH",
"387 841 OFFCURVE",
"353 801 OFFCURVE"
);
}
);
width = 664;
}
);
leftKerningGroup = U;
rightKerningGroup = U;
unicode = 00DC;
},
{
glyphname = Yacute;
lastChange = "2017-09-02 22:18:06 +0000";
layers = (
{
layerId = "95F0E3FF-6822-4CFD-805E-5B95C02D9EC6";
paths = (
{
closed = 1;
nodes = (
"383 207 LINE",
"540 461 OFFCURVE",
"557 503 OFFCURVE",
"557 535 CURVE SMOOTH",
"557 584 OFFCURVE",
"519 609 OFFCURVE",
"473 609 CURVE SMOOTH",
"446 609 OFFCURVE",
"415 602 OFFCURVE",
"391 590 CURVE",
"353 495 OFFCURVE",
"337 449 OFFCURVE",
"300 366 CURVE",
"294 366 LINE",
"211 533 LINE",
"182 592 OFFCURVE",
"153 609 OFFCURVE",
"101 609 CURVE SMOOTH",
"57 609 OFFCURVE",
"27 585 OFFCURVE",
"10 561 CURVE",
"50 460 OFFCURVE",
"145 310 OFFCURVE",
"212 211 CURVE",
"212 76 LINE SMOOTH",
"212 9 OFFCURVE",
"243 -5 OFFCURVE",
"304 -5 CURVE SMOOTH",
"333 -5 OFFCURVE",
"369 0 OFFCURVE",
"383 4 CURVE"
);
},
{
closed = 1;
nodes = (
"208 763 LINE",
"187 752 OFFCURVE",
"177 734 OFFCURVE",
"177 715 CURVE SMOOTH",
"177 686 OFFCURVE",
"203 659 OFFCURVE",
"241 651 CURVE",
"378 705 LINE SMOOTH",
"424 723 OFFCURVE",
"446 744 OFFCURVE",
"446 782 CURVE SMOOTH",
"446 816 OFFCURVE",
"420 846 OFFCURVE",
"355 851 CURVE"
);
}
);
width = 574;
}
);
leftKerningGroup = Y;
rightKerningGroup = Y;
unicode = 00DD;
},
{
glyphname = Thorn;
lastChange = "2017-09-02 22:18:06 +0000";
layers = (
{
layerId = "95F0E3FF-6822-4CFD-805E-5B95C02D9EC6";
paths = (
{
closed = 1;
nodes = (
"287 386 LINE",
"342 386 OFFCURVE",
"374 360 OFFCURVE",
"374 307 CURVE SMOOTH",
"374 254 OFFCURVE",
"342 228 OFFCURVE",
"287 228 CURVE SMOOTH",
"234 228 LINE",
"234 386 LINE"
);
},
{
closed = 1;
nodes = (
"235 540 LINE",
"235 609 OFFCURVE",
"203 623 OFFCURVE",
"141 623 CURVE SMOOTH",
"111 623 OFFCURVE",
"74 618 OFFCURVE",
"60 614 CURVE",
"60 75 LINE SMOOTH",
"60 6 OFFCURVE",
"92 -8 OFFCURVE",
"154 -8 CURVE SMOOTH",
"184 -8 OFFCURVE",
"221 -3 OFFCURVE",
"235 1 CURVE",
"235 91 LINE",
"306 91 LINE SMOOTH",
"470 91 OFFCURVE",
"552 177 OFFCURVE",
"552 307 CURVE SMOOTH",
"552 437 OFFCURVE",
"470 523 OFFCURVE",
"306 523 CURVE SMOOTH",
"235 523 LINE"
);
}
);
width = 597;
}
);
unicode = 00DE;
},
{
glyphname = germandbls;
lastChange = "2017-09-02 22:18:06 +0000";
layers = (
{
layerId = "95F0E3FF-6822-4CFD-805E-5B95C02D9EC6";
paths = (
{
closed = 1;
nodes = (
"54 72 LINE SMOOTH",
"54 5 OFFCURVE",
"89 -8 OFFCURVE",
"148 -8 CURVE SMOOTH",
"178 -8 OFFCURVE",
"211 -3 OFFCURVE",
"224 1 CURVE",
"224 426 LINE SMOOTH",
"224 483 OFFCURVE",
"258 513 OFFCURVE",
"306 513 CURVE SMOOTH",
"351 513 OFFCURVE",
"382 487 OFFCURVE",
"386 443 CURVE",
"319 421 OFFCURVE",
"275 380 OFFCURVE",
"275 322 CURVE SMOOTH",
"275 253 OFFCURVE",
"311 215 OFFCURVE",
"380 178 CURVE SMOOTH",
"406 164 OFFCURVE",
"420 154 OFFCURVE",
"420 135 CURVE SMOOTH",
"420 116 OFFCURVE",
"401 106 OFFCURVE",
"374 106 CURVE SMOOTH",
"348 106 OFFCURVE",
"324 114 OFFCURVE",
"306 124 CURVE",
"287 111 OFFCURVE",
"273 90 OFFCURVE",
"273 59 CURVE SMOOTH",
"273 8 OFFCURVE",
"327 -17 OFFCURVE",
"406 -17 CURVE SMOOTH",
"503 -17 OFFCURVE",
"594 32 OFFCURVE",
"594 139 CURVE SMOOTH",
"594 217 OFFCURVE",
"548 256 OFFCURVE",
"476 289 CURVE SMOOTH",
"460 296 OFFCURVE",
"449 306 OFFCURVE",
"449 320 CURVE SMOOTH",
"449 335 OFFCURVE",
"459 347 OFFCURVE",
"477 354 CURVE SMOOTH",
"521 372 LINE SMOOTH",
"547 383 OFFCURVE",
"556 405 OFFCURVE",
"556 438 CURVE SMOOTH",
"556 572 OFFCURVE",
"450 651 OFFCURVE",
"304 651 CURVE SMOOTH",
"163 651 OFFCURVE",
"54 581 OFFCURVE",
"54 436 CURVE SMOOTH"
);
}
);
width = 624;
}
);
unicode = 00DF;
},
{
glyphname = agrave;
lastChange = "2017-09-02 22:18:06 +0000";
layers = (
{
layerId = "95F0E3FF-6822-4CFD-805E-5B95C02D9EC6";
paths = (
{
closed = 1;
nodes = (
"260 108 CURVE",
"211 108 OFFCURVE",
"192 126 OFFCURVE",
"192 153 CURVE SMOOTH",
"192 180 OFFCURVE",
"219 192 OFFCURVE",
"256 195 CURVE SMOOTH",
"328 201 LINE",
"328 121 LINE",
"315 113 OFFCURVE",
"283 108 OFFCURVE"
);
},
{
closed = 1;
nodes = (
"252 501 CURVE",
"205 501 OFFCURVE",
"148 495 OFFCURVE",
"109 480 CURVE SMOOTH",
"74 466 OFFCURVE",
"58 446 OFFCURVE",
"58 412 CURVE SMOOTH",
"58 385 OFFCURVE",
"72 358 OFFCURVE",
"89 346 CURVE",
"127 362 OFFCURVE",
"178 374 OFFCURVE",
"228 374 CURVE SMOOTH",
"292 374 OFFCURVE",
"327 358 OFFCURVE",
"327 320 CURVE SMOOTH",
"327 313 LINE",
"196 299 LINE",
"82 287 OFFCURVE",
"28 239 OFFCURVE",
"28 147 CURVE SMOOTH",
"28 37 OFFCURVE",
"120 -16 OFFCURVE",
"260 -16 CURVE SMOOTH",
"338 -16 OFFCURVE",
"400 -3 OFFCURVE",
"443 23 CURVE SMOOTH",
"469 39 OFFCURVE",
"492 59 OFFCURVE",
"492 94 CURVE SMOOTH",
"492 318 LINE SMOOTH",
"492 443 OFFCURVE",
"397 501 OFFCURVE"
);
},
{
closed = 1;
nodes = (
"265 554 LINE",
"286 540 OFFCURVE",
"308 530 OFFCURVE",
"329 530 CURVE SMOOTH",
"362 530 OFFCURVE",
"392 564 OFFCURVE",
"395 614 CURVE",
"282 709 LINE SMOOTH",
"254 733 OFFCURVE",
"235 747 OFFCURVE",
"202 747 CURVE SMOOTH",
"158 747 OFFCURVE",
"131 714 OFFCURVE",
"131 663 CURVE SMOOTH",
"131 658 OFFCURVE",
"132 648 OFFCURVE",
"133 643 CURVE"
);
}
);
width = 544;
}
);
leftKerningGroup = a;
rightKerningGroup = a;
unicode = 00E0;
},
{
glyphname = aacute;
lastChange = "2017-09-02 22:18:06 +0000";
layers = (
{
layerId = "95F0E3FF-6822-4CFD-805E-5B95C02D9EC6";
paths = (
{
closed = 1;
nodes = (
"260 108 CURVE",
"211 108 OFFCURVE",
"192 126 OFFCURVE",
"192 153 CURVE SMOOTH",
"192 180 OFFCURVE",
"219 192 OFFCURVE",
"256 195 CURVE SMOOTH",
"328 201 LINE",
"328 121 LINE",
"315 113 OFFCURVE",
"283 108 OFFCURVE"
);
},
{
closed = 1;
nodes = (
"252 501 CURVE",
"205 501 OFFCURVE",
"148 495 OFFCURVE",
"109 480 CURVE SMOOTH",
"74 466 OFFCURVE",
"58 446 OFFCURVE",
"58 412 CURVE SMOOTH",
"58 385 OFFCURVE",
"72 358 OFFCURVE",
"89 346 CURVE",
"127 362 OFFCURVE",
"178 374 OFFCURVE",
"228 374 CURVE SMOOTH",
"292 374 OFFCURVE",
"327 358 OFFCURVE",
"327 320 CURVE SMOOTH",
"327 313 LINE",
"196 299 LINE",
"82 287 OFFCURVE",
"28 239 OFFCURVE",
"28 147 CURVE SMOOTH",
"28 37 OFFCURVE",
"120 -16 OFFCURVE",
"260 -16 CURVE SMOOTH",
"338 -16 OFFCURVE",
"400 -3 OFFCURVE",
"443 23 CURVE SMOOTH",
"469 39 OFFCURVE",
"492 59 OFFCURVE",
"492 94 CURVE SMOOTH",
"492 318 LINE SMOOTH",
"492 443 OFFCURVE",
"397 501 OFFCURVE"
);
},
{
closed = 1;
nodes = (
"152 645 LINE",
"134 632 OFFCURVE",
"126 615 OFFCURVE",
"126 599 CURVE SMOOTH",
"126 567 OFFCURVE",
"158 534 OFFCURVE",
"198 530 CURVE",
"327 598 LINE SMOOTH",
"370 621 OFFCURVE",
"387 642 OFFCURVE",
"387 676 CURVE SMOOTH",
"387 713 OFFCURVE",
"357 744 OFFCURVE",
"288 744 CURVE"
);
}
);
width = 544;
}
);
leftKerningGroup = a;
rightKerningGroup = a;
unicode = 00E1;
},
{
glyphname = acircumflex;
lastChange = "2017-09-02 22:18:06 +0000";
layers = (
{
layerId = "95F0E3FF-6822-4CFD-805E-5B95C02D9EC6";
paths = (
{
closed = 1;
nodes = (
"260 108 CURVE",
"211 108 OFFCURVE",
"192 126 OFFCURVE",
"192 153 CURVE SMOOTH",
"192 180 OFFCURVE",
"219 192 OFFCURVE",
"256 195 CURVE SMOOTH",
"328 201 LINE",
"328 121 LINE",
"315 113 OFFCURVE",
"283 108 OFFCURVE"
);
},
{
closed = 1;
nodes = (
"252 501 CURVE",
"205 501 OFFCURVE",
"148 495 OFFCURVE",
"109 480 CURVE SMOOTH",
"74 466 OFFCURVE",
"58 446 OFFCURVE",
"58 412 CURVE SMOOTH",
"58 385 OFFCURVE",
"72 358 OFFCURVE",
"89 346 CURVE",
"127 362 OFFCURVE",
"178 374 OFFCURVE",
"228 374 CURVE SMOOTH",
"292 374 OFFCURVE",
"327 358 OFFCURVE",
"327 320 CURVE SMOOTH",
"327 313 LINE",
"196 299 LINE",
"82 287 OFFCURVE",
"28 239 OFFCURVE",
"28 147 CURVE SMOOTH",
"28 37 OFFCURVE",
"120 -16 OFFCURVE",
"260 -16 CURVE SMOOTH",
"338 -16 OFFCURVE",
"400 -3 OFFCURVE",
"443 23 CURVE SMOOTH",
"469 39 OFFCURVE",
"492 59 OFFCURVE",
"492 94 CURVE SMOOTH",
"492 318 LINE SMOOTH",
"492 443 OFFCURVE",
"397 501 OFFCURVE"
);
},
{
closed = 1;
nodes = (
"304 590 LINE",
"345 547 OFFCURVE",
"358 542 OFFCURVE",
"384 542 CURVE SMOOTH",
"425 542 OFFCURVE",
"448 571 OFFCURVE",
"448 612 CURVE SMOOTH",
"448 618 OFFCURVE",
"447 624 OFFCURVE",
"446 630 CURVE",
"376 692 LINE SMOOTH",
"324 738 OFFCURVE",
"310 744 OFFCURVE",
"274 744 CURVE SMOOTH",
"248 744 OFFCURVE",
"223 735 OFFCURVE",
"191 712 CURVE SMOOTH",
"142 677 LINE SMOOTH",
"107 652 OFFCURVE",
"94 633 OFFCURVE",
"94 606 CURVE SMOOTH",
"94 568 OFFCURVE",
"127 540 OFFCURVE",
"179 540 CURVE",
"204 562 OFFCURVE",
"225 584 OFFCURVE",
"270 622 CURVE"
);
}
);
width = 544;
}
);
leftKerningGroup = a;
rightKerningGroup = a;
unicode = 00E2;
},
{
glyphname = atilde;
lastChange = "2017-09-02 22:18:06 +0000";
layers = (
{
layerId = "95F0E3FF-6822-4CFD-805E-5B95C02D9EC6";
paths = (
{
closed = 1;
nodes = (
"260 108 CURVE",
"211 108 OFFCURVE",
"192 126 OFFCURVE",
"192 153 CURVE SMOOTH",
"192 180 OFFCURVE",
"219 192 OFFCURVE",
"256 195 CURVE SMOOTH",
"328 201 LINE",
"328 121 LINE",
"315 113 OFFCURVE",
"283 108 OFFCURVE"
);
},
{
closed = 1;
nodes = (
"252 501 CURVE",
"205 501 OFFCURVE",
"148 495 OFFCURVE",
"109 480 CURVE SMOOTH",
"74 466 OFFCURVE",
"58 446 OFFCURVE",
"58 412 CURVE SMOOTH",
"58 385 OFFCURVE",
"72 358 OFFCURVE",
"89 346 CURVE",
"127 362 OFFCURVE",
"178 374 OFFCURVE",
"228 374 CURVE SMOOTH",
"292 374 OFFCURVE",
"327 358 OFFCURVE",
"327 320 CURVE SMOOTH",
"327 313 LINE",
"196 299 LINE",
"82 287 OFFCURVE",
"28 239 OFFCURVE",
"28 147 CURVE SMOOTH",
"28 37 OFFCURVE",
"120 -16 OFFCURVE",
"260 -16 CURVE SMOOTH",
"338 -16 OFFCURVE",
"400 -3 OFFCURVE",
"443 23 CURVE SMOOTH",
"469 39 OFFCURVE",
"492 59 OFFCURVE",
"492 94 CURVE SMOOTH",
"492 318 LINE SMOOTH",
"492 443 OFFCURVE",
"397 501 OFFCURVE"
);
},
{
closed = 1;
nodes = (
"274 697 CURVE",
"219 713 OFFCURVE",
"201 715 OFFCURVE",
"183 715 CURVE SMOOTH",
"136 715 OFFCURVE",
"85 688 OFFCURVE",
"85 628 CURVE SMOOTH",
"85 581 OFFCURVE",
"120 548 OFFCURVE",
"167 548 CURVE",
"175 561 OFFCURVE",
"189 583 OFFCURVE",
"218 583 CURVE SMOOTH",
"230 583 OFFCURVE",
"242 579 OFFCURVE",
"260 574 CURVE SMOOTH",
"300 562 LINE SMOOTH",
"322 556 OFFCURVE",
"341 554 OFFCURVE",
"359 554 CURVE SMOOTH",
"415 554 OFFCURVE",
"457 582 OFFCURVE",
"457 641 CURVE SMOOTH",
"457 688 OFFCURVE",
"422 721 OFFCURVE",
"375 721 CURVE",
"368 709 OFFCURVE",
"353 686 OFFCURVE",
"324 686 CURVE SMOOTH",
"313 686 OFFCURVE",
"298 690 OFFCURVE"
);
}
);
width = 544;
}
);
leftKerningGroup = a;
rightKerningGroup = a;
unicode = 00E3;
},
{
glyphname = adieresis;
lastChange = "2017-09-02 22:18:06 +0000";
layers = (
{
layerId = "95F0E3FF-6822-4CFD-805E-5B95C02D9EC6";
paths = (
{
closed = 1;
nodes = (
"260 108 CURVE",
"211 108 OFFCURVE",
"192 126 OFFCURVE",
"192 153 CURVE SMOOTH",
"192 180 OFFCURVE",
"219 192 OFFCURVE",
"256 195 CURVE SMOOTH",
"328 201 LINE",
"328 121 LINE",
"315 113 OFFCURVE",
"283 108 OFFCURVE"
);
},
{
closed = 1;
nodes = (
"252 501 CURVE",
"205 501 OFFCURVE",
"148 495 OFFCURVE",
"109 480 CURVE SMOOTH",
"74 466 OFFCURVE",
"58 446 OFFCURVE",
"58 412 CURVE SMOOTH",
"58 385 OFFCURVE",
"72 358 OFFCURVE",
"89 346 CURVE",
"127 362 OFFCURVE",
"178 374 OFFCURVE",
"228 374 CURVE SMOOTH",
"292 374 OFFCURVE",
"327 358 OFFCURVE",
"327 320 CURVE SMOOTH",
"327 313 LINE",
"196 299 LINE",
"82 287 OFFCURVE",
"28 239 OFFCURVE",
"28 147 CURVE SMOOTH",
"28 37 OFFCURVE",
"120 -16 OFFCURVE",
"260 -16 CURVE SMOOTH",
"338 -16 OFFCURVE",
"400 -3 OFFCURVE",
"443 23 CURVE SMOOTH",
"469 39 OFFCURVE",
"492 59 OFFCURVE",
"492 94 CURVE SMOOTH",
"492 318 LINE SMOOTH",
"492 443 OFFCURVE",
"397 501 OFFCURVE"
);
},
{
closed = 1;
nodes = (
"75 637 CURVE",
"75 590 OFFCURVE",
"113 551 OFFCURVE",
"162 551 CURVE SMOOTH",
"217 551 OFFCURVE",
"252 590 OFFCURVE",
"252 637 CURVE SMOOTH",
"252 683 OFFCURVE",
"217 723 OFFCURVE",
"162 723 CURVE SMOOTH",
"113 723 OFFCURVE",
"75 683 OFFCURVE"
);
},
{
closed = 1;
nodes = (
"299 637 CURVE",
"299 590 OFFCURVE",
"333 551 OFFCURVE",
"388 551 CURVE SMOOTH",
"439 551 OFFCURVE",
"476 590 OFFCURVE",
"476 637 CURVE SMOOTH",
"476 683 OFFCURVE",
"439 723 OFFCURVE",
"388 723 CURVE SMOOTH",
"333 723 OFFCURVE",
"299 683 OFFCURVE"
);
}
);
width = 544;
}
);
leftKerningGroup = a;
rightKerningGroup = a;
unicode = 00E4;
},
{
glyphname = aring;
lastChange = "2017-09-02 22:18:06 +0000";
layers = (
{
layerId = "95F0E3FF-6822-4CFD-805E-5B95C02D9EC6";
paths = (
{
closed = 1;
nodes = (
"260 108 CURVE",
"211 108 OFFCURVE",
"192 126 OFFCURVE",
"192 153 CURVE SMOOTH",
"192 180 OFFCURVE",
"219 192 OFFCURVE",
"256 195 CURVE SMOOTH",
"328 201 LINE",
"328 121 LINE",
"315 113 OFFCURVE",
"283 108 OFFCURVE"
);
},
{
closed = 1;
nodes = (
"252 501 CURVE",
"205 501 OFFCURVE",
"148 495 OFFCURVE",
"109 480 CURVE SMOOTH",
"74 466 OFFCURVE",
"58 446 OFFCURVE",
"58 412 CURVE SMOOTH",
"58 385 OFFCURVE",
"72 358 OFFCURVE",
"89 346 CURVE",
"127 362 OFFCURVE",
"178 374 OFFCURVE",
"228 374 CURVE SMOOTH",
"292 374 OFFCURVE",
"327 358 OFFCURVE",
"327 320 CURVE SMOOTH",
"327 313 LINE",
"196 299 LINE",
"82 287 OFFCURVE",
"28 239 OFFCURVE",
"28 147 CURVE SMOOTH",
"28 37 OFFCURVE",
"120 -16 OFFCURVE",
"260 -16 CURVE SMOOTH",
"338 -16 OFFCURVE",
"400 -3 OFFCURVE",
"443 23 CURVE SMOOTH",
"469 39 OFFCURVE",
"492 59 OFFCURVE",
"492 94 CURVE SMOOTH",
"492 318 LINE SMOOTH",
"492 443 OFFCURVE",
"397 501 OFFCURVE"
);
},
{
closed = 1;
nodes = (
"136 641 CURVE",
"136 579 OFFCURVE",
"187 530 OFFCURVE",
"268 530 CURVE SMOOTH",
"354 530 OFFCURVE",
"405 579 OFFCURVE",
"405 641 CURVE SMOOTH",
"405 703 OFFCURVE",
"354 753 OFFCURVE",
"268 753 CURVE SMOOTH",
"187 753 OFFCURVE",
"136 703 OFFCURVE"
);
},
{
closed = 1;
nodes = (
"237 641 CURVE",
"237 662 OFFCURVE",
"252 675 OFFCURVE",
"269 675 CURVE SMOOTH",
"289 675 OFFCURVE",
"303 662 OFFCURVE",
"303 641 CURVE SMOOTH",
"303 620 OFFCURVE",
"289 607 OFFCURVE",
"269 607 CURVE SMOOTH",
"252 607 OFFCURVE",
"237 620 OFFCURVE"
);
}
);
width = 544;
}
);
leftKerningGroup = a;
rightKerningGroup = a;
unicode = 00E5;
},
{
glyphname = ae;
lastChange = "2017-09-02 22:18:06 +0000";
layers = (
{
layerId = "95F0E3FF-6822-4CFD-805E-5B95C02D9EC6";
paths = (
{
closed = 1;
nodes = (
"592 -16 CURVE SMOOTH",
"638 -16 OFFCURVE",
"696 -9 OFFCURVE",
"739 13 CURVE SMOOTH",
"766 27 OFFCURVE",
"781 50 OFFCURVE",
"781 80 CURVE SMOOTH",
"781 107 OFFCURVE",
"764 133 OFFCURVE",
"743 146 CURVE",
"712 128 OFFCURVE",
"660 111 OFFCURVE",
"606 111 CURVE SMOOTH",
"548 111 OFFCURVE",
"497 133 OFFCURVE",
"483 177 CURVE",
"730 214 LINE SMOOTH",
"775 221 OFFCURVE",
"802 244 OFFCURVE",
"802 289 CURVE SMOOTH",
"802 412 OFFCURVE",
"705 501 OFFCURVE",
"564 501 CURVE SMOOTH",
"509 501 OFFCURVE",
"455 484 OFFCURVE",
"413 448 CURVE",
"374 484 OFFCURVE",
"316 501 OFFCURVE",
"247 501 CURVE SMOOTH",
"202 501 OFFCURVE",
"148 495 OFFCURVE",
"109 480 CURVE SMOOTH",
"74 466 OFFCURVE",
"58 446 OFFCURVE",
"58 412 CURVE SMOOTH",
"58 385 OFFCURVE",
"72 358 OFFCURVE",
"89 346 CURVE",
"127 362 OFFCURVE",
"175 374 OFFCURVE",
"223 374 CURVE SMOOTH",
"276 374 OFFCURVE",
"310 358 OFFCURVE",
"310 320 CURVE SMOOTH",
"310 313 LINE",
"196 299 LINE SMOOTH",
"82 285 OFFCURVE",
"28 239 OFFCURVE",
"28 147 CURVE SMOOTH",
"28 37 OFFCURVE",
"120 -16 OFFCURVE",
"256 -16 CURVE SMOOTH",
"317 -16 OFFCURVE",
"381 -4 OFFCURVE",
"432 31 CURVE",
"475 0 OFFCURVE",
"531 -16 OFFCURVE"
);
},
{
closed = 1;
nodes = (
"564 377 CURVE SMOOTH",
"613 377 OFFCURVE",
"638 344 OFFCURVE",
"642 317 CURVE",
"471 289 LINE",
"473 331 OFFCURVE",
"500 377 OFFCURVE"
);
},
{
closed = 1;
nodes = (
"256 108 CURVE SMOOTH",
"210 108 OFFCURVE",
"192 126 OFFCURVE",
"192 153 CURVE SMOOTH",
"192 180 OFFCURVE",
"219 191 OFFCURVE",
"256 195 CURVE SMOOTH",
"311 201 LINE",
"311 121 LINE",
"302 114 OFFCURVE",
"275 108 OFFCURVE"
);
}
);
width = 833;
}
);
leftKerningGroup = a;
rightKerningGroup = e;
unicode = 00E6;
},
{
glyphname = ccedilla;
lastChange = "2017-09-02 22:18:06 +0000";
layers = (
{
layerId = "95F0E3FF-6822-4CFD-805E-5B95C02D9EC6";
paths = (
{
closed = 1;
nodes = (
"231 -7 CURVE",
"236 -18 OFFCURVE",
"240 -31 OFFCURVE",
"240 -44 CURVE SMOOTH",
"240 -75 OFFCURVE",
"215 -94 OFFCURVE",
"172 -96 CURVE",
"169 -106 OFFCURVE",
"168 -116 OFFCURVE",
"168 -126 CURVE SMOOTH",
"168 -177 OFFCURVE",
"207 -205 OFFCURVE",
"261 -205 CURVE SMOOTH",
"337 -205 OFFCURVE",
"382 -155 OFFCURVE",
"382 -87 CURVE SMOOTH",
"382 -64 OFFCURVE",
"376 -28 OFFCURVE",
"366 -10 CURVE",
"423 0 OFFCURVE",
"456 30 OFFCURVE",
"456 71 CURVE SMOOTH",
"456 101 OFFCURVE",
"442 123 OFFCURVE",
"416 141 CURVE",
"394 130 OFFCURVE",
"365 119 OFFCURVE",
"325 119 CURVE SMOOTH",
"257 119 OFFCURVE",
"203 161 OFFCURVE",
"203 243 CURVE SMOOTH",
"203 325 OFFCURVE",
"259 367 OFFCURVE",
"326 367 CURVE SMOOTH",
"363 367 OFFCURVE",
"396 355 OFFCURVE",
"419 344 CURVE",
"435 360 OFFCURVE",
"449 383 OFFCURVE",
"449 408 CURVE SMOOTH",
"449 462 OFFCURVE",
"394 501 OFFCURVE",
"299 501 CURVE SMOOTH",
"155 501 OFFCURVE",
"31 417 OFFCURVE",
"31 240 CURVE SMOOTH",
"31 113 OFFCURVE",
"108 20 OFFCURVE"
);
}
);
width = 494;
}
);
leftKerningGroup = o;
rightKerningGroup = c;
unicode = 00E7;
},
{
glyphname = egrave;
lastChange = "2017-09-02 22:18:06 +0000";
layers = (
{
layerId = "95F0E3FF-6822-4CFD-805E-5B95C02D9EC6";
paths = (
{
closed = 1;
nodes = (
"309 -16 CURVE",
"355 -16 OFFCURVE",
"413 -9 OFFCURVE",
"456 13 CURVE SMOOTH",
"483 27 OFFCURVE",
"498 50 OFFCURVE",
"498 80 CURVE SMOOTH",
"498 107 OFFCURVE",
"481 133 OFFCURVE",
"460 146 CURVE",
"429 128 OFFCURVE",
"377 111 OFFCURVE",
"323 111 CURVE SMOOTH",
"265 111 OFFCURVE",
"214 133 OFFCURVE",
"200 177 CURVE",
"447 214 LINE SMOOTH",
"492 221 OFFCURVE",
"519 244 OFFCURVE",
"519 289 CURVE SMOOTH",
"519 412 OFFCURVE",
"422 501 OFFCURVE",
"281 501 CURVE SMOOTH",
"156 501 OFFCURVE",
"31 427 OFFCURVE",
"31 250 CURVE SMOOTH",
"31 72 OFFCURVE",
"152 -16 OFFCURVE"
);
},
{
closed = 1;
nodes = (
"281 377 CURVE",
"330 377 OFFCURVE",
"355 344 OFFCURVE",
"359 317 CURVE",
"188 289 LINE",
"190 331 OFFCURVE",
"217 377 OFFCURVE"
);
},
{
closed = 1;
nodes = (
"267 554 LINE",
"288 540 OFFCURVE",
"310 530 OFFCURVE",
"331 530 CURVE SMOOTH",
"364 530 OFFCURVE",
"394 564 OFFCURVE",
"397 614 CURVE",
"284 709 LINE SMOOTH",
"256 733 OFFCURVE",
"237 747 OFFCURVE",
"204 747 CURVE SMOOTH",
"160 747 OFFCURVE",
"133 714 OFFCURVE",
"133 663 CURVE SMOOTH",
"133 658 OFFCURVE",
"134 648 OFFCURVE",
"135 643 CURVE"
);
}
);
width = 550;
}
);
leftKerningGroup = o;
rightKerningGroup = e;
unicode = 00E8;
},
{
glyphname = eacute;
lastChange = "2017-09-02 22:18:06 +0000";
layers = (
{
layerId = "95F0E3FF-6822-4CFD-805E-5B95C02D9EC6";
paths = (
{
closed = 1;
nodes = (
"309 -16 CURVE",
"355 -16 OFFCURVE",
"413 -9 OFFCURVE",
"456 13 CURVE SMOOTH",
"483 27 OFFCURVE",
"498 50 OFFCURVE",
"498 80 CURVE SMOOTH",
"498 107 OFFCURVE",
"481 133 OFFCURVE",
"460 146 CURVE",
"429 128 OFFCURVE",
"377 111 OFFCURVE",
"323 111 CURVE SMOOTH",
"265 111 OFFCURVE",
"214 133 OFFCURVE",
"200 177 CURVE",
"447 214 LINE SMOOTH",
"492 221 OFFCURVE",
"519 244 OFFCURVE",
"519 289 CURVE SMOOTH",
"519 412 OFFCURVE",
"422 501 OFFCURVE",
"281 501 CURVE SMOOTH",
"156 501 OFFCURVE",
"31 427 OFFCURVE",
"31 250 CURVE SMOOTH",
"31 72 OFFCURVE",
"152 -16 OFFCURVE"
);
},
{
closed = 1;
nodes = (
"281 377 CURVE",
"330 377 OFFCURVE",
"355 344 OFFCURVE",
"359 317 CURVE",
"188 289 LINE",
"190 331 OFFCURVE",
"217 377 OFFCURVE"
);
},
{
closed = 1;
nodes = (
"163 645 LINE",
"145 632 OFFCURVE",
"137 615 OFFCURVE",
"137 599 CURVE SMOOTH",
"137 567 OFFCURVE",
"169 534 OFFCURVE",
"209 530 CURVE",
"338 598 LINE SMOOTH",
"381 621 OFFCURVE",
"398 642 OFFCURVE",
"398 676 CURVE SMOOTH",
"398 713 OFFCURVE",
"368 744 OFFCURVE",
"299 744 CURVE"
);
}
);
width = 550;
}
);
leftKerningGroup = o;
rightKerningGroup = e;
unicode = 00E9;
},
{
glyphname = ecircumflex;
lastChange = "2017-09-02 22:18:06 +0000";
layers = (
{
layerId = "95F0E3FF-6822-4CFD-805E-5B95C02D9EC6";
paths = (
{
closed = 1;
nodes = (
"309 -16 CURVE",
"355 -16 OFFCURVE",
"413 -9 OFFCURVE",
"456 13 CURVE SMOOTH",
"483 27 OFFCURVE",
"498 50 OFFCURVE",
"498 80 CURVE SMOOTH",
"498 107 OFFCURVE",
"481 133 OFFCURVE",
"460 146 CURVE",
"429 128 OFFCURVE",
"377 111 OFFCURVE",
"323 111 CURVE SMOOTH",
"265 111 OFFCURVE",
"214 133 OFFCURVE",
"200 177 CURVE",
"447 214 LINE SMOOTH",
"492 221 OFFCURVE",
"519 244 OFFCURVE",
"519 289 CURVE SMOOTH",
"519 412 OFFCURVE",
"422 501 OFFCURVE",
"281 501 CURVE SMOOTH",
"156 501 OFFCURVE",
"31 427 OFFCURVE",
"31 250 CURVE SMOOTH",
"31 72 OFFCURVE",
"152 -16 OFFCURVE"
);
},
{
closed = 1;
nodes = (
"281 377 CURVE",
"330 377 OFFCURVE",
"355 344 OFFCURVE",
"359 317 CURVE",
"188 289 LINE",
"190 331 OFFCURVE",
"217 377 OFFCURVE"
);
},
{
closed = 1;
nodes = (
"302 590 LINE",
"343 547 OFFCURVE",
"356 542 OFFCURVE",
"382 542 CURVE SMOOTH",
"423 542 OFFCURVE",
"446 571 OFFCURVE",
"446 612 CURVE SMOOTH",
"446 618 OFFCURVE",
"445 624 OFFCURVE",
"444 630 CURVE",
"374 692 LINE SMOOTH",
"322 738 OFFCURVE",
"308 744 OFFCURVE",
"272 744 CURVE SMOOTH",
"246 744 OFFCURVE",
"221 735 OFFCURVE",
"189 712 CURVE SMOOTH",
"140 677 LINE SMOOTH",
"105 652 OFFCURVE",
"92 633 OFFCURVE",
"92 606 CURVE SMOOTH",
"92 568 OFFCURVE",
"125 540 OFFCURVE",
"177 540 CURVE",
"202 562 OFFCURVE",
"223 584 OFFCURVE",
"268 622 CURVE"
);
}
);
width = 550;
}
);
leftKerningGroup = o;
rightKerningGroup = e;
unicode = 00EA;
},
{
glyphname = edieresis;
lastChange = "2017-09-02 22:18:06 +0000";
layers = (
{
layerId = "95F0E3FF-6822-4CFD-805E-5B95C02D9EC6";
paths = (
{
closed = 1;
nodes = (
"309 -16 CURVE",
"355 -16 OFFCURVE",
"413 -9 OFFCURVE",
"456 13 CURVE SMOOTH",
"483 27 OFFCURVE",
"498 50 OFFCURVE",
"498 80 CURVE SMOOTH",
"498 107 OFFCURVE",
"481 133 OFFCURVE",
"460 146 CURVE",
"429 128 OFFCURVE",
"377 111 OFFCURVE",
"323 111 CURVE SMOOTH",
"265 111 OFFCURVE",
"214 133 OFFCURVE",
"200 177 CURVE",
"447 214 LINE SMOOTH",
"492 221 OFFCURVE",
"519 244 OFFCURVE",
"519 289 CURVE SMOOTH",
"519 412 OFFCURVE",
"422 501 OFFCURVE",
"281 501 CURVE SMOOTH",
"156 501 OFFCURVE",
"31 427 OFFCURVE",
"31 250 CURVE SMOOTH",
"31 72 OFFCURVE",
"152 -16 OFFCURVE"
);
},
{
closed = 1;
nodes = (
"281 377 CURVE",
"330 377 OFFCURVE",
"355 344 OFFCURVE",
"359 317 CURVE",
"188 289 LINE",
"190 331 OFFCURVE",
"217 377 OFFCURVE"
);
},
{
closed = 1;
nodes = (
"72 637 CURVE",
"72 590 OFFCURVE",
"110 551 OFFCURVE",
"159 551 CURVE SMOOTH",
"214 551 OFFCURVE",
"249 590 OFFCURVE",
"249 637 CURVE SMOOTH",
"249 683 OFFCURVE",
"214 723 OFFCURVE",
"159 723 CURVE SMOOTH",
"110 723 OFFCURVE",
"72 683 OFFCURVE"
);
},
{
closed = 1;
nodes = (
"296 637 CURVE",
"296 590 OFFCURVE",
"330 551 OFFCURVE",
"385 551 CURVE SMOOTH",
"436 551 OFFCURVE",
"473 590 OFFCURVE",
"473 637 CURVE SMOOTH",
"473 683 OFFCURVE",
"436 723 OFFCURVE",
"385 723 CURVE SMOOTH",
"330 723 OFFCURVE",
"296 683 OFFCURVE"
);
}
);
width = 550;
}
);
leftKerningGroup = o;
rightKerningGroup = e;
unicode = 00EB;
},
{
glyphname = igrave;
lastChange = "2017-09-02 22:18:06 +0000";
layers = (
{
layerId = "95F0E3FF-6822-4CFD-805E-5B95C02D9EC6";
paths = (
{
closed = 1;
nodes = (
"110 554 LINE",
"131 540 OFFCURVE",
"153 530 OFFCURVE",
"174 530 CURVE SMOOTH",
"207 530 OFFCURVE",
"237 564 OFFCURVE",
"240 614 CURVE",
"127 709 LINE SMOOTH",
"99 733 OFFCURVE",
"80 747 OFFCURVE",
"47 747 CURVE SMOOTH",
"3 747 OFFCURVE",
"-24 714 OFFCURVE",
"-24 663 CURVE SMOOTH",
"-24 658 OFFCURVE",
"-23 648 OFFCURVE",
"-22 643 CURVE"
);
},
{
closed = 1;
nodes = (
"226 408 LINE",
"226 475 OFFCURVE",
"191 488 OFFCURVE",
"132 488 CURVE SMOOTH",
"103 488 OFFCURVE",
"70 482 OFFCURVE",
"56 479 CURVE",
"56 72 LINE SMOOTH",
"56 5 OFFCURVE",
"91 -8 OFFCURVE",
"150 -8 CURVE SMOOTH",
"179 -8 OFFCURVE",
"212 -2 OFFCURVE",
"226 1 CURVE"
);
}
);
width = 282;
}
);
leftKerningGroup = i;
rightKerningGroup = i;
unicode = 00EC;
},
{
glyphname = iacute;
lastChange = "2017-09-02 22:18:06 +0000";
layers = (
{
layerId = "95F0E3FF-6822-4CFD-805E-5B95C02D9EC6";
paths = (
{
closed = 1;
nodes = (
"66 645 LINE",
"48 632 OFFCURVE",
"40 615 OFFCURVE",
"40 599 CURVE SMOOTH",
"40 567 OFFCURVE",
"72 534 OFFCURVE",
"112 530 CURVE",
"241 598 LINE SMOOTH",
"284 621 OFFCURVE",
"301 642 OFFCURVE",
"301 676 CURVE SMOOTH",
"301 713 OFFCURVE",
"271 744 OFFCURVE",
"202 744 CURVE"
);
},
{
closed = 1;
nodes = (
"226 408 LINE",
"226 475 OFFCURVE",
"191 488 OFFCURVE",
"132 488 CURVE SMOOTH",
"103 488 OFFCURVE",
"70 482 OFFCURVE",
"56 479 CURVE",
"56 72 LINE SMOOTH",
"56 5 OFFCURVE",
"91 -8 OFFCURVE",
"150 -8 CURVE SMOOTH",
"179 -8 OFFCURVE",
"212 -2 OFFCURVE",
"226 1 CURVE"
);
}
);
width = 282;
}
);
leftKerningGroup = i;
rightKerningGroup = i;
unicode = 00ED;
},
{
glyphname = icircumflex;
lastChange = "2017-09-02 22:18:06 +0000";
layers = (
{
layerId = "95F0E3FF-6822-4CFD-805E-5B95C02D9EC6";
paths = (
{
closed = 1;
nodes = (
"226 408 LINE",
"226 475 OFFCURVE",
"191 488 OFFCURVE",
"132 488 CURVE SMOOTH",
"103 488 OFFCURVE",
"70 482 OFFCURVE",
"56 479 CURVE",
"56 72 LINE SMOOTH",
"56 5 OFFCURVE",
"91 -8 OFFCURVE",
"150 -8 CURVE SMOOTH",
"179 -8 OFFCURVE",
"212 -2 OFFCURVE",
"226 1 CURVE"
);
},
{
closed = 1;
nodes = (
"174 590 LINE",
"215 547 OFFCURVE",
"228 542 OFFCURVE",
"254 542 CURVE SMOOTH",
"295 542 OFFCURVE",
"318 571 OFFCURVE",
"318 612 CURVE SMOOTH",
"318 618 OFFCURVE",
"317 624 OFFCURVE",
"316 630 CURVE",
"246 692 LINE SMOOTH",
"194 738 OFFCURVE",
"180 744 OFFCURVE",
"144 744 CURVE SMOOTH",
"118 744 OFFCURVE",
"93 735 OFFCURVE",
"61 712 CURVE SMOOTH",
"12 677 LINE SMOOTH",
"-23 652 OFFCURVE",
"-36 633 OFFCURVE",
"-36 606 CURVE SMOOTH",
"-36 568 OFFCURVE",
"-3 540 OFFCURVE",
"49 540 CURVE",
"74 562 OFFCURVE",
"95 584 OFFCURVE",
"140 622 CURVE"
);
}
);
width = 282;
}
);
leftKerningGroup = i;
rightKerningGroup = i;
unicode = 00EE;
},
{
glyphname = idieresis;
lastChange = "2017-09-02 22:18:06 +0000";
layers = (
{
layerId = "95F0E3FF-6822-4CFD-805E-5B95C02D9EC6";
paths = (
{
closed = 1;
nodes = (
"-61 637 CURVE",
"-61 590 OFFCURVE",
"-23 551 OFFCURVE",
"26 551 CURVE SMOOTH",
"81 551 OFFCURVE",
"116 590 OFFCURVE",
"116 637 CURVE SMOOTH",
"116 683 OFFCURVE",
"81 723 OFFCURVE",
"26 723 CURVE SMOOTH",
"-23 723 OFFCURVE",
"-61 683 OFFCURVE"
);
},
{
closed = 1;
nodes = (
"163 637 CURVE",
"163 590 OFFCURVE",
"197 551 OFFCURVE",
"252 551 CURVE SMOOTH",
"303 551 OFFCURVE",
"340 590 OFFCURVE",
"340 637 CURVE SMOOTH",
"340 683 OFFCURVE",
"303 723 OFFCURVE",
"252 723 CURVE SMOOTH",
"197 723 OFFCURVE",
"163 683 OFFCURVE"
);
},
{
closed = 1;
nodes = (
"226 408 LINE",
"226 475 OFFCURVE",
"191 488 OFFCURVE",
"132 488 CURVE SMOOTH",
"103 488 OFFCURVE",
"70 482 OFFCURVE",
"56 479 CURVE",
"56 72 LINE SMOOTH",
"56 5 OFFCURVE",
"91 -8 OFFCURVE",
"150 -8 CURVE SMOOTH",
"179 -8 OFFCURVE",
"212 -2 OFFCURVE",
"226 1 CURVE"
);
}
);
width = 282;
}
);
leftKerningGroup = i;
rightKerningGroup = i;
unicode = 00EF;
},
{
glyphname = eth;
lastChange = "2017-09-02 22:18:06 +0000";
layers = (
{
layerId = "95F0E3FF-6822-4CFD-805E-5B95C02D9EC6";
paths = (
{
closed = 1;
nodes = (
"553 260 CURVE",
"553 381 OFFCURVE",
"514 487 OFFCURVE",
"477 554 CURVE",
"507 565 LINE SMOOTH",
"529 573 OFFCURVE",
"543 587 OFFCURVE",
"543 617 CURVE SMOOTH",
"543 644 OFFCURVE",
"523 675 OFFCURVE",
"505 688 CURVE",
"402 656 LINE",
"372 686 OFFCURVE",
"337 711 OFFCURVE",
"292 711 CURVE SMOOTH",
"245 711 OFFCURVE",
"204 685 OFFCURVE",
"190 630 CURVE",
"204 617 OFFCURVE",
"217 607 OFFCURVE",
"231 593 CURVE",
"181 578 LINE SMOOTH",
"160 572 OFFCURVE",
"148 555 OFFCURVE",
"148 532 CURVE SMOOTH",
"148 505 OFFCURVE",
"162 480 OFFCURVE",
"176 468 CURVE",
"313 507 LINE",
"326 487 OFFCURVE",
"335 466 OFFCURVE",
"343 444 CURVE",
"324 453 OFFCURVE",
"293 457 OFFCURVE",
"265 457 CURVE SMOOTH",
"147 457 OFFCURVE",
"31 380 OFFCURVE",
"31 226 CURVE SMOOTH",
"31 77 OFFCURVE",
"131 -16 OFFCURVE",
"293 -16 CURVE SMOOTH",
"475 -16 OFFCURVE",
"553 101 OFFCURVE"
);
},
{
closed = 1;
nodes = (
"298 330 CURVE",
"326 330 OFFCURVE",
"352 320 OFFCURVE",
"371 301 CURVE",
"376 276 OFFCURVE",
"378 251 OFFCURVE",
"378 228 CURVE SMOOTH",
"378 160 OFFCURVE",
"351 118 OFFCURVE",
"294 118 CURVE SMOOTH",
"235 118 OFFCURVE",
"205 159 OFFCURVE",
"205 226 CURVE SMOOTH",
"205 287 OFFCURVE",
"238 330 OFFCURVE"
);
}
);
width = 585;
}
);
leftKerningGroup = o;
unicode = 00F0;
},
{
glyphname = ntilde;
lastChange = "2017-09-02 22:18:06 +0000";
layers = (
{
layerId = "95F0E3FF-6822-4CFD-805E-5B95C02D9EC6";
paths = (
{
closed = 1;
nodes = (
"360 72 LINE",
"360 5 OFFCURVE",
"395 -8 OFFCURVE",
"454 -8 CURVE SMOOTH",
"484 -8 OFFCURVE",
"517 -3 OFFCURVE",
"530 1 CURVE",
"530 314 LINE SMOOTH",
"530 431 OFFCURVE",
"445 501 OFFCURVE",
"295 501 CURVE SMOOTH",
"212 501 OFFCURVE",
"140 479 OFFCURVE",
"95 447 CURVE SMOOTH",
"68 428 OFFCURVE",
"52 408 OFFCURVE",
"52 372 CURVE SMOOTH",
"52 72 LINE SMOOTH",
"52 5 OFFCURVE",
"87 -8 OFFCURVE",
"146 -8 CURVE SMOOTH",
"176 -8 OFFCURVE",
"209 -3 OFFCURVE",
"222 1 CURVE",
"222 348 LINE",
"240 361 OFFCURVE",
"269 368 OFFCURVE",
"295 368 CURVE SMOOTH",
"335 368 OFFCURVE",
"360 349 OFFCURVE",
"360 308 CURVE SMOOTH"
);
},
{
closed = 1;
nodes = (
"296 697 CURVE",
"241 713 OFFCURVE",
"223 715 OFFCURVE",
"205 715 CURVE SMOOTH",
"158 715 OFFCURVE",
"107 688 OFFCURVE",
"107 628 CURVE SMOOTH",
"107 581 OFFCURVE",
"142 548 OFFCURVE",
"189 548 CURVE",
"197 561 OFFCURVE",
"211 583 OFFCURVE",
"240 583 CURVE SMOOTH",
"252 583 OFFCURVE",
"264 579 OFFCURVE",
"282 574 CURVE SMOOTH",
"322 562 LINE SMOOTH",
"344 556 OFFCURVE",
"363 554 OFFCURVE",
"381 554 CURVE SMOOTH",
"437 554 OFFCURVE",
"479 582 OFFCURVE",
"479 641 CURVE SMOOTH",
"479 688 OFFCURVE",
"444 721 OFFCURVE",
"397 721 CURVE",
"390 709 OFFCURVE",
"375 686 OFFCURVE",
"346 686 CURVE SMOOTH",
"335 686 OFFCURVE",
"320 690 OFFCURVE"
);
}
);
width = 583;
}
);
rightKerningGroup = h;
unicode = 00F1;
},
{
glyphname = ograve;
lastChange = "2017-09-02 22:18:06 +0000";
layers = (
{
layerId = "95F0E3FF-6822-4CFD-805E-5B95C02D9EC6";
paths = (
{
closed = 1;
nodes = (
"292 554 LINE",
"313 540 OFFCURVE",
"335 530 OFFCURVE",
"356 530 CURVE SMOOTH",
"389 530 OFFCURVE",
"419 564 OFFCURVE",
"422 614 CURVE",
"309 709 LINE SMOOTH",
"281 733 OFFCURVE",
"262 747 OFFCURVE",
"229 747 CURVE SMOOTH",
"185 747 OFFCURVE",
"158 714 OFFCURVE",
"158 663 CURVE SMOOTH",
"158 658 OFFCURVE",
"159 648 OFFCURVE",
"160 643 CURVE"
);
},
{
closed = 1;
nodes = (
"555 243 CURVE",
"555 399 OFFCURVE",
"450 501 OFFCURVE",
"293 501 CURVE SMOOTH",
"136 501 OFFCURVE",
"31 401 OFFCURVE",
"31 243 CURVE",
"31 82 OFFCURVE",
"136 -16 OFFCURVE",
"293 -16 CURVE SMOOTH",
"450 -16 OFFCURVE",
"555 77 OFFCURVE"
);
},
{
closed = 1;
nodes = (
"205 243 CURVE",
"205 323 OFFCURVE",
"238 368 OFFCURVE",
"293 368 CURVE",
"348 368 OFFCURVE",
"381 322 OFFCURVE",
"381 243 CURVE SMOOTH",
"381 163 OFFCURVE",
"349 117 OFFCURVE",
"294 117 CURVE SMOOTH",
"239 117 OFFCURVE",
"205 162 OFFCURVE"
);
}
);
width = 586;
}
);
leftKerningGroup = o;
rightKerningGroup = o;
unicode = 00F2;
},
{
glyphname = oacute;
lastChange = "2017-09-02 22:18:06 +0000";
layers = (
{
layerId = "95F0E3FF-6822-4CFD-805E-5B95C02D9EC6";
paths = (
{
closed = 1;
nodes = (
"188 645 LINE",
"170 632 OFFCURVE",
"162 615 OFFCURVE",
"162 599 CURVE SMOOTH",
"162 567 OFFCURVE",
"194 534 OFFCURVE",
"234 530 CURVE",
"363 598 LINE SMOOTH",
"406 621 OFFCURVE",
"423 642 OFFCURVE",
"423 676 CURVE SMOOTH",
"423 713 OFFCURVE",
"393 744 OFFCURVE",
"324 744 CURVE"
);
},
{
closed = 1;
nodes = (
"555 243 CURVE",
"555 399 OFFCURVE",
"450 501 OFFCURVE",
"293 501 CURVE SMOOTH",
"136 501 OFFCURVE",
"31 401 OFFCURVE",
"31 243 CURVE",
"31 82 OFFCURVE",
"136 -16 OFFCURVE",
"293 -16 CURVE SMOOTH",
"450 -16 OFFCURVE",
"555 77 OFFCURVE"
);
},
{
closed = 1;
nodes = (
"205 243 CURVE",
"205 323 OFFCURVE",
"238 368 OFFCURVE",
"293 368 CURVE",
"348 368 OFFCURVE",
"381 322 OFFCURVE",
"381 243 CURVE SMOOTH",
"381 163 OFFCURVE",
"349 117 OFFCURVE",
"294 117 CURVE SMOOTH",
"239 117 OFFCURVE",
"205 162 OFFCURVE"
);
}
);
width = 586;
}
);
leftKerningGroup = o;
rightKerningGroup = o;
unicode = 00F3;
},
{
glyphname = ocircumflex;
lastChange = "2017-09-02 22:18:06 +0000";
layers = (
{
layerId = "95F0E3FF-6822-4CFD-805E-5B95C02D9EC6";
paths = (
{
closed = 1;
nodes = (
"324 590 LINE",
"365 547 OFFCURVE",
"378 542 OFFCURVE",
"404 542 CURVE SMOOTH",
"445 542 OFFCURVE",
"468 571 OFFCURVE",
"468 612 CURVE SMOOTH",
"468 618 OFFCURVE",
"467 624 OFFCURVE",
"466 630 CURVE",
"396 692 LINE SMOOTH",
"344 738 OFFCURVE",
"330 744 OFFCURVE",
"294 744 CURVE SMOOTH",
"268 744 OFFCURVE",
"243 735 OFFCURVE",
"211 712 CURVE SMOOTH",
"162 677 LINE SMOOTH",
"127 652 OFFCURVE",
"114 633 OFFCURVE",
"114 606 CURVE SMOOTH",
"114 568 OFFCURVE",
"147 540 OFFCURVE",
"199 540 CURVE",
"224 562 OFFCURVE",
"245 584 OFFCURVE",
"290 622 CURVE"
);
},
{
closed = 1;
nodes = (
"555 243 CURVE",
"555 399 OFFCURVE",
"450 501 OFFCURVE",
"293 501 CURVE SMOOTH",
"136 501 OFFCURVE",
"31 401 OFFCURVE",
"31 243 CURVE",
"31 82 OFFCURVE",
"136 -16 OFFCURVE",
"293 -16 CURVE SMOOTH",
"450 -16 OFFCURVE",
"555 77 OFFCURVE"
);
},
{
closed = 1;
nodes = (
"205 243 CURVE",
"205 323 OFFCURVE",
"238 368 OFFCURVE",
"293 368 CURVE",
"348 368 OFFCURVE",
"381 322 OFFCURVE",
"381 243 CURVE SMOOTH",
"381 163 OFFCURVE",
"349 117 OFFCURVE",
"294 117 CURVE SMOOTH",
"239 117 OFFCURVE",
"205 162 OFFCURVE"
);
}
);
width = 586;
}
);
leftKerningGroup = o;
rightKerningGroup = o;
unicode = 00F4;
},
{
glyphname = otilde;
lastChange = "2017-09-02 22:18:06 +0000";
layers = (
{
layerId = "95F0E3FF-6822-4CFD-805E-5B95C02D9EC6";
paths = (
{
closed = 1;
nodes = (
"555 243 CURVE",
"555 399 OFFCURVE",
"450 501 OFFCURVE",
"293 501 CURVE SMOOTH",
"136 501 OFFCURVE",
"31 401 OFFCURVE",
"31 243 CURVE",
"31 82 OFFCURVE",
"136 -16 OFFCURVE",
"293 -16 CURVE SMOOTH",
"450 -16 OFFCURVE",
"555 77 OFFCURVE"
);
},
{
closed = 1;
nodes = (
"205 243 CURVE",
"205 323 OFFCURVE",
"238 368 OFFCURVE",
"293 368 CURVE",
"348 368 OFFCURVE",
"381 322 OFFCURVE",
"381 243 CURVE SMOOTH",
"381 163 OFFCURVE",
"349 117 OFFCURVE",
"294 117 CURVE SMOOTH",
"239 117 OFFCURVE",
"205 162 OFFCURVE"
);
},
{
closed = 1;
nodes = (
"298 697 CURVE",
"243 713 OFFCURVE",
"225 715 OFFCURVE",
"207 715 CURVE SMOOTH",
"160 715 OFFCURVE",
"109 688 OFFCURVE",
"109 628 CURVE SMOOTH",
"109 581 OFFCURVE",
"144 548 OFFCURVE",
"191 548 CURVE",
"199 561 OFFCURVE",
"213 583 OFFCURVE",
"242 583 CURVE SMOOTH",
"254 583 OFFCURVE",
"266 579 OFFCURVE",
"284 574 CURVE SMOOTH",
"324 562 LINE SMOOTH",
"346 556 OFFCURVE",
"365 554 OFFCURVE",
"383 554 CURVE SMOOTH",
"439 554 OFFCURVE",
"481 582 OFFCURVE",
"481 641 CURVE SMOOTH",
"481 688 OFFCURVE",
"446 721 OFFCURVE",
"399 721 CURVE",
"392 709 OFFCURVE",
"377 686 OFFCURVE",
"348 686 CURVE SMOOTH",
"337 686 OFFCURVE",
"322 690 OFFCURVE"
);
}
);
width = 586;
}
);
leftKerningGroup = o;
rightKerningGroup = o;
unicode = 00F5;
},
{
glyphname = odieresis;
lastChange = "2017-09-02 22:18:06 +0000";
layers = (
{
layerId = "95F0E3FF-6822-4CFD-805E-5B95C02D9EC6";
paths = (
{
closed = 1;
nodes = (
"92 637 CURVE",
"92 590 OFFCURVE",
"130 551 OFFCURVE",
"179 551 CURVE SMOOTH",
"234 551 OFFCURVE",
"269 590 OFFCURVE",
"269 637 CURVE SMOOTH",
"269 683 OFFCURVE",
"234 723 OFFCURVE",
"179 723 CURVE SMOOTH",
"130 723 OFFCURVE",
"92 683 OFFCURVE"
);
},
{
closed = 1;
nodes = (
"316 637 CURVE",
"316 590 OFFCURVE",
"350 551 OFFCURVE",
"405 551 CURVE SMOOTH",
"456 551 OFFCURVE",
"493 590 OFFCURVE",
"493 637 CURVE SMOOTH",
"493 683 OFFCURVE",
"456 723 OFFCURVE",
"405 723 CURVE SMOOTH",
"350 723 OFFCURVE",
"316 683 OFFCURVE"
);
},
{
closed = 1;
nodes = (
"555 243 CURVE",
"555 399 OFFCURVE",
"450 501 OFFCURVE",
"293 501 CURVE SMOOTH",
"136 501 OFFCURVE",
"31 401 OFFCURVE",
"31 243 CURVE",
"31 82 OFFCURVE",
"136 -16 OFFCURVE",
"293 -16 CURVE SMOOTH",
"450 -16 OFFCURVE",
"555 77 OFFCURVE"
);
},
{
closed = 1;
nodes = (
"205 243 CURVE",
"205 323 OFFCURVE",
"238 368 OFFCURVE",
"293 368 CURVE",
"348 368 OFFCURVE",
"381 322 OFFCURVE",
"381 243 CURVE SMOOTH",
"381 163 OFFCURVE",
"349 117 OFFCURVE",
"294 117 CURVE SMOOTH",
"239 117 OFFCURVE",
"205 162 OFFCURVE"
);
}
);
width = 586;
}
);
leftKerningGroup = o;
rightKerningGroup = o;
unicode = 00F6;
},
{
glyphname = divide;
lastChange = "2017-09-02 22:18:06 +0000";
layers = (
{
layerId = "95F0E3FF-6822-4CFD-805E-5B95C02D9EC6";
paths = (
{
closed = 1;
nodes = (
"188 458 CURVE",
"188 415 OFFCURVE",
"219 379 OFFCURVE",
"266 379 CURVE SMOOTH",
"314 379 OFFCURVE",
"345 415 OFFCURVE",
"345 458 CURVE SMOOTH",
"345 502 OFFCURVE",
"314 538 OFFCURVE",
"266 538 CURVE SMOOTH",
"219 538 OFFCURVE",
"188 502 OFFCURVE"
);
},
{
closed = 1;
nodes = (
"188 121 CURVE",
"188 77 OFFCURVE",
"219 41 OFFCURVE",
"266 41 CURVE SMOOTH",
"314 41 OFFCURVE",
"345 77 OFFCURVE",
"345 121 CURVE SMOOTH",
"345 164 OFFCURVE",
"314 200 OFFCURVE",
"266 200 CURVE SMOOTH",
"219 200 OFFCURVE",
"188 164 OFFCURVE"
);
},
{
closed = 1;
nodes = (
"437 222 LINE",
"472 222 OFFCURVE",
"495 243 OFFCURVE",
"495 290 CURVE SMOOTH",
"495 315 OFFCURVE",
"486 340 OFFCURVE",
"479 356 CURVE",
"89 356 LINE SMOOTH",
"53 356 OFFCURVE",
"30 335 OFFCURVE",
"30 287 CURVE SMOOTH",
"30 263 OFFCURVE",
"37 237 OFFCURVE",
"46 222 CURVE"
);
}
);
width = 525;
}
);
leftKerningGroup = hyphen;
rightKerningGroup = hyphen;
unicode = 00F7;
},
{
glyphname = oslash;
lastChange = "2017-09-02 22:18:06 +0000";
layers = (
{
layerId = "95F0E3FF-6822-4CFD-805E-5B95C02D9EC6";
paths = (
{
closed = 1;
nodes = (
"555 243 CURVE",
"555 324 OFFCURVE",
"526 391 OFFCURVE",
"477 436 CURVE",
"506 478 LINE SMOOTH",
"511 486 OFFCURVE",
"513 492 OFFCURVE",
"513 499 CURVE SMOOTH",
"513 526 OFFCURVE",
"471 547 OFFCURVE",
"447 547 CURVE",
"403 481 LINE",
"370 494 OFFCURVE",
"333 501 OFFCURVE",
"293 501 CURVE SMOOTH",
"136 501 OFFCURVE",
"31 401 OFFCURVE",
"31 243 CURVE SMOOTH",
"31 159 OFFCURVE",
"59 91 OFFCURVE",
"109 47 CURVE",
"83 9 LINE",
"78 0 OFFCURVE",
"75 -6 OFFCURVE",
"75 -13 CURVE SMOOTH",
"75 -37 OFFCURVE",
"114 -61 OFFCURVE",
"141 -61 CURVE",
"184 2 LINE",
"216 -9 OFFCURVE",
"253 -16 OFFCURVE",
"293 -16 CURVE SMOOTH",
"450 -16 OFFCURVE",
"555 77 OFFCURVE"
);
},
{
closed = 1;
nodes = (
"193 243 CURVE",
"193 323 OFFCURVE",
"232 370 OFFCURVE",
"293 370 CURVE SMOOTH",
"305 370 OFFCURVE",
"316 368 OFFCURVE",
"326 365 CURVE",
"202 182 LINE",
"196 199 OFFCURVE",
"193 220 OFFCURVE"
);
},
{
closed = 1;
nodes = (
"294 115 CURVE",
"282 115 OFFCURVE",
"271 116 OFFCURVE",
"261 120 CURVE",
"384 303 LINE",
"390 286 OFFCURVE",
"393 265 OFFCURVE",
"393 243 CURVE SMOOTH",
"393 163 OFFCURVE",
"355 115 OFFCURVE"
);
}
);
width = 586;
}
);
leftKerningGroup = o;
rightKerningGroup = o;
unicode = 00F8;
},
{
glyphname = ugrave;
lastChange = "2017-09-02 22:18:06 +0000";
layers = (
{
layerId = "95F0E3FF-6822-4CFD-805E-5B95C02D9EC6";
paths = (
{
closed = 1;
nodes = (
"52 193 LINE",
"52 45 OFFCURVE",
"154 -16 OFFCURVE",
"299 -16 CURVE SMOOTH",
"375 -16 OFFCURVE",
"441 0 OFFCURVE",
"488 29 CURVE SMOOTH",
"516 46 OFFCURVE",
"530 71 OFFCURVE",
"530 104 CURVE SMOOTH",
"530 408 LINE SMOOTH",
"530 475 OFFCURVE",
"495 488 OFFCURVE",
"436 488 CURVE SMOOTH",
"406 488 OFFCURVE",
"373 483 OFFCURVE",
"360 479 CURVE",
"360 129 LINE",
"350 124 OFFCURVE",
"330 117 OFFCURVE",
"300 117 CURVE SMOOTH",
"250 117 OFFCURVE",
"222 139 OFFCURVE",
"222 193 CURVE SMOOTH",
"222 408 LINE SMOOTH",
"222 475 OFFCURVE",
"187 488 OFFCURVE",
"128 488 CURVE SMOOTH",
"98 488 OFFCURVE",
"65 483 OFFCURVE",
"52 479 CURVE"
);
},
{
closed = 1;
nodes = (
"289 554 LINE",
"310 540 OFFCURVE",
"332 530 OFFCURVE",
"353 530 CURVE SMOOTH",
"386 530 OFFCURVE",
"416 564 OFFCURVE",
"419 614 CURVE",
"306 709 LINE SMOOTH",
"278 733 OFFCURVE",
"259 747 OFFCURVE",
"226 747 CURVE SMOOTH",
"182 747 OFFCURVE",
"155 714 OFFCURVE",
"155 663 CURVE SMOOTH",
"155 658 OFFCURVE",
"156 648 OFFCURVE",
"157 643 CURVE"
);
}
);
width = 582;
}
);
leftKerningGroup = u;
rightKerningGroup = u;
unicode = 00F9;
},
{
glyphname = uacute;
lastChange = "2017-09-02 22:18:06 +0000";
layers = (
{
layerId = "95F0E3FF-6822-4CFD-805E-5B95C02D9EC6";
paths = (
{
closed = 1;
nodes = (
"52 193 LINE",
"52 45 OFFCURVE",
"154 -16 OFFCURVE",
"299 -16 CURVE SMOOTH",
"375 -16 OFFCURVE",
"441 0 OFFCURVE",
"488 29 CURVE SMOOTH",
"516 46 OFFCURVE",
"530 71 OFFCURVE",
"530 104 CURVE SMOOTH",
"530 408 LINE SMOOTH",
"530 475 OFFCURVE",
"495 488 OFFCURVE",
"436 488 CURVE SMOOTH",
"406 488 OFFCURVE",
"373 483 OFFCURVE",
"360 479 CURVE",
"360 129 LINE",
"350 124 OFFCURVE",
"330 117 OFFCURVE",
"300 117 CURVE SMOOTH",
"250 117 OFFCURVE",
"222 139 OFFCURVE",
"222 193 CURVE SMOOTH",
"222 408 LINE SMOOTH",
"222 475 OFFCURVE",
"187 488 OFFCURVE",
"128 488 CURVE SMOOTH",
"98 488 OFFCURVE",
"65 483 OFFCURVE",
"52 479 CURVE"
);
},
{
closed = 1;
nodes = (
"187 645 LINE",
"169 632 OFFCURVE",
"161 615 OFFCURVE",
"161 599 CURVE SMOOTH",
"161 567 OFFCURVE",
"193 534 OFFCURVE",
"233 530 CURVE",
"362 598 LINE SMOOTH",
"405 621 OFFCURVE",
"422 642 OFFCURVE",
"422 676 CURVE SMOOTH",
"422 713 OFFCURVE",
"392 744 OFFCURVE",
"323 744 CURVE"
);
}
);
width = 582;
}
);
leftKerningGroup = u;
rightKerningGroup = u;
unicode = 00FA;
},
